<svg width="161" height="161" viewBox="0 0 161 161" fill="none" xmlns="http://www.w3.org/2000/svg">
<mask id="mask0_4217_528" style="mask-type:alpha" maskUnits="userSpaceOnUse" x="0" y="0" width="161" height="161">
<circle cx="80.4996" cy="80.4996" r="79.65" fill="#F8F5FF"/>
</mask>
<g mask="url(#mask0_4217_528)">
<path d="M80.0266 129.055C101.436 129.055 118.792 106.219 118.792 78.0508C118.792 49.8821 101.436 27.0469 80.0266 27.0469C58.6174 27.0469 41.2617 49.8821 41.2617 78.0508C41.2617 106.219 58.6174 129.055 80.0266 129.055Z" fill="#DCDFE6"/>
<path d="M41.7932 81.4356C41.7739 74.3845 55.2554 56.7722 59.7422 48.551C64.229 40.3299 60.8167 56.7093 59.7422 59.1684C58.6677 61.6274 76.6239 48.551 76.6239 48.551L74.2491 57.0356C74.2491 57.0356 91.7748 50.2761 95.1711 48.551C98.5673 46.826 107.017 49.6608 109.423 55.3322C111.83 61.0036 111.833 59.1684 111.833 59.1684C111.833 59.1684 113.966 73.2313 113.777 75.83C113.587 78.4288 119.28 67.2192 118.461 78.9161C117.643 90.613 131.019 23.1591 79.5519 24.0079C28.0846 24.8568 41.8141 88.485 41.7932 81.4356Z" fill="#524E7A"/>
<path d="M92.0245 106.909C91.9627 108.791 86.7009 112.353 80.1341 112.353C73.5672 112.353 67.3498 108.153 68.2396 106.909C69.1294 105.666 92.0872 105.028 92.0245 106.909Z" fill="white"/>
<path d="M22.969 157.648C7.20844 150.406 59.3287 137.019 59.3287 137.019C59.3287 137.019 69.8692 143.189 80.0756 143.189C90.282 143.189 95.0129 140.077 100.157 137.019C97.0696 138.266 98.6051 137.495 100.157 137.019C101.708 136.543 155.02 151.608 135.164 157.648C110.829 164.677 38.7295 164.889 22.969 157.648Z" fill="#870099"/>
</g>
</svg>
