<svg width="185" height="359" viewBox="0 0 185 359" fill="none" xmlns="http://www.w3.org/2000/svg">
<path fill-rule="evenodd" clip-rule="evenodd" d="M185 8.70427e-07C184.996 2.90145e-07 184.992 0 184.988 0C171.253 0 157.76 3.55933 145.866 10.3199C133.973 17.0806 124.098 26.8041 117.236 38.5123C116.859 39.1679 116.485 39.8147 116.112 40.4583C115.798 41.0012 115.485 41.5419 115.173 42.0838C113.801 41.8623 112.426 41.6486 111.046 41.4432C97.4648 39.4227 83.5817 40.9577 70.7946 45.8933C58.0074 50.8289 46.7666 58.9912 38.203 69.5592C29.6393 80.1272 24.0555 92.7279 22.0121 106.094C19.9686 119.46 21.5377 133.12 26.5624 145.7C27.0783 146.975 27.5945 148.244 28.1165 149.514C27.0848 150.432 26.0612 151.357 25.0459 152.287C14.9714 161.476 7.53406 173.114 3.48158 186.029C-0.570908 198.945 -1.09596 212.683 1.96054 225.861C5.01705 239.04 11.5472 251.194 20.8929 261.1C30.2386 271.007 42.0707 278.317 55.1989 282.294L59.1968 283.503C59.2828 284.868 59.3771 286.236 59.4794 287.606C60.3961 301.113 64.9638 314.134 72.7107 325.321C80.4575 336.508 91.1016 345.454 103.541 351.234C114.181 356.32 125.851 358.974 137.68 359C153.364 358.973 168.67 354.252 181.564 345.463C182.717 344.685 183.853 343.912 185 343.121V328.39L184.973 328.422C172.689 319.635 160.872 310.233 149.569 300.254C161.359 301.212 173.18 301.69 185 301.689V289.723C168.317 289.724 151.633 288.744 135.039 286.784C111.248 263.706 90.3442 237.912 72.7744 209.951C76.2777 177.258 83.7389 145.094 94.9992 114.143C123.158 96.4502 153.365 82.1352 184.978 71.5023C184.986 71.5047 184.993 71.5071 185 71.5095V58.877C184.993 58.8794 184.986 58.8817 184.978 58.884C166.286 52.7971 147.208 47.9239 127.867 44.2958C133.606 34.3859 141.925 26.1608 151.969 20.4684C162.011 14.7774 173.413 11.8234 185 11.9103V8.70427e-07ZM185 11.9195L184.978 11.9406C184.986 11.9406 184.993 11.9405 185 11.9405V11.9195ZM121.652 55.3095C136.588 57.9837 151.374 61.4117 165.953 65.5797C143.881 73.9095 122.544 84.0156 102.16 95.7956C107.946 81.9795 114.452 68.4662 121.652 55.3095ZM70.4362 58.9316C61.5584 63.1809 53.7781 69.3597 47.6822 77.0014L47.719 76.9711C40.4144 85.8286 35.6419 96.4426 33.8932 107.719C32.1445 118.996 33.4829 130.527 37.7704 141.126C52.7142 128.503 68.4837 116.859 84.9771 106.269C91.7987 88.0878 99.8258 70.3672 109.007 53.2215C105.672 52.7232 102.303 52.4726 98.9296 52.472C89.0572 52.4734 79.3141 54.6823 70.4362 58.9316ZM29.6922 252.887C37.5482 261.242 47.4955 267.421 58.5394 270.806L58.5761 270.776C57.854 251.418 58.4221 232.034 60.277 212.749C50.0871 196.165 41.0138 178.941 33.1151 161.189C24.6573 168.954 18.4197 178.768 15.0254 189.65C11.631 200.532 11.1988 212.099 13.7727 223.197C16.3466 234.294 21.8362 244.532 29.6922 252.887ZM42.6781 152.749C54.1057 142.93 66.039 133.695 78.4305 125.081C71.2951 147.261 66.0271 169.982 62.6789 193.012C55.3135 179.938 48.6373 166.5 42.6781 152.749ZM71.1727 229.572C70.2786 244.475 70.1634 259.414 70.8276 274.329C85.4697 278.301 100.31 281.528 115.289 283.998C99.0895 267.079 84.3343 248.875 71.1727 229.572ZM82.7957 318.643C89.3345 328.054 98.3037 335.58 108.78 340.447L108.817 340.405C119.207 345.428 130.769 347.64 142.315 346.811C153.86 345.983 164.974 342.145 174.514 335.692C158.684 324.165 143.64 311.626 129.481 298.157C109.951 295.657 90.6077 291.899 71.5772 286.905C72.3847 298.278 76.2568 309.233 82.7957 318.643Z" fill="#F8F5FF"/>
</svg>
