<svg width="20" height="20" viewBox="0 0 20 20" fill="none" xmlns="http://www.w3.org/2000/svg">
<path fill-rule="evenodd" clip-rule="evenodd" d="M18 10C18 14.4183 14.4183 18 10 18C5.58172 18 2 14.4183 2 10C2 5.58172 5.58172 2 10 2C14.4183 2 18 5.58172 18 10ZM20 10C20 15.5228 15.5228 20 10 20C4.47715 20 0 15.5228 0 10C0 4.47715 4.47715 0 10 0C15.5228 0 20 4.47715 20 10ZM13.8459 7.5333C14.1405 7.06615 14.0006 6.44863 13.5334 6.15403C13.0663 5.85944 12.4487 5.99932 12.1541 6.46647L9.03282 11.416L7.70155 10.1054C7.30798 9.71799 6.67484 9.72295 6.28738 10.1165C5.89993 10.5101 5.90488 11.1432 6.29845 11.5307L8.51469 13.7125C8.73037 13.9248 9.03062 14.0281 9.33128 13.9932C9.63194 13.9584 9.90065 13.7893 10.0621 13.5333L13.8459 7.5333Z" fill="#9146FF"/>
</svg>
