<svg width="14" height="14" viewBox="0 0 14 14" fill="none" xmlns="http://www.w3.org/2000/svg">
<g clip-path="url(#clip0_6282_35511)">
<mask id="path-1-inside-1_6282_35511" fill="white">
<path fill-rule="evenodd" clip-rule="evenodd" d="M7 13.125C8.62445 13.125 10.1824 12.4797 11.331 11.331C12.4797 10.1824 13.125 8.62445 13.125 7C13.125 5.37555 12.4797 3.81763 11.331 2.66897C10.1824 1.52031 8.62445 0.875 7 0.875C5.37555 0.875 3.81763 1.52031 2.66897 2.66897C1.52031 3.81763 0.875 5.37555 0.875 7C0.875 8.62445 1.52031 10.1824 2.66897 11.331C3.81763 12.4797 5.37555 13.125 7 13.125ZM7 14C8.85652 14 10.637 13.2625 11.9497 11.9497C13.2625 10.637 14 8.85652 14 7C14 5.14348 13.2625 3.36301 11.9497 2.05025C10.637 0.737498 8.85652 0 7 0C5.14348 0 3.36301 0.737498 2.05025 2.05025C0.737498 3.36301 0 5.14348 0 7C0 8.85652 0.737498 10.637 2.05025 11.9497C3.36301 13.2625 5.14348 14 7 14Z"/>
</mask>
<path fill-rule="evenodd" clip-rule="evenodd" d="M7 13.125C8.62445 13.125 10.1824 12.4797 11.331 11.331C12.4797 10.1824 13.125 8.62445 13.125 7C13.125 5.37555 12.4797 3.81763 11.331 2.66897C10.1824 1.52031 8.62445 0.875 7 0.875C5.37555 0.875 3.81763 1.52031 2.66897 2.66897C1.52031 3.81763 0.875 5.37555 0.875 7C0.875 8.62445 1.52031 10.1824 2.66897 11.331C3.81763 12.4797 5.37555 13.125 7 13.125ZM7 14C8.85652 14 10.637 13.2625 11.9497 11.9497C13.2625 10.637 14 8.85652 14 7C14 5.14348 13.2625 3.36301 11.9497 2.05025C10.637 0.737498 8.85652 0 7 0C5.14348 0 3.36301 0.737498 2.05025 2.05025C0.737498 3.36301 0 5.14348 0 7C0 8.85652 0.737498 10.637 2.05025 11.9497C3.36301 13.2625 5.14348 14 7 14Z" fill="#76EB99"/>
<path d="M7 13.125V15.125V13.125ZM0.875 7H-1.125H0.875ZM7 14V16V14ZM14 7H16H14ZM7 0V-2V0ZM0 7H-2H0ZM7 15.125C9.15489 15.125 11.2215 14.269 12.7452 12.7452L9.91682 9.91682C9.14323 10.6904 8.09402 11.125 7 11.125V15.125ZM12.7452 12.7452C14.269 11.2215 15.125 9.15489 15.125 7H11.125C11.125 8.09402 10.6904 9.14323 9.91682 9.91682L12.7452 12.7452ZM15.125 7C15.125 4.84512 14.269 2.77849 12.7452 1.25476L9.91682 4.08318C10.6904 4.85677 11.125 5.90598 11.125 7H15.125ZM12.7452 1.25476C11.2215 -0.268975 9.15488 -1.125 7 -1.125V2.875C8.09402 2.875 9.14323 3.3096 9.91682 4.08318L12.7452 1.25476ZM7 -1.125C4.84512 -1.125 2.77849 -0.268976 1.25476 1.25476L4.08318 4.08318C4.85677 3.3096 5.90598 2.875 7 2.875V-1.125ZM1.25476 1.25476C-0.268976 2.77849 -1.125 4.84512 -1.125 7H2.875C2.875 5.90598 3.3096 4.85677 4.08318 4.08318L1.25476 1.25476ZM-1.125 7C-1.125 9.15488 -0.268975 11.2215 1.25476 12.7452L4.08318 9.91682C3.3096 9.14323 2.875 8.09402 2.875 7H-1.125ZM1.25476 12.7452C2.77849 14.269 4.84512 15.125 7 15.125V11.125C5.90598 11.125 4.85677 10.6904 4.08318 9.91682L1.25476 12.7452ZM7 16C9.38695 16 11.6761 15.0518 13.364 13.364L10.5355 10.5355C9.59785 11.4732 8.32608 12 7 12V16ZM13.364 13.364C15.0518 11.6761 16 9.38695 16 7H12C12 8.32608 11.4732 9.59785 10.5355 10.5355L13.364 13.364ZM16 7C16 4.61305 15.0518 2.32387 13.364 0.636039L10.5355 3.46447C11.4732 4.40215 12 5.67392 12 7H16ZM13.364 0.636039C11.6761 -1.05179 9.38695 -2 7 -2V2C8.32608 2 9.59785 2.52678 10.5355 3.46447L13.364 0.636039ZM7 -2C4.61305 -2 2.32387 -1.05179 0.636039 0.636039L3.46447 3.46447C4.40215 2.52678 5.67392 2 7 2V-2ZM0.636039 0.636039C-1.05179 2.32387 -2 4.61305 -2 7H2C2 5.67392 2.52678 4.40215 3.46447 3.46447L0.636039 0.636039ZM-2 7C-2 9.38695 -1.05179 11.6761 0.636039 13.364L3.46447 10.5355C2.52678 9.59785 2 8.32608 2 7H-2ZM0.636039 13.364C2.32387 15.0518 4.61305 16 7 16V12C5.67392 12 4.40215 11.4732 3.46447 10.5355L0.636039 13.364Z" fill="#76EB99" mask="url(#path-1-inside-1_6282_35511)"/>
<path d="M10.0998 5.28314L7.35929 8.02361C7.3381 7.99806 7.31554 7.97326 7.2916 7.94932L7.26718 7.9249L8.26415 6.92793L10.0044 5.18773C10.0307 5.16138 10.0734 5.16138 10.0998 5.18773C10.1261 5.21408 10.1261 5.25679 10.0998 5.28314ZM4.65961 6.73133L5.85301 7.92486L5.81685 7.96102C5.79691 7.98096 5.77792 8.00149 5.75989 8.02256L4.56419 6.82674C4.53785 6.80039 4.53785 6.75767 4.56419 6.73133C4.59054 6.70498 4.63326 6.70498 4.65961 6.73133ZM6.58445 8.7518C6.57045 8.7658 6.55183 8.77236 6.53349 8.77148C6.53013 8.76917 6.52694 8.76653 6.52395 8.76354C6.49761 8.73719 6.49761 8.69447 6.52395 8.66813L6.56007 8.63201L6.58445 8.65639C6.6108 8.68273 6.6108 8.72545 6.58445 8.7518Z" fill="#76EB99" stroke="#76EB99"/>
</g>
<defs>
<clipPath id="clip0_6282_35511">
<rect width="14" height="14" fill="white"/>
</clipPath>
</defs>
</svg>
