<svg width="30" height="24" viewBox="0 0 30 24" fill="none" xmlns="http://www.w3.org/2000/svg">
<path fill-rule="evenodd" clip-rule="evenodd" d="M3 3C3 1.34314 4.34315 0 6 0H18C19.6569 0 21 1.34315 21 3V12C21 12.5523 20.5523 13 20 13C19.4477 13 19 12.5523 19 12V3C19 2.44772 18.5523 2 18 2H6C5.44771 2 5 2.44772 5 3V21C5 21.5523 5.44772 22 6 22H14.9474C15.4997 22 15.9474 22.4477 15.9474 23C15.9474 23.5523 15.4997 24 14.9474 24H6C4.34315 24 3 22.6569 3 21V3Z" />
<path fill-rule="evenodd" clip-rule="evenodd" d="M10.2104 11.5845C10.2104 11.0322 10.6582 10.5845 11.2104 10.5845H17.2104C17.7627 10.5845 18.2104 11.0322 18.2104 11.5845C18.2104 12.1368 17.7627 12.5845 17.2104 12.5845H11.2104C10.6582 12.5845 10.2104 12.1368 10.2104 11.5845Z" />
<path fill-rule="evenodd" clip-rule="evenodd" d="M10.2104 15.5845C10.2104 15.0322 10.6582 14.5845 11.2104 14.5845H14.2104C14.7627 14.5845 15.2104 15.0322 15.2104 15.5845C15.2104 16.1368 14.7627 16.5845 14.2104 16.5845H11.2104C10.6582 16.5845 10.2104 16.1368 10.2104 15.5845Z" />
<path fill-rule="evenodd" clip-rule="evenodd" d="M10.2104 19.5845C10.2104 19.0322 10.6582 18.5845 11.2104 18.5845H12.2104C12.7627 18.5845 13.2104 19.0322 13.2104 19.5845C13.2104 20.1368 12.7627 20.5845 12.2104 20.5845H11.2104C10.6582 20.5845 10.2104 20.1368 10.2104 19.5845Z" />
<path fill-rule="evenodd" clip-rule="evenodd" d="M8.84577 10.8306C9.05822 11.007 9.08745 11.3223 8.91105 11.5347L7.71105 12.98C7.54297 13.1824 7.24677 13.22 7.03351 13.0659L6.23351 12.4878C6.00969 12.326 5.95937 12.0135 6.12111 11.7896C6.28285 11.5658 6.5954 11.5155 6.81922 11.6772L7.24031 11.9815L8.14168 10.8959C8.31808 10.6835 8.63331 10.6542 8.84577 10.8306Z" />
<path fill-rule="evenodd" clip-rule="evenodd" d="M8.84577 14.8306C9.05822 15.007 9.08745 15.3223 8.91105 15.5347L7.71105 16.98C7.54297 17.1824 7.24677 17.22 7.03351 17.0659L6.23351 16.4878C6.00969 16.326 5.95937 16.0135 6.12111 15.7896C6.28285 15.5658 6.5954 15.5155 6.81922 15.6772L7.24031 15.9815L8.14168 14.8959C8.31808 14.6835 8.63331 14.6542 8.84577 14.8306Z" />
<path fill-rule="evenodd" clip-rule="evenodd" d="M8.84577 18.8306C9.05822 19.007 9.08745 19.3223 8.91105 19.5347L7.71105 20.98C7.54297 21.1824 7.24677 21.22 7.03351 21.0659L6.23351 20.4878C6.00969 20.326 5.95937 20.0135 6.12111 19.7896C6.28285 19.5658 6.5954 19.5155 6.81922 19.6772L7.24031 19.9815L8.14168 18.8959C8.31808 18.6835 8.63331 18.6542 8.84577 18.8306Z" />
<path d="M10.2675 6.39168C10.4055 7.21368 10.9635 7.77768 11.7555 7.89168V8.34168H12.3255V7.90368C13.1415 7.81368 13.6635 7.30968 13.6635 6.58968C13.6635 5.89968 13.2135 5.50368 12.3255 5.35968V4.14768C12.6555 4.26168 12.9015 4.55568 12.9915 4.95768L13.5435 4.75368C13.3995 4.12968 12.9435 3.69168 12.3255 3.57168V3.12168H11.7555V3.55368C11.3895 3.59568 11.0955 3.71568 10.8675 3.91968C10.6455 4.11768 10.5315 4.36968 10.5315 4.66368C10.5315 5.32968 10.9395 5.73168 11.7555 5.86368V7.33368C11.2575 7.21968 10.9155 6.81168 10.8135 6.21168L10.2675 6.39168ZM11.7555 5.28168C11.2995 5.18568 11.1075 4.98768 11.1075 4.66968C11.1075 4.38168 11.3655 4.17168 11.7555 4.10568V5.28168ZM13.0875 6.60768C13.0875 6.99768 12.8055 7.27368 12.3255 7.35168V5.94768C12.8355 6.05568 13.0875 6.27768 13.0875 6.60768Z" />
<path fill-rule="evenodd" clip-rule="evenodd" d="M18.7 18.8351C19.5221 18.9371 20.2712 18.3532 20.3732 17.5311C20.4751 16.709 19.8913 15.9599 19.0692 15.8579C18.2471 15.7559 17.498 16.3398 17.396 17.1619C17.294 17.984 17.8778 18.7331 18.7 18.8351ZM18.5154 20.3237C20.1596 20.5276 21.6579 19.36 21.8618 17.7157C22.0657 16.0715 20.8981 14.5732 19.2538 14.3693C17.6096 14.1654 16.1113 15.333 15.9074 16.9773C15.7035 18.6215 16.8711 20.1198 18.5154 20.3237Z" />
<path fill-rule="evenodd" clip-rule="evenodd" d="M20.185 19.0104C20.4454 18.6882 20.9176 18.6381 21.2398 18.8985L22.4688 19.8916C22.4688 19.8916 22.4696 19.8922 22.033 20.4325L22.4688 19.8916C22.791 20.152 22.8419 20.6248 22.5815 20.947C22.3212 21.2691 21.849 21.3193 21.5268 21.0589L20.297 20.0652C19.9748 19.8048 19.9247 19.3326 20.185 19.0104Z" />
<path fill-rule="evenodd" clip-rule="evenodd" d="M22.7226 20.8531L22.5747 21.0255L23.7642 22.0461L23.9121 21.8738L22.7226 20.8531ZM21.4363 20.0487C20.8969 20.6774 20.9692 21.6244 21.5979 22.1638L22.7875 23.1845C23.4162 23.724 24.3632 23.6516 24.9026 23.0229L25.0505 22.8506C25.59 22.2219 25.5176 21.2749 24.8889 20.7354L23.6994 19.7147C23.0707 19.1753 22.1237 19.2476 21.5842 19.8763L21.4363 20.0487Z" />
</svg>
