<svg width="30" height="24" viewBox="0 0 30 24" fill="none" xmlns="http://www.w3.org/2000/svg">
<path d="M20 12V3C20 1.89543 19.1046 1 18 1H6C4.89543 1 4 1.89543 4 3V21C4 22.1046 4.89543 23 6 23H14.9474" stroke="#084C4F" stroke-width="2" stroke-linecap="round"/>
<path d="M11.2104 10.5845C10.6582 10.5845 10.2104 11.0322 10.2104 11.5845C10.2104 12.1368 10.6582 12.5845 11.2104 12.5845V10.5845ZM17.2104 12.5845C17.7627 12.5845 18.2104 12.1368 18.2104 11.5845C18.2104 11.0322 17.7627 10.5845 17.2104 10.5845V12.5845ZM11.2104 12.5845H17.2104V10.5845H11.2104V12.5845Z" fill="#084C4F"/>
<path d="M11.2104 14.5845C10.6582 14.5845 10.2104 15.0322 10.2104 15.5845C10.2104 16.1368 10.6582 16.5845 11.2104 16.5845V14.5845ZM14.2104 16.5845C14.7627 16.5845 15.2104 16.1368 15.2104 15.5845C15.2104 15.0322 14.7627 14.5845 14.2104 14.5845V16.5845ZM11.2104 16.5845H14.2104V14.5845H11.2104V16.5845Z" fill="#084C4F"/>
<path d="M11.2104 18.5845C10.6582 18.5845 10.2104 19.0322 10.2104 19.5845C10.2104 20.1368 10.6582 20.5845 11.2104 20.5845V18.5845ZM12.2104 20.5845C12.7627 20.5845 13.2104 20.1368 13.2104 19.5845C13.2104 19.0322 12.7627 18.5845 12.2104 18.5845V20.5845ZM11.2104 20.5845H12.2104V18.5845H11.2104V20.5845Z" fill="#084C4F"/>
<path d="M6.52637 12.0825L7.32637 12.6606L8.52637 11.2153" stroke="#084C4F" stroke-linecap="round" stroke-linejoin="round"/>
<path d="M6.52637 16.0825L7.32637 16.6606L8.52637 15.2153" stroke="#084C4F" stroke-linecap="round" stroke-linejoin="round"/>
<path d="M6.52637 20.0825L7.32637 20.6606L8.52637 19.2153" stroke="#084C4F" stroke-linecap="round" stroke-linejoin="round"/>
<path d="M10.2675 6.39168C10.4055 7.21368 10.9635 7.77768 11.7555 7.89168V8.34168H12.3255V7.90368C13.1415 7.81368 13.6635 7.30968 13.6635 6.58968C13.6635 5.89968 13.2135 5.50368 12.3255 5.35968V4.14768C12.6555 4.26168 12.9015 4.55568 12.9915 4.95768L13.5435 4.75368C13.3995 4.12968 12.9435 3.69168 12.3255 3.57168V3.12168H11.7555V3.55368C11.3895 3.59568 11.0955 3.71568 10.8675 3.91968C10.6455 4.11768 10.5315 4.36968 10.5315 4.66368C10.5315 5.32968 10.9395 5.73168 11.7555 5.86368V7.33368C11.2575 7.21968 10.9155 6.81168 10.8135 6.21168L10.2675 6.39168ZM11.7555 5.28168C11.2995 5.18568 11.1075 4.98768 11.1075 4.66968C11.1075 4.38168 11.3655 4.17168 11.7555 4.10568V5.28168ZM13.0875 6.60768C13.0875 6.99768 12.8055 7.27368 12.3255 7.35168V5.94768C12.8355 6.05568 13.0875 6.27768 13.0875 6.60768Z" fill="#084C4F"/>
<circle cx="18.8848" cy="17.3464" r="2.25" transform="rotate(7.06961 18.8848 17.3464)" stroke="#084C4F" stroke-width="1.5"/>
<path d="M20.7681 19.4819C21.7519 20.277 21.9979 20.4757 21.9979 20.4757" stroke="#084C4F" stroke-width="1.5" stroke-linecap="round" stroke-linejoin="round"/>
<rect x="21.5171" y="21.1062" width="1.72712" height="3.06741" rx="0.75" transform="rotate(-49.3686 21.5171 21.1062)" stroke="#084C4F" stroke-width="1.5"/>
</svg>
