<svg viewBox="0 0 14 14" fill="currentColor" xmlns="http://www.w3.org/2000/svg">
<path d="M6.4057 13C6.4057 13.4783 6.79344 13.866 7.27173 13.866C7.75002 13.866 8.13775 13.4783 8.13775 13L6.4057 13ZM7.8841 0.387628C7.5459 0.0494236 6.99756 0.0494236 6.65936 0.387628L1.148 5.89898C0.8098 6.23718 0.8098 6.78552 1.148 7.12372C1.48621 7.46193 2.03454 7.46193 2.37275 7.12372L7.27173 2.22474L12.1707 7.12372C12.5089 7.46193 13.0572 7.46193 13.3955 7.12372C13.7337 6.78552 13.7337 6.23718 13.3955 5.89898L7.8841 0.387628ZM8.13775 13L8.13775 1L6.4057 1L6.4057 13L8.13775 13Z"/>
</svg>
