<svg viewBox="0 0 14 14" fill="currentColor" xmlns="http://www.w3.org/2000/svg">
<path d="M8.13775 1C8.13775 0.521707 7.75002 0.133974 7.27173 0.133974C6.79343 0.133974 6.4057 0.521707 6.4057 1L8.13775 1ZM6.65936 13.6124C6.99756 13.9506 7.5459 13.9506 7.8841 13.6124L13.3955 8.10102C13.7337 7.76282 13.7337 7.21448 13.3955 6.87628C13.0572 6.53807 12.5089 6.53807 12.1707 6.87628L7.27173 11.7753L2.37275 6.87628C2.03454 6.53807 1.48621 6.53807 1.148 6.87628C0.8098 7.21448 0.8098 7.76282 1.148 8.10102L6.65936 13.6124ZM6.4057 1L6.4057 13L8.13775 13L8.13775 1L6.4057 1Z"/>
</svg>
