<svg width="18" height="24" viewBox="0 0 18 24" fill="none" xmlns="http://www.w3.org/2000/svg">
<path fill-rule="evenodd" clip-rule="evenodd" d="M16.4453 21.4969V12V2.50314C16.4453 2.15753 16.2133 1.87735 15.9271 1.87735H2.07289C1.78668 1.87735 1.55467 2.15752 1.55467 2.50313V21.4969C1.55467 21.8425 1.78669 22.1226 2.0729 22.1226H15.9271C16.2133 22.1226 16.4453 21.8425 16.4453 21.4969ZM18 2.50314V21.4969C18 22.8793 17.0719 24 15.9271 24H2.0729C0.928069 24 0 22.8793 0 21.4969V2.50313C0 1.12069 0.928066 0 2.07289 0H15.9271C17.0719 0 18 1.12069 18 2.50314Z" fill="#ACFFC5"/>
<path d="M4.17578 17.5078H14.1758" stroke="#ACFFC5" stroke-width="1.25" stroke-linecap="round" stroke-linejoin="round"/>
<path d="M4.17578 20.0078H14.1758" stroke="#ACFFC5" stroke-width="1.25" stroke-linecap="round" stroke-linejoin="round"/>
<path fill-rule="evenodd" clip-rule="evenodd" d="M8.92119 4.13896C8.40256 4.04401 8.01161 4.44917 8.01161 4.87359C8.01161 5.33969 8.41747 5.59928 8.69563 5.68673C8.98536 5.77781 9.16813 6.01767 9.16813 6.27379V9.77426C9.16813 10.0955 8.87315 10.3977 8.45508 10.3977H5.37101C4.95294 10.3977 4.65795 10.0955 4.65795 9.77426V6.27379C4.65795 6.01767 4.84073 5.77781 5.13045 5.68673C5.40862 5.59928 5.81448 5.33969 5.81448 4.87359C5.81448 4.44917 5.42353 4.04401 4.90489 4.13896C3.83668 4.33453 3 5.20027 3 6.27379V9.77426C3 10.9997 4.0858 11.9512 5.37101 11.9512H6.13043V12.212C6.13043 14.3731 7.88236 16.125 10.0435 16.125C11.9902 16.125 13.6046 14.7036 13.906 12.8419C14.5499 12.5599 15 11.9172 15 11.1686C15 10.1599 14.1826 9.34254 13.1739 9.34254C12.1652 9.34254 11.3478 10.1599 11.3478 11.1686C11.3478 11.8696 11.7425 12.4777 12.3213 12.7838C12.0661 13.804 11.1428 14.5598 10.0435 14.5598C8.74681 14.5598 7.69565 13.5087 7.69565 12.212V11.9512H8.45508C9.74029 11.9512 10.8261 10.9997 10.8261 9.77426V6.27379C10.8261 5.20027 9.98941 4.33453 8.92119 4.13896ZM13.1739 11.6906C13.4621 11.6906 13.6957 11.457 13.6957 11.1688C13.6957 10.8807 13.4621 10.6471 13.1739 10.6471C12.8858 10.6471 12.6522 10.8807 12.6522 11.1688C12.6522 11.457 12.8858 11.6906 13.1739 11.6906Z" fill="#ACFFC5"/>
</svg>
