<svg width="30" height="24" viewBox="0 0 30 24" fill="none" xmlns="http://www.w3.org/2000/svg">
<path d="M21.5567 19.7119C21.186 19.3278 21.186 18.705 21.5567 18.3209L24.468 15.3045L27.3793 12.2881C27.7501 11.904 28.3512 11.904 28.7219 12.2881C29.0927 12.6722 29.0927 13.295 28.7219 13.6791L22.8993 19.7119C22.5285 20.096 21.9274 20.096 21.5567 19.7119Z" fill="#9146FF"/>
<path d="M22.8409 19.6915C22.4701 20.0757 21.869 20.0757 21.4983 19.6915L18.278 16.3547C17.9073 15.9706 17.9073 15.3478 18.2781 14.9637C18.6488 14.5796 19.25 14.5796 19.6207 14.9637L22.8409 18.3005C23.2116 18.6847 23.2116 19.3074 22.8409 19.6915Z" fill="#9146FF"/>
<path d="M22 13.8036V1H4V23H22" stroke="#9146FF" stroke-width="2" stroke-linecap="round" stroke-linejoin="round"/>
<path d="M14.3 8.2V7.3H15.2C15.6418 7.3 16 6.94183 16 6.5C16 6.05817 15.6418 5.7 15.2 5.7H14.3V4.8C14.3 4.35817 13.9418 4 13.5 4C13.0582 4 12.7 4.35817 12.7 4.8V5.7H11.8C11.3582 5.7 11 6.05817 11 6.5C11 6.94183 11.3582 7.3 11.8 7.3H12.7V8.2C12.7 8.64183 13.0582 9 13.5 9C13.9418 9 14.3 8.64183 14.3 8.2Z" fill="#9146FF"/>
<path d="M8 11H9.13933M12 11H18M8 14.5H9.13933M12 14.5H16M8 18H9.13933M12 18H16.1667" stroke="#9146FF" stroke-width="2" stroke-linecap="round" stroke-linejoin="round"/>
</svg>
