<svg viewBox="0 0 23 24" fill="#000" xmlns="http://www.w3.org/2000/svg">
<path d="M21.7502 19.5H20.2502V18C20.2502 17.8011 20.1712 17.6103 20.0305 17.4697C19.8898 17.329 19.6991 17.25 19.5002 17.25V11.25C19.6991 11.25 19.8898 11.171 20.0305 11.0303C20.1712 10.8897 20.2502 10.6989 20.2502 10.5V9H21.7502C21.9091 9.00004 22.064 8.94958 22.1924 8.8559C22.3208 8.76223 22.4161 8.63018 22.4646 8.47881C22.5131 8.32744 22.5122 8.16458 22.4622 8.01373C22.4121 7.86287 22.3154 7.73183 22.186 7.6395L11.686 0.139506C11.5588 0.0487695 11.4064 0 11.2502 0C11.0939 0 10.9416 0.0487695 10.8143 0.139506L0.314351 7.6395C0.184969 7.73183 0.0882646 7.86287 0.0381906 8.01373C-0.0118833 8.16458 -0.012737 8.32744 0.0357528 8.47881C0.0842425 8.63018 0.179568 8.76223 0.307975 8.8559C0.436382 8.94958 0.59123 9.00004 0.750176 9H2.25018V10.5C2.25018 10.6989 2.32919 10.8897 2.46985 11.0303C2.6105 11.171 2.80126 11.25 3.00018 11.25V17.25C2.80126 17.25 2.6105 17.329 2.46985 17.4697C2.32919 17.6103 2.25018 17.8011 2.25018 18V19.5H0.750176C0.551264 19.5 0.360498 19.579 0.219846 19.7197C0.079194 19.8603 0.000176402 20.0511 0.000176402 20.25V23.25C0.000176402 23.4489 0.079194 23.6397 0.219846 23.7803C0.360498 23.921 0.551264 24 0.750176 24H21.7502C21.9491 24 22.1398 23.921 22.2805 23.7803C22.4212 23.6397 22.5002 23.4489 22.5002 23.25V20.25C22.5002 20.0511 22.4212 19.8603 22.2805 19.7197C22.1398 19.579 21.9491 19.5 21.7502 19.5ZM7.50017 19.5V18C7.50017 17.8011 7.42116 17.6103 7.2805 17.4697C7.13985 17.329 6.94909 17.25 6.75017 17.25V11.25C6.94909 11.25 7.13985 11.171 7.2805 11.0303C7.42116 10.8897 7.50017 10.6989 7.50017 10.5V9H15.0002V10.5C15.0002 10.6989 15.0792 10.8897 15.2198 11.0303C15.3605 11.171 15.5513 11.25 15.7502 11.25V17.25C15.5513 17.25 15.3605 17.329 15.2198 17.4697C15.0792 17.6103 15.0002 17.8011 15.0002 18V19.5H7.50017ZM16.5002 18.75H18.7502V19.5H16.5002V18.75ZM18.0002 17.25H17.2502V11.25H18.0002V17.25ZM18.7502 9.75H16.5002V9H18.7502V9.75ZM11.2502 1.67176L19.4097 7.5H3.09063L11.2502 1.67176ZM6.00017 9V9.75H3.75018V9H6.00017ZM4.50017 11.25H5.25017V17.25H4.50017V11.25ZM3.75018 18.75H6.00017V19.5H3.75018V18.75ZM21.0002 22.5H1.50018V21H21.0002V22.5Z"/>
<path d="M11.515 13.5484C11.3249 13.4975 11.148 13.4062 10.9964 13.2807C10.8448 13.1553 10.722 12.9986 10.6364 12.8214C10.6225 12.7683 10.5859 12.6264 10.7888 12.3859C11.151 11.9568 12.0222 12.601 12.028 12.6057C12.1058 12.6661 12.1947 12.7107 12.2897 12.7368C12.3847 12.7629 12.4838 12.77 12.5816 12.7577C12.6793 12.7455 12.7737 12.7141 12.8593 12.6654C12.9449 12.6167 13.0201 12.5516 13.0805 12.4738C13.141 12.3961 13.1855 12.3072 13.2116 12.2122C13.2377 12.1172 13.2448 12.018 13.2326 11.9203C13.2203 11.8226 13.1889 11.7282 13.1402 11.6426C13.0915 11.557 13.0264 11.4818 12.9487 11.4214C12.6605 11.2025 12.3407 11.0288 12.0002 10.9063V10.5C12.0002 10.3011 11.9212 10.1103 11.7805 9.96967C11.6399 9.82902 11.4491 9.75 11.2502 9.75C11.0513 9.75 10.8605 9.82902 10.7199 9.96967C10.5792 10.1103 10.5002 10.3011 10.5002 10.5V10.8259C10.1636 10.9383 9.86589 11.144 9.64184 11.4192C9.42558 11.6558 9.27081 11.9419 9.19118 12.2524C9.11154 12.5629 9.10947 12.8882 9.18516 13.1997C9.32621 13.6127 9.56273 13.9867 9.8755 14.2911C10.1883 14.5955 10.5685 14.8218 10.9852 14.9516C11.1753 15.0025 11.3521 15.0938 11.5037 15.2193C11.6554 15.3447 11.7781 15.5014 11.8637 15.6786C11.8776 15.7317 11.9142 15.8736 11.7113 16.114C11.3532 16.5415 10.4849 15.904 10.4695 15.8921C10.3122 15.7704 10.1129 15.7161 9.9156 15.7413C9.71825 15.7665 9.53899 15.869 9.41725 16.0263C9.2955 16.1837 9.24125 16.3829 9.26642 16.5803C9.29159 16.7776 9.39412 16.9569 9.55146 17.0786C9.84037 17.2946 10.1602 17.4657 10.5002 17.5861V18C10.5002 18.1989 10.5792 18.3897 10.7199 18.5303C10.8605 18.671 11.0513 18.75 11.2502 18.75C11.4491 18.75 11.6399 18.671 11.7805 18.5303C11.9212 18.3897 12.0002 18.1989 12.0002 18V17.6631C12.3361 17.555 12.634 17.3529 12.8586 17.0808C13.0748 16.8442 13.2296 16.5581 13.3092 16.2476C13.3889 15.9371 13.3909 15.6118 13.3153 15.3003C13.1742 14.8872 12.9376 14.5133 12.6248 14.2089C12.312 13.9044 11.9317 13.6781 11.515 13.5484Z"/>
</svg>
