<svg width="30" height="24" viewBox="0 0 30 24" fill="none" xmlns="http://www.w3.org/2000/svg">
<path fill-rule="evenodd" clip-rule="evenodd" d="M11.0001 0.872727C11.0001 0.390733 10.4628 0 9.8001 0C9.13736 0 8.6001 0.390733 8.6001 0.872727V3H6.76C5.23569 3 4 4.11929 4 5.5V9V11V20.5C4 21.8807 5.23569 23 6.76 23H24.24C25.7643 23 27 21.8807 27 20.5V11V9V5.5C27 4.11929 25.7643 3 24.24 3H22.4V0.872727C22.4 0.390733 21.8627 0 21.2 0C20.5373 0 20 0.390733 20 0.872727V3H11.0001V0.872727ZM20 6.10909V4.66667H11.0001V6.10909C11.0001 6.59108 10.4628 6.98182 9.8001 6.98182C9.13736 6.98182 8.6001 6.59108 8.6001 6.10909V4.66667H6.76C6.2519 4.66667 5.84 5.03976 5.84 5.5V9H25.16V5.5C25.16 5.03976 24.7481 4.66667 24.24 4.66667H22.4V6.10909C22.4 6.59108 21.8627 6.98182 21.2 6.98182C20.5373 6.98182 20 6.59108 20 6.10909ZM25.16 20.5V11H5.84V20.5C5.84 20.9602 6.2519 21.3333 6.76 21.3333H24.24C24.7481 21.3333 25.16 20.9602 25.16 20.5ZM12.4441 20C10.8356 20 9.94517 18.974 10.0026 17.7466L11.1228 17.574L11.1132 17.737C11.1132 18.4753 11.5728 18.9836 12.4536 18.9836C13.3632 18.9836 13.9089 18.5233 13.9089 17.8041C13.9089 17.1233 13.3632 16.7397 12.4824 16.7397H11.8505V15.7712L12.4441 15.7616C13.2196 15.7521 13.6121 15.4068 13.6121 14.8795C13.6121 14.3425 13.1909 14.0164 12.4632 14.0164C11.6877 14.0164 11.3143 14.4959 11.3143 15.1L10.2516 14.9274C10.2707 13.8438 11.0941 13 12.4536 13C13.9089 13 14.6749 13.7863 14.6749 14.7452C14.6749 15.3205 14.4547 15.8192 14.0047 16.1644C14.6557 16.5192 14.9908 17.1137 14.9908 17.8041C14.9908 18.9836 14.11 20 12.4441 20ZM15.7724 16.4808C15.7724 14.5342 16.615 13 18.3958 13C20.1575 13 21 14.5438 21 16.4808C21 17.5068 20.7894 18.3507 20.3585 19.0123C19.9277 19.674 19.2766 20 18.3958 20C16.5958 20 15.7724 18.4466 15.7724 16.4808ZM16.8256 16.4808C16.8256 18.1205 17.4001 18.9836 18.3958 18.9836C19.3915 18.9836 19.9468 18.1205 19.9468 16.4808C19.9468 14.8986 19.3628 14.0164 18.3958 14.0164C17.4096 14.0164 16.8256 14.8795 16.8256 16.4808Z" fill="#084C4F"/>
</svg>
