<svg width="30" height="24" viewBox="0 0 30 24" fill="none" xmlns="http://www.w3.org/2000/svg">
<path fill-rule="evenodd" clip-rule="evenodd" d="M9 3.5C9 2.67157 9.67157 2 10.5 2C11.3284 2 12 2.67157 12 3.5V4H17V3.5C17 2.67157 17.6716 2 18.5 2C19.3284 2 20 2.67157 20 3.5V4H21C22.6569 4 24 5.34315 24 7V19C24 20.6569 22.6569 22 21 22H8C6.34315 22 5 20.6569 5 19V7C5 5.34315 6.34315 4 8 4H9V3.5ZM7 19V9H22V19C22 19.5523 21.5523 20 21 20H8C7.44772 20 7 19.5523 7 19ZM10.5 11C9.67157 11 9 11.6716 9 12.5C9 13.3284 9.67157 14 10.5 14C11.3284 14 12 13.3284 12 12.5C12 11.6716 11.3284 11 10.5 11ZM9 16.5C9 15.6716 9.67157 15 10.5 15C11.3284 15 12 15.6716 12 16.5C12 17.3284 11.3284 18 10.5 18C9.67157 18 9 17.3284 9 16.5ZM14.5 11C13.6716 11 13 11.6716 13 12.5C13 13.3284 13.6716 14 14.5 14C15.3284 14 16 13.3284 16 12.5C16 11.6716 15.3284 11 14.5 11ZM13 16.5C13 15.6716 13.6716 15 14.5 15C15.3284 15 16 15.6716 16 16.5C16 17.3284 15.3284 18 14.5 18C13.6716 18 13 17.3284 13 16.5ZM18.5 11C17.6716 11 17 11.6716 17 12.5C17 13.3284 17.6716 14 18.5 14C19.3284 14 20 13.3284 20 12.5C20 11.6716 19.3284 11 18.5 11ZM17 16.5C17 15.6716 17.6716 15 18.5 15C19.3284 15 20 15.6716 20 16.5C20 17.3284 19.3284 18 18.5 18C17.6716 18 17 17.3284 17 16.5Z" fill="#9146FF"/>
</svg>
