<svg width="30" height="24" viewBox="0 0 30 24" fill="none" xmlns="http://www.w3.org/2000/svg">
<path fill-rule="evenodd" clip-rule="evenodd" d="M24.24 4.66667H6.76C6.2519 4.66667 5.84 5.03976 5.84 5.5V20.5C5.84 20.9602 6.2519 21.3333 6.76 21.3333H24.24C24.7481 21.3333 25.16 20.9602 25.16 20.5V5.5C25.16 5.03976 24.7481 4.66667 24.24 4.66667ZM6.76 3C5.23569 3 4 4.11929 4 5.5V20.5C4 21.8807 5.23569 23 6.76 23H24.24C25.7643 23 27 21.8807 27 20.5V5.5C27 4.11929 25.7643 3 24.24 3H6.76Z" fill="#084C4F"/>
<path fill-rule="evenodd" clip-rule="evenodd" d="M27 11H4V9H27V11Z" fill="#084C4F"/>
<path fill-rule="evenodd" clip-rule="evenodd" d="M9.8001 0C10.4628 0 11.0001 0.390733 11.0001 0.872727V6.10909C11.0001 6.59108 10.4628 6.98182 9.8001 6.98182C9.13736 6.98182 8.6001 6.59108 8.6001 6.10909V0.872727C8.6001 0.390733 9.13736 0 9.8001 0Z" fill="#084C4F"/>
<path fill-rule="evenodd" clip-rule="evenodd" d="M21.2 0C21.8627 0 22.4 0.390733 22.4 0.872727V6.10909C22.4 6.59108 21.8627 6.98182 21.2 6.98182C20.5373 6.98182 20 6.59108 20 6.10909V0.872727C20 0.390733 20.5373 0 21.2 0Z" fill="#084C4F"/>
<path d="M10.0026 17.7466C9.94517 18.974 10.8356 20 12.4441 20C14.11 20 14.9908 18.9836 14.9908 17.8041C14.9908 17.1137 14.6557 16.5192 14.0047 16.1644C14.4547 15.8192 14.6749 15.3205 14.6749 14.7452C14.6749 13.7863 13.9089 13 12.4536 13C11.0941 13 10.2707 13.8438 10.2515 14.9274L11.3143 15.1C11.3143 14.4959 11.6877 14.0164 12.4632 14.0164C13.1909 14.0164 13.6121 14.3425 13.6121 14.8795C13.6121 15.4068 13.2196 15.7521 12.4441 15.7616L11.8505 15.7712V16.7397H12.4824C13.3632 16.7397 13.9089 17.1233 13.9089 17.8041C13.9089 18.5233 13.3632 18.9836 12.4536 18.9836C11.5728 18.9836 11.1132 18.4753 11.1132 17.737L11.1228 17.574L10.0026 17.7466Z" fill="#084C4F"/>
<path d="M18.3958 13C16.615 13 15.7724 14.5342 15.7724 16.4808C15.7724 18.4466 16.5958 20 18.3958 20C19.2766 20 19.9277 19.674 20.3585 19.0123C20.7894 18.3507 21 17.5068 21 16.4808C21 14.5438 20.1575 13 18.3958 13ZM18.3958 18.9836C17.4001 18.9836 16.8256 18.1205 16.8256 16.4808C16.8256 14.8795 17.4096 14.0164 18.3958 14.0164C19.3628 14.0164 19.9468 14.8986 19.9468 16.4808C19.9468 18.1205 19.3915 18.9836 18.3958 18.9836Z" fill="#084C4F"/>
<circle cx="24" cy="18" r="6" fill="#084C4F"/>
<path d="M24 15V21M21 18H27" stroke="#ACFFC5" stroke-width="2" stroke-linecap="round" stroke-linejoin="round"/>
</svg>
