<svg width="16" height="10" viewBox="0 0 16 10" fill="none" xmlns="http://www.w3.org/2000/svg">
<path d="M5.35005 9.63988C4.84448 9.15972 4.84448 8.38123 5.35005 7.90107L9.32003 4.13059L13.29 0.360119C13.7956 -0.12004 14.6153 -0.120039 15.1208 0.36012C15.6264 0.84028 15.6264 1.61877 15.1208 2.09893L7.18086 9.63988C6.67529 10.12 5.85561 10.12 5.35005 9.63988Z" fill="#F8F5FF"/>
<path d="M7.10121 9.61444C6.59562 10.0946 5.7759 10.0946 5.27034 9.61439L0.879124 5.44338C0.373606 4.96321 0.373628 4.18476 0.879174 3.70462C1.38476 3.22444 2.20448 3.22446 2.71004 3.70467L7.10126 7.87567C7.60678 8.35584 7.60676 9.1343 7.10121 9.61444Z" fill="#F8F5FF"/>
</svg>
