<svg viewBox="0 0 35 35" fill="none" xmlns="http://www.w3.org/2000/svg">
<path d="M20.2222 24.8887L13.2222 17.8887L20.2222 10.8887" stroke="currentColor" stroke-width="3" stroke-linecap="round" stroke-linejoin="round"/>
<path d="M1.1875 17.5C1.1875 13.1737 2.90613 9.02451 5.96532 5.96532C9.02451 2.90614 13.1737 1.1875 17.5 1.1875C21.8263 1.1875 25.9755 2.90614 29.0347 5.96532C32.0939 9.02451 33.8125 13.1737 33.8125 17.5C33.8125 21.8263 32.0939 25.9755 29.0347 29.0347C25.9755 32.0939 21.8263 33.8125 17.5 33.8125C13.1737 33.8125 9.02451 32.0939 5.96532 29.0347C2.90614 25.9755 1.1875 21.8263 1.1875 17.5ZM5.83274 5.83274C2.73839 8.92709 0.999999 13.1239 0.999999 17.5C0.999999 21.8761 2.73839 26.0729 5.83274 29.1673C8.92709 32.2616 13.1239 34 17.5 34C21.8761 34 26.0729 32.2616 29.1673 29.1673C32.2616 26.0729 34 21.8761 34 17.5C34 13.1239 32.2616 8.92709 29.1673 5.83274C26.0729 2.73839 21.8761 1 17.5 1C13.1239 1 8.92709 2.73839 5.83274 5.83274Z" stroke="currentColor" stroke-width="2"/>
</svg>
