<svg version="1.1" id="Camada_1" xmlns="http://www.w3.org/2000/svg" xmlns:xlink="http://www.w3.org/1999/xlink" x="0px" y="0px"
	 viewBox="0 0 32 28" style="enable-background:new 0 0 32 28;" xml:space="preserve">
<g>
	<path class="icon-color" d="M14,27.2C6.7,27.2,0.8,21.3,0.8,14C0.8,6.7,6.7,0.8,14,0.8c7.3,0,13.2,5.9,13.2,13.2c0,0.7-0.6,1.2-1.2,1.2
		s-1.2-0.6-1.2-1.2c0-5.9-4.8-10.8-10.8-10.8S3.2,8.1,3.2,14S8.1,24.8,14,24.8c0.7,0,1.2,0.6,1.2,1.2S14.7,27.2,14,27.2z"/>
</g>
<g>
	<path class="icon-color" d="M23.9,24.7c-0.4-0.4-0.4-1,0-1.4l3.2-3l3.2-3c0.4-0.4,1.1-0.4,1.5,0c0.4,0.4,0.4,1,0,1.4l-6.4,6
		C24.9,25.1,24.3,25.1,23.9,24.7z"/>
</g>
<g>
	<path class="icon-color" d="M25.3,24.7c-0.4,0.4-1.1,0.4-1.5,0l-3.5-3.3c-0.4-0.4-0.4-1,0-1.4c0.4-0.4,1.1-0.4,1.5,0l3.5,3.3
		C25.7,23.7,25.7,24.3,25.3,24.7z"/>
</g>
<g>
	<path class="icon-color" d="M10.4,9.3C10.4,7.5,11.8,6,13.5,6H15c1.7,0,3.1,1.5,3.1,3.4v2.7l0,0.1c-0.2,0.7-0.8,2-2.1,2.9
		c0.1,0,0.2,0.1,0.2,0.1c0.7,0.2,1.5,0.5,2,0.6c0.5,0.1,0.8,0.6,0.8,1.1v2.5c0,0.9-0.7,1.6-1.5,1.6h-6.1c-0.8,0-1.5-0.7-1.5-1.6
		v-2.5c0-0.6,0.4-1,0.8-1.1c0.5-0.1,1.2-0.4,1.9-0.7c-0.2-0.2-0.5-0.3-0.7-0.5c-0.7-0.6-1.4-1.3-1.6-2.3l0-0.1L10.4,9.3L10.4,9.3z
		 M14.3,16c-0.7,0.3-1.9,0.9-2.7,1.1v2.2c0,0.1,0.1,0.2,0.2,0.2h5.5c0.1,0,0.2-0.1,0.2-0.2v-2.2c-0.5-0.2-1.2-0.4-1.8-0.6
		C15.2,16.4,14.6,16.2,14.3,16z M14.3,14.1c1.6-0.6,2.3-1.8,2.4-2.3V9.5c0-1-0.8-1.9-1.7-1.9h-1.3c-0.9,0-1.7,0.8-1.7,1.8l0,0l0,2.4
		c0.1,0.5,0.5,0.9,1,1.4C13.4,13.6,13.9,13.9,14.3,14.1z"/>
</g>
</svg>