<?xml version="1.0" encoding="utf-8"?>
<svg version="1.1" id="Camada_1" xmlns="http://www.w3.org/2000/svg" xmlns:xlink="http://www.w3.org/1999/xlink" x="0px" y="0px"
	 viewBox="0 0 30 24" style="enable-background:new 0 0 30 24;" xml:space="preserve">
<g>
	<path class="icon-color" d="M17.9,7.4h-1.3V6.1c0-0.6-0.5-1.1-1.1-1.1s-1.1,0.5-1.1,1.1v1.3h-1.3c-0.6,0-1.1,0.5-1.1,1.1s0.5,1.1,1.1,1.1
		h1.3v1.3c0,0.6,0.5,1.1,1.1,1.1s1.1-0.5,1.1-1.1V9.6h1.3c0.6,0,1.1-0.5,1.1-1.1S18.5,7.4,17.9,7.4z"/>
	<path class="icon-color" d="M26,4.5c-0.6,0-1-0.4-1-1V3c0-1.7-1.3-3-3-3H8C6.3,0,5,1.3,5,3v0.5c0,0.6-0.4,1-1,1c-1.7,0-3,1.3-3,3V21
		c0,1.7,1.3,3,3,3h6.5c1.7,0,3-1.3,3-3v-2.5c0-0.6,0.4-1,1-1h1c0.6,0,1,0.4,1,1V21c0,1.7,1.3,3,3,3H26c1.7,0,3-1.3,3-3V7.5
		C29,5.8,27.7,4.5,26,4.5z M27,21c0,0.6-0.4,1-1,1h-6.5c-0.6,0-1-0.4-1-1v-2.5c0-1.7-1.3-3-3-3h-1c-1.7,0-3,1.3-3,3V21
		c0,0.6-0.4,1-1,1H4c-0.6,0-1-0.4-1-1V7.5c0-0.6,0.4-1,1-1c1.7,0,3-1.3,3-3V3c0-0.6,0.4-1,1-1h14c0.6,0,1,0.4,1,1v0.5
		c0,1.7,1.3,3,3,3c0.6,0,1,0.4,1,1V21z"/>
</g>
</svg>