<svg width="96" height="121" viewBox="0 0 96 121" fill="none" xmlns="http://www.w3.org/2000/svg">
<path d="M0 2.26181C0 1.06013 1.05216 0.129762 2.2448 0.276849L94.2448 11.6231C95.2471 11.7467 96 12.5982 96 13.6081V121C96 122.105 95.1046 123 94 123H2C0.895429 123 0 122.105 0 121V2.26181Z" fill="#C3D5CB"/>
<path d="M20 80C20 79.4477 20.4477 79 21 79H48V123H20V80Z" fill="white"/>
<path d="M50 79H78C78.5523 79 79 79.4477 79 80V123H50V79Z" fill="white"/>
<rect x="19" y="38" width="60" height="18" rx="3" fill="#A3BDAF"/>
<circle cx="48.5" cy="37.5" r="12.5" fill="#4B8864" stroke="#D8EADE" stroke-width="2"/>
<path fill-rule="evenodd" clip-rule="evenodd" d="M49.0362 31.0112C48.6631 30.936 48.3891 31.2534 48.3891 31.5772C48.3891 31.924 48.6709 32.1563 48.9283 32.2454C49.3386 32.3875 49.6327 32.7773 49.6327 33.2353V37.3805C49.6327 37.9588 49.1639 38.4277 48.5855 38.4277H45.2691C44.6907 38.4277 44.2218 37.9588 44.2218 37.3805V33.2353C44.2218 32.7773 44.516 32.3875 44.9263 32.2454C45.1837 32.1563 45.4654 31.924 45.4654 31.5772C45.4654 31.2534 45.1914 30.936 44.8184 31.0112C43.7811 31.2203 43 32.1364 43 33.2353V37.3805C43 38.6336 44.0159 39.6494 45.2691 39.6494H46.3164V41.5617L46.3206 41.5973C46.5704 43.7207 48.3873 44.8875 50.0991 44.8569C50.9654 44.8415 51.8386 44.5228 52.4957 43.8458C53.1009 43.2221 53.4812 42.3376 53.5408 41.2182C54.3855 40.9604 55 40.1752 55 39.246C55 38.1074 54.0769 37.1843 52.9382 37.1843C51.7995 37.1843 50.8764 38.1074 50.8764 39.246C50.8764 40.1685 51.4821 40.9491 52.3173 41.2125C52.2615 42.0525 51.9781 42.6247 51.6189 42.9949C51.2136 43.4125 50.6617 43.625 50.0773 43.6354C48.898 43.6564 47.7179 42.8682 47.5382 41.4883V39.6494H48.5855C49.8386 39.6494 50.8545 38.6336 50.8545 37.3805V33.2353C50.8545 32.1364 50.0734 31.2203 49.0362 31.0112ZM52.0982 39.246C52.0982 38.7822 52.4742 38.4061 52.9382 38.4061C53.4021 38.4061 53.7782 38.7822 53.7782 39.246C53.7782 39.7099 53.4021 40.086 52.9382 40.086C52.4742 40.086 52.0982 39.7099 52.0982 39.246Z" fill="white"/>
</svg>
