<svg width="61" height="48" viewBox="0 0 61 48" fill="none" xmlns="http://www.w3.org/2000/svg">
<path d="M32.5465 22.1315V19.5545H35.6465C36.7511 19.5545 37.6465 18.6591 37.6465 17.5545V17.2468C37.6465 16.1423 36.7511 15.2468 35.6465 15.2468H32.5465V12.6699C32.5465 11.5654 31.6511 10.6699 30.5465 10.6699H29.7465C28.6419 10.6699 27.7465 11.5654 27.7465 12.6699V15.2468H24.6465C23.5419 15.2468 22.6465 16.1423 22.6465 17.2468V17.5545C22.6465 18.6591 23.5419 19.5545 24.6465 19.5545H27.7465V22.1315C27.7465 23.236 28.6419 24.1315 29.7465 24.1315H30.5465C31.6511 24.1315 32.5465 23.236 32.5465 22.1315Z" fill="#4B8864"/>
<path fill-rule="evenodd" clip-rule="evenodd" d="M8.6476 6.69892C8.6476 3.51266 11.5258 0.929688 15.0762 0.929688H45.0762C48.6266 0.929688 51.5047 3.51266 51.5047 6.69892V7.66046C51.5047 8.72254 52.4641 9.58353 53.6476 9.58353C57.198 9.58353 60.0762 12.1665 60.0762 15.3528V41.3143C60.0762 44.5006 57.198 47.0835 53.6476 47.0835H38.719C35.1686 47.0835 32.2905 44.5006 32.2905 41.3143V36.5066C32.2905 35.4445 31.3311 34.5835 30.1476 34.5835H30.0047C28.8213 34.5835 27.8619 35.4445 27.8619 36.5066V41.3143C27.8619 44.5006 24.9837 47.0835 21.4333 47.0835H6.50474C2.95434 47.0835 0.0761719 44.5006 0.0761719 41.3143V15.3528C0.0761719 12.1665 2.95434 9.58353 6.50474 9.58353C7.68821 9.58353 8.6476 8.72254 8.6476 7.66046V6.69892ZM15.0762 4.77584C13.8927 4.77584 12.9333 5.63683 12.9333 6.69892V7.66046C12.9333 10.8467 10.0551 13.4297 6.50474 13.4297C5.32128 13.4297 4.36189 14.2907 4.36189 15.3528V41.3143C4.36189 42.3764 5.32128 43.2374 6.50474 43.2374H21.4333C22.6168 43.2374 23.5762 42.3764 23.5762 41.3143V36.5066C23.5762 33.3204 26.4543 30.7374 30.0047 30.7374H30.1476C33.698 30.7374 36.5762 33.3204 36.5762 36.5066V41.3143C36.5762 42.3764 37.5356 43.2374 38.719 43.2374H53.6476C54.8311 43.2374 55.7905 42.3764 55.7905 41.3143V15.3528C55.7905 14.2907 54.8311 13.4297 53.6476 13.4297C50.0972 13.4297 47.219 10.8467 47.219 7.66046V6.69892C47.219 5.63683 46.2596 4.77584 45.0762 4.77584H15.0762Z" fill="#4B8864"/>
</svg>
