<svg width="8" height="8" viewBox="0 0 8 8" fill="#F8F5FF" xmlns="http://www.w3.org/2000/svg">
<path fill-rule="evenodd" clip-rule="evenodd" d="M7.58048 0.347907C8.11671 0.832408 8.14229 1.64249 7.6376 2.15727L2.30427 7.59726C1.79958 8.11205 0.955748 8.13659 0.419517 7.65209C-0.116714 7.16759 -0.142285 6.35751 0.362404 5.84273L5.69573 0.402737C6.20042 -0.112045 7.04425 -0.136593 7.58048 0.347907Z" />
<path fill-rule="evenodd" clip-rule="evenodd" d="M0.419517 0.347907C0.955748 -0.136593 1.79958 -0.112045 2.30427 0.402737L7.6376 5.84273C8.14229 6.35751 8.11671 7.16759 7.58048 7.65209C7.04425 8.13659 6.20042 8.11205 5.69573 7.59726L0.362404 2.15727C-0.142285 1.64249 -0.116714 0.832408 0.419517 0.347907Z" />
</svg>
