<svg width="78" height="83" viewBox="0 0 78 83" fill="none" xmlns="http://www.w3.org/2000/svg">
<path d="M55.5032 47.4936V21.7006C55.5032 19.4915 53.7123 17.7006 51.5032 17.7006H34.0064C31.7972 17.7006 30.0064 15.9098 30.0064 13.7006V6C30.0064 3.79086 28.2155 2 26.0064 2H6C3.79086 2 2 3.79086 2 6V32.5732V73.2866C2 75.4958 3.79086 77.2866 6 77.2866H35.0039" stroke="#DF644B" stroke-width="4" stroke-linejoin="round"/>
<rect x="7.50391" y="41" width="17" height="5" rx="2" fill="#DF644B"/>
<rect x="7.50391" y="9" width="17" height="5" rx="2" fill="#DF644B"/>
<rect x="7.50391" y="25" width="17" height="5" rx="2" fill="#DF644B"/>
<rect x="33.5039" y="25" width="17" height="5" rx="2" fill="#DF644B"/>
<rect x="33.5039" y="41" width="17" height="5" rx="2" fill="#DF644B"/>
<path d="M8 58C8 56.8954 8.89543 56 10 56H26C27.1046 56 28 56.8954 28 58V77H8V58Z" fill="#DF644B"/>
<path fill-rule="evenodd" clip-rule="evenodd" d="M45.0204 54.1327C45.1618 49.5998 48.7965 46 53.232 46H56.9986C61.536 46 65.2144 49.7611 65.2144 54.4006V61.0325L65.1723 61.2189C64.7601 63.0453 63.1043 66.0944 59.5467 68.269C59.7499 68.3348 59.9569 68.4012 60.167 68.4679C62.037 69.0611 64.046 69.6453 65.5203 70.0571C66.7098 70.3893 67.5422 71.4936 67.5422 72.7625V79.0425C67.5422 81.2076 65.8256 82.9628 63.7081 82.9628H47.8243C45.7068 82.9628 43.9902 81.2076 43.9902 79.0425V72.8591C43.9902 71.4643 44.9647 70.3863 46.1268 70.0719C47.4532 69.7131 49.3899 68.9806 51.1684 68.2545C50.5561 67.8729 49.933 67.4454 49.331 66.9765C47.5647 65.6008 45.7058 63.6576 45.1319 61.237L45.0878 61.0507L45.0169 54.2428L45.0204 54.1327ZM55.0823 70.2333C53.016 71.1417 49.572 72.5698 47.2766 73.2338V79.0425C47.2766 79.3518 47.5218 79.6025 47.8243 79.6025H63.7081C64.0106 79.6025 64.2559 79.3518 64.2559 79.0425V73.1867C62.8047 72.7776 60.9444 72.2327 59.1932 71.6772C57.6777 71.1964 56.1697 70.6848 55.0823 70.2333ZM55.172 66.6183C59.7793 65.0927 61.5508 61.9334 61.928 60.626V54.4006C61.928 51.6169 59.721 49.3603 56.9986 49.3603H53.232C50.5707 49.3603 48.3899 51.5201 48.305 54.2399L48.3038 54.2785L48.3697 60.612C48.7254 61.8378 49.8051 63.1217 51.3224 64.3035C52.637 65.3274 54.0938 66.1301 55.172 66.6183Z" fill="#DF644B"/>
<path fill-rule="evenodd" clip-rule="evenodd" d="M65.9758 77.1219H74.9321C75.1741 77.1219 75.3703 76.9256 75.3703 76.6836V72.1008C74.2094 71.7806 72.7211 71.3542 71.3201 70.9194C70.1078 70.5431 68.9014 70.1428 68.0315 69.7894C66.8345 70.3042 65.0595 71.0323 63.474 71.5921L59.6934 70.4014C60.0017 70.0416 60.4168 69.7823 60.867 69.6631C61.9282 69.3823 63.4775 68.809 64.9003 68.2408C64.4105 67.9422 63.912 67.6076 63.4304 67.2406C62.5603 66.5776 61.6621 65.7463 60.9931 64.763L62.8355 62.8772L62.8503 62.7414C63.2428 63.5509 64.0115 64.3776 65.0235 65.1487C66.0752 65.95 67.2406 66.5782 68.1032 66.9603C71.7891 65.7664 73.2063 63.2938 73.5081 62.2706V57.3986C73.5081 55.2201 71.7425 53.454 69.5645 53.454H66.5512C65.2738 53.454 64.1348 54.0625 63.4133 55.009L62.5044 52.2179C63.6214 51.3439 65.0272 50.8242 66.5512 50.8242H69.5645C73.1944 50.8242 76.1371 53.7677 76.1371 57.3986V62.5888L76.1034 62.7347C75.7737 64.164 74.4491 66.5502 71.603 68.2521C71.7655 68.3037 71.9311 68.3556 72.0992 68.4078C73.5952 68.872 75.2024 69.3293 76.3819 69.6515C77.3335 69.9115 77.9994 70.7757 77.9994 71.7688V76.6836C77.9994 78.378 76.6261 79.7516 74.9321 79.7516H65.9758V77.1219Z" fill="#DF644B"/>
<path fill-rule="evenodd" clip-rule="evenodd" d="M45.564 77.1219V79.7516H36.0672C34.3732 79.7516 33 78.378 33 76.6836V71.8444C33 70.7528 33.7795 69.9092 34.7092 69.6631C35.7704 69.3823 37.3197 68.809 38.7425 68.2408C38.2527 67.9422 37.7542 67.6076 37.2726 67.2406C35.8595 66.164 34.3725 64.6432 33.9134 62.7488L33.878 62.603L33.8214 57.2751L33.8241 57.1889C33.9373 53.6414 36.8451 50.8242 40.3934 50.8242H43.4067C44.9147 50.8242 46.3041 51.3322 47.4131 52.1864L47.1341 52.4312L47.9192 62.8772L49.3237 64.3148C48.6331 65.5962 47.3969 67.0851 45.4452 68.2521C45.6077 68.3037 45.7733 68.3556 45.9414 68.4078C47.4374 68.872 49.0446 69.3293 50.2241 69.6515C50.5803 69.7488 50.8966 69.9309 51.1528 70.1726L47.4363 71.5991C46.6962 71.3851 45.9166 71.1535 45.1623 70.9194C43.95 70.5431 42.7436 70.1428 41.8737 69.7894C40.2207 70.5003 37.4654 71.618 35.6291 72.1376V76.6836C35.6291 76.9256 35.8252 77.1219 36.0672 77.1219H45.564ZM41.9454 66.9603C45.6313 65.7664 47.0485 63.2938 47.3503 62.2706V57.3986C47.3503 55.2201 45.5847 53.454 43.4067 53.454H40.3934C38.2644 53.454 36.5197 55.1443 36.4518 57.2728L36.4509 57.303L36.5036 62.2597C36.7881 63.219 37.6519 64.2238 38.8657 65.1487C39.9174 65.95 41.0828 66.5782 41.9454 66.9603Z" fill="#DF644B"/>
</svg>
