<svg viewBox="0 0 24 17" fill="currentColor" xmlns="http://www.w3.org/2000/svg">
<path d="M21 0H3C2.20459 0.000774394 1.44198 0.317094 0.879535 0.879535C0.317094 1.44198 0.000774394 2.20459 0 3L0 13.5C0.000774395 14.2954 0.317094 15.058 0.879535 15.6205C1.44198 16.1829 2.20459 16.4992 3 16.5H21C21.7954 16.4992 22.558 16.1829 23.1205 15.6205C23.6829 15.058 23.9992 14.2954 24 13.5V3C23.9992 2.20459 23.6829 1.44198 23.1205 0.879535C22.558 0.317094 21.7954 0.000774394 21 0ZM3 1.5H21C21.3977 1.50054 21.7789 1.65874 22.0601 1.93993C22.3413 2.22112 22.4995 2.60234 22.5 3H1.5C1.50054 2.60234 1.65874 2.22112 1.93993 1.93993C2.22112 1.65874 2.60234 1.50054 3 1.5ZM1.5 4.5H22.5V6H1.5V4.5ZM21 15H3C2.60234 14.9995 2.22112 14.8413 1.93993 14.5601C1.65874 14.2789 1.50054 13.8977 1.5 13.5V7.5H22.5V13.5C22.4995 13.8977 22.3413 14.2789 22.0601 14.5601C21.7789 14.8413 21.3977 14.9995 21 15Z"/>
<path d="M21 10.5H17.25C17.0511 10.5 16.8603 10.579 16.7197 10.7197C16.579 10.8603 16.5 11.0511 16.5 11.25V13.5C16.5 13.6989 16.579 13.8897 16.7197 14.0303C16.8603 14.171 17.0511 14.25 17.25 14.25H21C21.1989 14.25 21.3897 14.171 21.5303 14.0303C21.671 13.8897 21.75 13.6989 21.75 13.5V11.25C21.75 11.0511 21.671 10.8603 21.5303 10.7197C21.3897 10.579 21.1989 10.5 21 10.5ZM20.25 12.75H18V12H20.25V12.75Z"/>
<path d="M11.25 10.5H3C2.80109 10.5 2.61032 10.579 2.46967 10.7197C2.32902 10.8603 2.25 11.0511 2.25 11.25C2.25 11.4489 2.32902 11.6397 2.46967 11.7803C2.61032 11.921 2.80109 12 3 12H11.25C11.4489 12 11.6397 11.921 11.7803 11.7803C11.921 11.6397 12 11.4489 12 11.25C12 11.0511 11.921 10.8603 11.7803 10.7197C11.6397 10.579 11.4489 10.5 11.25 10.5Z"/>
<path d="M6.75 12.75H3C2.80109 12.75 2.61032 12.829 2.46967 12.9697C2.32902 13.1103 2.25 13.3011 2.25 13.5C2.25 13.6989 2.32902 13.8897 2.46967 14.0303C2.61032 14.171 2.80109 14.25 3 14.25H6.75C6.94891 14.25 7.13968 14.171 7.28033 14.0303C7.42098 13.8897 7.5 13.6989 7.5 13.5C7.5 13.3011 7.42098 13.1103 7.28033 12.9697C7.13968 12.829 6.94891 12.75 6.75 12.75Z"/>
</svg>
