<svg viewBox="0 0 21 18" fill="currentColor" xmlns="http://www.w3.org/2000/svg">
<path d="M1.61304 5.86221C1.86239 5.67423 2.16421 5.56869 2.47636 5.56072C2.78853 5.55275 3.09528 5.64251 3.35405 5.81741L6.11 7.65503C6.24967 7.74813 6.42361 7.77381 6.58399 7.72486C6.74454 7.67591 6.87464 7.55777 6.93857 7.40264L9.18899 1.9371C9.29852 1.6643 9.48617 1.42993 9.72836 1.26332C9.97054 1.09671 10.2565 1.0052 10.5504 1.00041C10.8436 0.993559 11.1325 1.07184 11.382 1.22601C11.6315 1.38002 11.831 1.60323 11.9561 1.86852L14.5984 7.48509C14.6667 7.63144 14.7948 7.74114 14.95 7.78594C15.1051 7.83074 15.272 7.80634 15.4079 7.71898L17.705 6.25759C18.0565 6.03391 18.4848 5.96519 18.8888 6.06787C19.2926 6.17038 19.6364 6.43504 19.8387 6.79919C20.041 7.1635 20.084 7.59525 19.9578 7.99222L17.4274 15.9442C17.3311 16.2513 17.1388 16.5195 16.8789 16.7095C16.6192 16.8994 16.3053 17.0013 15.9835 17H5.07489C4.75028 17.0011 4.43413 16.8975 4.17328 16.7041C3.91245 16.5108 3.72113 16.2385 3.62787 15.9277L1.06799 7.51648C0.974882 7.21818 0.977428 6.8985 1.07516 6.60181C1.1729 6.30527 1.36096 6.04653 1.61304 5.86221ZM1.97926 7.23829L4.53865 15.6507C4.61008 15.887 4.82802 16.0485 5.07484 16.0478H15.9835C16.2276 16.0486 16.4439 15.8903 16.5168 15.6574L19.0476 7.70334C19.1238 7.47933 19.047 7.23156 18.8571 7.09001C18.7583 7.01412 18.6376 6.97171 18.5129 6.96916C18.4067 6.97044 18.3031 7.00248 18.2148 7.06147L15.9173 8.52429C15.5508 8.75786 15.1015 8.82227 14.6842 8.70126C14.2668 8.58041 13.9217 8.2856 13.7369 7.89246L11.0946 2.27468C11.0036 2.0706 10.7969 1.94306 10.5736 1.95326C10.3508 1.95629 10.1519 2.09308 10.0693 2.30003L7.81936 7.76598C7.64669 8.18483 7.29529 8.50433 6.86179 8.63632C6.4283 8.76849 5.95843 8.6993 5.58138 8.44771L2.82526 6.6101C2.62852 6.47984 2.37119 6.48686 2.18161 6.62763C1.9922 6.76841 1.91134 7.01236 1.97926 7.23829Z" stroke-width="0.5"/>
</svg>