<svg viewBox="0 0 57 57" fill="none" xmlns="http://www.w3.org/2000/svg">
<path d="M28.5 54.4375C35.3791 54.4375 41.9764 51.7048 46.8406 46.8406C51.7048 41.9764 54.4375 35.3791 54.4375 28.5C54.4375 21.6209 51.7048 15.0236 46.8406 10.1594C41.9764 5.29519 35.3791 2.5625 28.5 2.5625C21.6209 2.5625 15.0236 5.29519 10.1594 10.1594C5.29519 15.0236 2.5625 21.6209 2.5625 28.5C2.5625 35.3791 5.29519 41.9764 10.1594 46.8406C15.0236 51.7048 21.6209 54.4375 28.5 54.4375ZM47.9454 47.9454C42.7882 53.1027 35.7935 56 28.5 56C21.2065 56 14.2118 53.1027 9.05456 47.9454C3.89731 42.7882 1 35.7935 1 28.5C1 21.2065 3.89731 14.2118 9.05456 9.05456C14.2118 3.89731 21.2065 1 28.5 1C35.7935 1 42.7882 3.89731 47.9454 9.05456C53.1027 14.2118 56 21.2065 56 28.5C56 35.7935 53.1027 42.7882 47.9454 47.9454Z" fill="currentColor" stroke="currentColor" stroke-width="2"/>
<path d="M19 32.1667C19.7314 36.7333 22.689 39.8667 26.8869 40.5V43H29.9081V40.5667C34.2332 40.0667 37 37.2667 37 33.2667C37 29.4333 34.6148 27.2333 29.9081 26.4333V19.7C31.6572 20.3333 32.9611 21.9667 33.4382 24.2L36.364 23.0667C35.6007 19.6 33.1837 17.1667 29.9081 16.5V14H26.8869V16.4C24.947 16.6333 23.3887 17.3 22.1802 18.4333C21.0035 19.5333 20.3993 20.9333 20.3993 22.5667C20.3993 26.2667 22.5618 28.5 26.8869 29.2333V37.4C24.2473 36.7667 22.4346 34.5 21.894 31.1667L19 32.1667ZM26.8869 26C24.47 25.4667 23.4523 24.3667 23.4523 22.6C23.4523 21 24.8198 19.8333 26.8869 19.4667V26ZM33.947 33.3667C33.947 35.5333 32.4523 37.0667 29.9081 37.5V29.7C32.6113 30.3 33.947 31.5333 33.947 33.3667Z" fill="currentColor"/>
</svg>
