<svg width="45" height="46" viewBox="0 0 45 46" fill="none" xmlns="http://www.w3.org/2000/svg">
<path d="M13 19.5L22 28.5L31 19.5" stroke="#9146FF" stroke-width="3" stroke-linecap="round" stroke-linejoin="round"/>
<path d="M22.5 43.6875C27.9867 43.6875 33.2486 41.5079 37.1283 37.6283C41.0079 33.7486 43.1875 28.4867 43.1875 23C43.1875 17.5133 41.0079 12.2514 37.1283 8.37173C33.2486 4.49207 27.9867 2.3125 22.5 2.3125C17.0133 2.3125 11.7514 4.49207 7.87173 8.37173C3.99207 12.2514 1.8125 17.5133 1.8125 23C1.8125 28.4867 3.99207 33.7486 7.87173 37.6283C11.7514 41.5079 17.0133 43.6875 22.5 43.6875ZM37.7028 38.2028C33.6708 42.2348 28.2022 44.5 22.5 44.5C16.7978 44.5 11.3292 42.2348 7.2972 38.2028C3.26517 34.1708 1 28.7022 1 23C1 17.2978 3.26517 11.8292 7.2972 7.7972C11.3292 3.76517 16.7978 1.5 22.5 1.5C28.2022 1.5 33.6708 3.76517 37.7028 7.7972C41.7348 11.8292 44 17.2978 44 23C44 28.7022 41.7348 34.1708 37.7028 38.2028Z" stroke="#9146FF" stroke-width="2"/>
</svg>
