<svg width="22" height="23" viewBox="0 0 22 23" fill="none" xmlns="http://www.w3.org/2000/svg">
<path fill-rule="evenodd" clip-rule="evenodd" d="M14.1729 1.02727C14.5634 0.636744 15.1966 0.636744 15.5871 1.02727L21.244 6.68412C21.6345 7.07465 21.6345 7.70781 21.244 8.09834L8.66719 20.6751C8.45453 20.8878 8.15745 20.9934 7.85827 20.9628L2.72662 20.4376C2.25488 20.3893 1.88192 20.0163 1.83364 19.5446L1.30843 14.413C1.2778 14.1138 1.38346 13.8167 1.59612 13.604L11.3135 3.88664L14.1729 1.02727ZM3.67804 14.3505L12.0206 6.00796L16.2633 10.2506L7.92085 18.593L7.34452 15.7114C7.26535 15.3156 6.95592 15.0061 6.56006 14.9269L3.67804 14.3505ZM3.51796 16.3581L3.74033 18.5309L5.91329 18.7533L5.51411 16.7574L3.51796 16.3581ZM13.4348 4.59375L17.6775 8.83639L19.1226 7.39123L14.88 3.14859L13.4348 4.59375Z" fill="#326BF6"/>
</svg>
