<svg version="1.1" id="Camada_1" xmlns="http://www.w3.org/2000/svg" xmlns:xlink="http://www.w3.org/1999/xlink" x="0px" y="0px"
	 viewBox="0 0 30 24" style="enable-background:new 0 0 30 24;" xml:space="preserve">
<path class="icon-color" d="M7.6,24h2.9c2.5,0,4.6-2.1,4.6-4.6V13h8.7l-4.6,4.5c-0.4,0.4-0.4,0.9,0,1.3c0.4,0.4,0.9,0.4,1.3,0l6.2-6.1
	c0.2-0.1,0.3-0.4,0.3-0.6s-0.1-0.5-0.3-0.7l-6.2-6.1c-0.4-0.4-0.9-0.4-1.3,0c-0.4,0.4-0.4,0.9,0,1.3l4.6,4.5h-8.7V4.6
	C15.1,2.1,13,0,10.5,0H7.6C5.1,0,3,2.1,3,4.6v14.8C3,21.9,5.1,24,7.6,24z M4.8,4.6c0-1.5,1.2-2.8,2.8-2.8h2.9c1.5,0,2.8,1.2,2.8,2.8
	v6.5H8.8c-0.5,0-0.9,0.4-0.9,0.9s0.4,0.9,0.9,0.9h4.5v6.5c0,1.5-1.2,2.8-2.8,2.8H7.6c-1.5,0-2.8-1.2-2.8-2.8V4.6z"/>
</svg>