<svg width="22" height="14" viewBox="0 0 22 14" fill="#AFAFAF" xmlns="http://www.w3.org/2000/svg">
  <path d="M10.5015 4.67132C11.884 4.67132 13.0127 5.71404 13.0127 6.99118C13.0127 8.26831 11.884 9.31104 10.5015 9.31104C9.11898 9.31104 7.99023 8.26831 7.99023 6.99118C7.99023 5.71404 9.11898 4.67132 10.5015 4.67132ZM10.5015 3.05469C8.14773 3.05469 6.24023 4.81681 6.24023 6.99118C6.24023 9.16554 8.14773 10.9277 10.5015 10.9277C12.8552 10.9277 14.7627 9.16554 14.7627 6.99118C14.7627 4.81681 12.8552 3.05469 10.5015 3.05469Z"/>
  <path d="M10.5022 1.61663C14.1772 1.61663 17.5809 3.597 19.1647 6.65242C19.2784 6.87067 19.2784 7.12125 19.1647 7.33949C17.5809 10.403 14.1772 12.3753 10.5022 12.3753C6.82719 12.3753 3.42344 10.3949 1.83969 7.33949C1.72594 7.12125 1.72594 6.87067 1.83969 6.65242C3.42344 3.58891 6.82719 1.61663 10.5022 1.61663ZM10.5022 0C5.97844 0 2.08469 2.43303 0.255937 5.95727C-0.0853125 6.61201 -0.0853125 7.38799 0.255937 8.04272C2.08469 11.567 5.97844 14 10.5022 14C15.0259 14 18.9197 11.567 20.7484 8.04272C21.0897 7.38799 21.0897 6.61201 20.7484 5.95727C18.9197 2.43303 15.0259 0 10.5022 0Z" />
</svg>
