<svg width="22" height="21" viewBox="0 0 22 21" fill="#AFAFAF" xmlns="http://www.w3.org/2000/svg">
  <path fill-rule="evenodd" clip-rule="evenodd" d="M2.07868 19.3548C1.73467 19.7868 1.80148 20.4216 2.2279 20.7726C2.65432 21.1236 3.27887 21.0578 3.62287 20.6258L6.70238 16.7579C7.88972 17.1537 9.16858 17.3692 10.5022 17.3692C15.0259 17.3692 18.9197 14.8905 20.7484 11.3001C21.0897 10.6331 21.0897 9.84256 20.7484 9.17554C19.7865 7.28693 18.2531 5.70592 16.3573 4.63148L18.7363 1.64345C19.0803 1.21139 19.0135 0.576604 18.5871 0.225625C18.1606 -0.125354 17.5361 -0.0596203 17.1921 0.372444L14.4801 3.77869C13.2429 3.34408 11.9027 3.1065 10.5022 3.1065C5.97844 3.1065 2.08469 5.58517 0.255937 9.17554C-0.0853125 9.84256 -0.0853125 10.6331 0.255937 11.3001C1.24432 13.2406 2.83592 14.8564 4.80416 15.9316L2.07868 19.3548ZM7.82287 15.3506C8.68295 15.5881 9.5841 15.714 10.5022 15.714C14.1772 15.714 17.5809 13.7047 19.1647 10.5837C19.2784 10.3614 19.2784 10.1061 19.1647 9.88373C18.3168 8.2172 16.9472 6.86461 15.2936 5.96749L13.8629 7.76435C14.4268 8.4444 14.7627 9.30005 14.7627 10.2297C14.7627 12.4448 12.8552 14.24 10.5015 14.24C9.9468 14.24 9.4169 14.1403 8.93091 13.9589L7.82287 15.3506ZM7.26588 12.8397L5.87477 14.5869C4.1478 13.6914 2.71547 12.305 1.83969 10.5837C1.72594 10.3614 1.72594 10.1061 1.83969 9.88373C3.42344 6.76274 6.82719 4.75346 10.5022 4.75346C11.4881 4.75346 12.4544 4.89865 13.3714 5.17124L12.255 6.5734C11.7202 6.34593 11.1266 6.21932 10.5015 6.21932C8.14773 6.21932 6.24023 8.0145 6.24023 10.2297C6.24023 11.2265 6.6265 12.1383 7.26588 12.8397ZM10.0491 12.5545C10.1959 12.5798 10.3471 12.593 10.5015 12.593C11.884 12.593 13.0127 11.5308 13.0127 10.2297C13.0127 9.84878 12.916 9.48837 12.7445 9.16908L10.0491 12.5545ZM11.1598 7.94898L8.36151 11.4636C8.12618 11.104 7.99023 10.6812 7.99023 10.2297C7.99023 8.92856 9.11898 7.86627 10.5015 7.86627C10.7291 7.86627 10.9498 7.89507 11.1598 7.94898Z" />
</svg>
