<svg width="22" height="15" viewBox="0 0 22 15" fill="none" xmlns="http://www.w3.org/2000/svg">
<path d="M10.5015 5.00554C11.884 5.00554 13.0127 6.12274 13.0127 7.49111C13.0127 8.85947 11.884 9.97667 10.5015 9.97667C9.11898 9.97667 7.99023 8.85947 7.99023 7.49111C7.99023 6.12274 9.11898 5.00554 10.5015 5.00554ZM10.5015 3.27344C8.14773 3.27344 6.24023 5.16143 6.24023 7.49111C6.24023 9.82078 8.14773 11.7088 10.5015 11.7088C12.8552 11.7088 14.7627 9.82078 14.7627 7.49111C14.7627 5.16143 12.8552 3.27344 10.5015 3.27344Z" fill="#9146FF"/>
<path d="M10.5022 1.7321C14.1772 1.7321 17.5809 3.85393 19.1647 7.1276C19.2784 7.36143 19.2784 7.62991 19.1647 7.86374C17.5809 11.1461 14.1772 13.2592 10.5022 13.2592C6.82719 13.2592 3.42344 11.1374 1.83969 7.86374C1.72594 7.62991 1.72594 7.36143 1.83969 7.1276C3.42344 3.84527 6.82719 1.7321 10.5022 1.7321ZM10.5022 0C5.97844 0 2.08469 2.60681 0.255937 6.38279C-0.0853125 7.0843 -0.0853125 7.9157 0.255937 8.61721C2.08469 12.3932 5.97844 15 10.5022 15C15.0259 15 18.9197 12.3932 20.7484 8.61721C21.0897 7.9157 21.0897 7.0843 20.7484 6.38279C18.9197 2.60681 15.0259 0 10.5022 0Z" fill="#9146FF"/>
</svg>
