<svg viewBox="0 0 14 18" fill="currentColor" xmlns="http://www.w3.org/2000/svg">
<path d="M13.6716 6.4136C13.6701 6.30773 13.6269 6.20689 13.5513 6.1329L8.51879 1.12042C8.44481 1.04475 8.34383 1.00154 8.2381 1H3.20557C2.62054 1 2.05957 1.23244 1.646 1.646C1.23244 2.05971 1 2.62068 1 3.20557V14.7944C1 15.3793 1.23244 15.9403 1.646 16.354C2.05957 16.7676 2.62054 17 3.20557 17H11.4661C12.0512 17 12.6121 16.7676 13.0257 16.354C13.4393 15.9403 13.6717 15.3793 13.6717 14.7944L13.6716 6.4136ZM8.67917 2.40361L12.2681 5.99255H10.2831C9.85768 5.99255 9.44974 5.8236 9.14888 5.52277C8.84802 5.22194 8.6791 4.81397 8.6791 4.38852L8.67917 2.40361ZM12.8696 14.7945C12.8696 15.1668 12.7218 15.5237 12.4586 15.7869C12.1954 16.0501 11.8385 16.1979 11.4662 16.1979H3.20557C2.83329 16.1979 2.47636 16.0501 2.21314 15.7869C1.94992 15.5237 1.80211 15.1668 1.80211 14.7945V3.20561C1.80211 2.83332 1.94994 2.4764 2.21314 2.21317C2.47635 1.94996 2.83325 1.80214 3.20557 1.80214H7.87721V4.38852C7.87721 5.02668 8.13063 5.63856 8.58182 6.0899C9.03313 6.54109 9.64501 6.79451 10.2832 6.79451H12.8696L12.8696 14.7945Z" stroke-width="0.5"/>
</svg>