<svg viewBox="0 0 57 57" fill="none" xmlns="http://www.w3.org/2000/svg">
<path d="M28.5 54.4375C35.3791 54.4375 41.9764 51.7048 46.8406 46.8406C51.7048 41.9764 54.4375 35.3791 54.4375 28.5C54.4375 21.6209 51.7048 15.0236 46.8406 10.1594C41.9764 5.29519 35.3791 2.5625 28.5 2.5625C21.6209 2.5625 15.0236 5.29519 10.1594 10.1594C5.29519 15.0236 2.5625 21.6209 2.5625 28.5C2.5625 35.3791 5.29519 41.9764 10.1594 46.8406C15.0236 51.7048 21.6209 54.4375 28.5 54.4375ZM47.9454 47.9454C42.7882 53.1027 35.7935 56 28.5 56C21.2065 56 14.2118 53.1027 9.05456 47.9454C3.89731 42.7882 1 35.7935 1 28.5C1 21.2065 3.89731 14.2118 9.05456 9.05456C14.2118 3.89731 21.2065 1 28.5 1C35.7935 1 42.7882 3.89731 47.9454 9.05456C53.1027 14.2118 56 21.2065 56 28.5C56 35.7935 53.1027 42.7882 47.9454 47.9454Z" fill="currentColor" stroke="currentColor" stroke-width="2"/>
<path fill-rule="evenodd" clip-rule="evenodd" d="M16 20.8077C16 18.1525 18.0728 16 20.6296 16H36.3704C38.9272 16 41 18.1525 41 20.8077V36.1923C41 38.8475 38.9272 41 36.3704 41H20.6296C18.0728 41 16 38.8475 16 36.1923V20.8077ZM20.6296 17.9231C19.0955 17.9231 17.8519 19.2146 17.8519 20.8077V36.1923C17.8519 37.7854 19.0955 39.0769 20.6296 39.0769H36.3704C37.9045 39.0769 39.1481 37.7854 39.1481 36.1923V20.8077C39.1481 19.2146 37.9045 17.9231 36.3704 17.9231H20.6296ZM20.1272 23.2802C20.1272 22.7492 20.5417 22.3187 21.0531 22.3187H36.3058C36.8171 22.3187 37.2317 22.7492 37.2317 23.2802C37.2317 23.8113 36.8171 24.2418 36.3058 24.2418H21.0531C20.5417 24.2418 20.1272 23.8113 20.1272 23.2802ZM20.1272 28.5C20.1272 27.969 20.5417 27.5385 21.0531 27.5385H36.3058C36.8171 27.5385 37.2317 27.969 37.2317 28.5C37.2317 29.031 36.8171 29.4615 36.3058 29.4615H21.0531C20.5417 29.4615 20.1272 29.031 20.1272 28.5ZM20.1272 33.7198C20.1272 33.1887 20.5417 32.7582 21.0531 32.7582H32.7088C33.2201 32.7582 33.6347 33.1887 33.6347 33.7198C33.6347 34.2508 33.2201 34.6813 32.7088 34.6813H21.0531C20.5417 34.6813 20.1272 34.2508 20.1272 33.7198Z" fill="currentColor"/>
</svg>
