<svg viewBox="0 0 21 21" fill="currentColor" xmlns="http://www.w3.org/2000/svg">
<g clip-path="url(#clip0_7310_53097)">
<path d="M5.94563 16.5987C6.19751 16.5987 6.4017 16.3945 6.4017 16.1426C6.4017 15.8907 6.19751 15.6865 5.94563 15.6865C5.69375 15.6865 5.48956 15.8907 5.48956 16.1426C5.48956 16.3945 5.69375 16.5987 5.94563 16.5987Z"/>
<path d="M9.59413 15.2305C9.846 15.2305 10.0502 15.0263 10.0502 14.7744C10.0502 14.5225 9.846 14.3184 9.59413 14.3184C9.34225 14.3184 9.13806 14.5225 9.13806 14.7744C9.13806 15.0263 9.34225 15.2305 9.59413 15.2305Z"/>
<path d="M11.4183 17.0547C11.6702 17.0547 11.8744 16.8505 11.8744 16.5986C11.8744 16.3468 11.6702 16.1426 11.4183 16.1426C11.1665 16.1426 10.9623 16.3468 10.9623 16.5986C10.9623 16.8505 11.1665 17.0547 11.4183 17.0547Z"/>
<path d="M8.68196 18.4229C8.93384 18.4229 9.13802 18.2187 9.13802 17.9668C9.13802 17.7149 8.93384 17.5107 8.68196 17.5107C8.43008 17.5107 8.22589 17.7149 8.22589 17.9668C8.22589 18.2187 8.43008 18.4229 8.68196 18.4229Z"/>
<path d="M14.6109 17.5108C14.8627 17.5108 15.0669 17.3066 15.0669 17.0547C15.0669 16.8028 14.8627 16.5986 14.6109 16.5986C14.359 16.5986 14.1548 16.8028 14.1548 17.0547C14.1548 17.3066 14.359 17.5108 14.6109 17.5108Z"/>
<path d="M17.8945 17.2831L14.7933 12.4032C14.7933 12.312 14.7021 12.2208 14.6564 12.1752L13.2882 9.98608C12.969 9.4388 12.7866 8.84591 12.7866 8.25303V2.82585C13.3339 2.64342 13.6987 2.14175 13.6987 1.54886C13.6987 0.773549 13.1058 0.180664 12.3305 0.180664H7.76986C6.99454 0.180664 6.40166 0.773549 6.40166 1.54886C6.40166 2.32417 6.99454 2.91706 7.76986 2.91706H10.5062C10.7799 2.91706 10.9623 2.73463 10.9623 2.46099C10.9623 2.18735 10.7799 2.00493 10.5062 2.00493H7.76986C7.49622 2.00493 7.31379 1.8225 7.31379 1.54886C7.31379 1.27522 7.49622 1.0928 7.76986 1.0928H12.3305C12.6041 1.0928 12.7866 1.27522 12.7866 1.54886C12.7866 1.8225 12.6041 2.00493 12.3305 2.00493C12.0569 2.00493 11.8744 2.18735 11.8744 2.46099V8.25303C11.8744 9.02834 12.1025 9.80365 12.5129 10.4421L13.2882 11.6735C12.1025 11.4455 10.7799 11.5823 9.82215 12.084C8.91002 12.54 7.45061 12.6313 6.40166 12.2664L7.58743 10.4421C7.99789 9.80365 8.22592 9.02834 8.22592 8.25303V4.28525C8.22592 4.01162 8.04349 3.82919 7.76986 3.82919C7.49622 3.82919 7.31379 4.01162 7.31379 4.28525V8.25303C7.31379 8.84591 7.13136 9.4388 6.81212 9.94047L5.44392 12.1296C5.39831 12.1752 5.35271 12.2208 5.3071 12.2664C5.3071 12.312 5.3071 12.312 5.26149 12.3576L2.20586 17.2831C1.97782 17.648 1.841 18.0584 1.841 18.5145V18.8794C1.841 19.6547 2.43389 20.2476 3.2092 20.2476H16.8912C17.6665 20.2476 18.2594 19.6547 18.2594 18.8794V18.5145C18.2594 18.0584 18.1225 17.648 17.8945 17.2831ZM17.3472 18.8794C17.3472 19.153 17.1648 19.3354 16.8912 19.3354H3.2092C2.93556 19.3354 2.75313 19.153 2.75313 18.8794V18.5145C2.75313 18.2409 2.84435 18.0128 2.98117 17.7848L5.94559 13.0873C6.53848 13.3154 7.22258 13.4066 7.90667 13.4066C8.7732 13.4066 9.59412 13.2241 10.2782 12.9049C11.2816 12.4032 12.969 12.3576 14.0636 12.8593L17.1648 17.7848C17.3016 18.0128 17.3928 18.2409 17.3928 18.5145V18.8794H17.3472Z"/>
</g>
<defs>
<clipPath id="clip0_7310_53097">
<rect width="20.0669" height="20.0669" transform="translate(0.0167236 0.180664)"/>
</clipPath>
</defs>
</svg>
