<?xml version="1.0" standalone="no"?>
<svg width="30" height="24" viewBox="0 0 30 24"  class="icon" xmlns="http://www.w3.org/2000/svg">
<path d="M15.6919 3.04815C15.3051 2.67747 14.6949 2.67747 14.3081 3.04815L7.30809 9.75649C7.11128 9.9451 7 10.2059 7 10.4785V21C7 21.5523 7.44772 22 8 22H10.5C11.0523 22 11.5 21.5523 11.5 21V16.8542C11.5 15.1973 12.8431 13.8542 14.5 13.8542H15.25C16.9069 13.8542 18.25 15.1973 18.25 16.8542V21C18.25 21.5523 18.6977 22 19.25 22H22C22.5523 22 23 21.5523 23 21V10.4785C23 10.2059 22.8887 9.9451 22.6919 9.75649L15.6919 3.04815ZM12.9243 1.60418C14.0847 0.49213 15.9153 0.492129 17.0757 1.60418L24.0757 8.31251C24.6661 8.87834 25 9.66069 25 10.4785V21C25 22.6569 23.6569 24 22 24H19.25C17.5931 24 16.25 22.6569 16.25 21V16.8542C16.25 16.3019 15.8023 15.8542 15.25 15.8542H14.5C13.9477 15.8542 13.5 16.3019 13.5 16.8542V21C13.5 22.6569 12.1569 24 10.5 24H8C6.34315 24 5 22.6569 5 21V10.4785C5 9.66069 5.33385 8.87834 5.92428 8.31251L12.9243 1.60418Z" />
</svg>
