<svg version="1.1" id="Camada_1" xmlns="http://www.w3.org/2000/svg" xmlns:xlink="http://www.w3.org/1999/xlink" x="0px" y="0px"
	 viewBox="0 0 30 24" style="enable-background:new 0 0 30 24;" xml:space="preserve">
<path class="icon-color" d="M15.7,3c-0.4-0.4-1-0.4-1.4,0l-7,6.7C7.1,9.9,7,10.2,7,10.5V21c0,0.6,0.4,1,1,1h2.5c0.6,0,1-0.4,1-1v-4.1
	c0-1.7,1.3-3,3-3h0.8c1.7,0,3,1.3,3,3V21c0,0.6,0.4,1,1,1H22c0.6,0,1-0.4,1-1V10.5c0-0.3-0.1-0.5-0.3-0.7L15.7,3z M12.9,1.6
	c1.2-1.1,3-1.1,4.2,0l7,6.7c0.6,0.6,0.9,1.3,0.9,2.2V21c0,1.7-1.3,3-3,3h-2.8c-1.7,0-3-1.3-3-3v-4.1c0-0.6-0.4-1-1-1h-0.8
	c-0.6,0-1,0.4-1,1V21c0,1.7-1.3,3-3,3H8c-1.7,0-3-1.3-3-3V10.5c0-0.8,0.3-1.6,0.9-2.2L12.9,1.6z"/>
</svg>