<svg width="20" height="24" viewBox="0 0 20 24" fill="none" xmlns="http://www.w3.org/2000/svg">
<path fill-rule="evenodd" clip-rule="evenodd" d="M10.6919 3.04815C10.3051 2.67747 9.69489 2.67747 9.30809 3.04815L2.30809 9.75649C2.11128 9.9451 2 10.2059 2 10.4785V21C2 21.5523 2.44772 22 3 22H5.5C6.05228 22 6.5 21.5523 6.5 21V16.8542C6.5 15.1973 7.84315 13.8542 9.5 13.8542H10.25C11.9069 13.8542 13.25 15.1973 13.25 16.8542V21C13.25 21.5523 13.6977 22 14.25 22H17C17.5523 22 18 21.5523 18 21V10.4785C18 10.2059 17.8887 9.9451 17.6919 9.75649L10.6919 3.04815ZM7.92428 1.60418C9.08468 0.49213 10.9153 0.492129 12.0757 1.60418L19.0757 8.31251C19.6661 8.87834 20 9.66069 20 10.4785V21C20 22.6569 18.6569 24 17 24H14.25C12.5931 24 11.25 22.6569 11.25 21V16.8542C11.25 16.3019 10.8023 15.8542 10.25 15.8542H9.5C8.94772 15.8542 8.5 16.3019 8.5 16.8542V21C8.5 22.6569 7.15685 24 5.5 24H3C1.34315 24 0 22.6569 0 21V10.4785C0 9.66069 0.333851 8.87834 0.924284 8.31251L7.92428 1.60418Z" fill="#9146FF"/>
</svg>
