<svg width="21" height="24" viewBox="0 0 21 24" fill="none" xmlns="http://www.w3.org/2000/svg">
<path fill-rule="evenodd" clip-rule="evenodd" d="M11.2398 3.04815C10.853 2.67747 10.2428 2.67747 9.85601 3.04815L2.85601 9.75649C2.6592 9.9451 2.54791 10.2059 2.54791 10.4785V21C2.54791 21.5523 2.99563 22 3.54791 22H6.04791C6.6002 22 7.04791 21.5523 7.04791 21V16.8542C7.04791 15.1973 8.39106 13.8542 10.0479 13.8542H10.7979C12.4548 13.8542 13.7979 15.1973 13.7979 16.8542V21C13.7979 21.5523 14.2456 22 14.7979 22H17.5479C18.1002 22 18.5479 21.5523 18.5479 21V10.4785C18.5479 10.2059 18.4366 9.9451 18.2398 9.75649L11.2398 3.04815ZM8.4722 1.60418C9.63259 0.49213 11.4632 0.492129 12.6236 1.60418L19.6236 8.31251C20.2141 8.87834 20.5479 9.66069 20.5479 10.4785V21C20.5479 22.6569 19.2048 24 17.5479 24H14.7979C13.1411 24 11.7979 22.6569 11.7979 21V16.8542C11.7979 16.3019 11.3502 15.8542 10.7979 15.8542H10.0479C9.49563 15.8542 9.04791 16.3019 9.04791 16.8542V21C9.04791 22.6569 7.70477 24 6.04791 24H3.54791C1.89106 24 0.547913 22.6569 0.547913 21V10.4785C0.547913 9.66069 0.881763 8.87834 1.4722 8.31251L8.4722 1.60418Z" fill="#DFD2FF"/>
</svg>
