<svg width="28" height="24" viewBox="0 0 28 24" fill="none" xmlns="http://www.w3.org/2000/svg">
<path d="M15.62 10.88V9.62H16.88C17.4986 9.62 18 9.11856 18 8.5C18 7.88144 17.4986 7.38 16.88 7.38H15.62V6.12C15.62 5.50144 15.1186 5 14.5 5C13.8814 5 13.38 5.50144 13.38 6.12V7.38H12.12C11.5014 7.38 11 7.88144 11 8.5C11 9.11856 11.5014 9.62 12.12 9.62H13.38V10.88C13.38 11.4986 13.8814 12 14.5 12C15.1186 12 15.62 11.4986 15.62 10.88Z" fill="#9146FF"/>
<path d="M27 7.5V21C27 22.1046 26.1046 23 25 23H18.5C17.3954 23 16.5 22.1046 16.5 21V18.5C16.5 17.3954 15.6046 16.5 14.5 16.5H13.5C12.3954 16.5 11.5 17.3954 11.5 18.5V21C11.5 22.1046 10.6046 23 9.5 23H3C1.89543 23 1 22.1046 1 21V7.5C1 6.39543 1.89543 5.5 3 5.5C4.10457 5.5 5 4.60457 5 3.5V3C5 1.89543 5.89543 1 7 1H8.5H15H20.5H21C22.1046 1 23 1.89543 23 3V3.5C23 4.60457 23.8954 5.5 25 5.5C26.1046 5.5 27 6.39543 27 7.5Z" stroke="#9146FF" stroke-width="2"/>
</svg>
