<svg width="30" height="30" viewBox="0 0 30 30" fill="none" xmlns="http://www.w3.org/2000/svg">
<circle cx="15" cy="15" r="15" fill="#DFD2FF"/>
<path d="M15.9349 14.3537V13.6268H16.6618C17.0187 13.6268 17.308 13.3375 17.308 12.9807C17.308 12.6238 17.0187 12.3345 16.6618 12.3345H15.9349V11.6076C15.9349 11.2507 15.6456 10.9614 15.2888 10.9614C14.9319 10.9614 14.6426 11.2507 14.6426 11.6076V12.3345H13.9157C13.5588 12.3345 13.2695 12.6238 13.2695 12.9807C13.2695 13.3375 13.5588 13.6268 13.9157 13.6268H14.6426V14.3537C14.6426 14.7106 14.9319 14.9999 15.2888 14.9999C15.6456 14.9999 15.9349 14.7106 15.9349 14.3537Z" fill="#9146FF"/>
<path fill-rule="evenodd" clip-rule="evenodd" d="M9.23103 9.80767C9.23103 8.8518 10.0059 8.0769 10.9618 8.0769H19.0387C19.9946 8.0769 20.7695 8.8518 20.7695 9.80767V10.0961C20.7695 10.4148 21.0278 10.6731 21.3464 10.6731C22.3023 10.6731 23.0772 11.4479 23.0772 12.4038V20.1923C23.0772 21.1482 22.3023 21.9231 21.3464 21.9231H19.3272C18.3713 21.9231 17.5964 21.1482 17.5964 20.1923V18.75C17.5964 18.4314 17.3381 18.1731 17.0195 18.1731H12.981C12.6624 18.1731 12.4041 18.4314 12.4041 18.75V20.1923C12.4041 21.1482 11.6292 21.9231 10.6733 21.9231H8.65411C7.69823 21.9231 6.92334 21.1482 6.92334 20.1923V12.4038C6.92334 11.4479 7.69823 10.6731 8.65411 10.6731C8.97273 10.6731 9.23103 10.4148 9.23103 10.0961V9.80767ZM10.9618 9.23075C10.6432 9.23075 10.3849 9.48905 10.3849 9.80767V10.0961C10.3849 11.052 9.60999 11.8269 8.65411 11.8269C8.33548 11.8269 8.07719 12.0852 8.07719 12.4038V20.1923C8.07719 20.5109 8.33548 20.7692 8.65411 20.7692H10.6733C10.992 20.7692 11.2503 20.5109 11.2503 20.1923V18.75C11.2503 17.7941 12.0252 17.0192 12.981 17.0192H17.0195C17.9754 17.0192 18.7503 17.7941 18.7503 18.75V20.1923C18.7503 20.5109 19.0086 20.7692 19.3272 20.7692H21.3464C21.665 20.7692 21.9233 20.5109 21.9233 20.1923V12.4038C21.9233 12.0852 21.665 11.8269 21.3464 11.8269C20.3905 11.8269 19.6156 11.052 19.6156 10.0961V9.80767C19.6156 9.48905 19.3573 9.23075 19.0387 9.23075H10.9618Z" fill="#9146FF"/>
</svg>
