<svg width="30" height="30" viewBox="0 0 30 30" fill="none" xmlns="http://www.w3.org/2000/svg">
<circle cx="15" cy="15" r="15" fill="#DFD2FF"/>
<path fill-rule="evenodd" clip-rule="evenodd" d="M9.24099 6.97035C9.54208 6.86611 9.80747 6.61723 9.80747 6.2986C9.80747 5.97997 9.54657 5.71566 9.23423 5.77863C7.91572 6.04448 6.92285 7.20944 6.92285 8.60629V14.3755C6.92285 15.9687 8.21434 17.2601 9.80747 17.2601H11.5382V20.1789L11.5422 20.2124C11.8708 23.0056 14.2584 24.5484 16.5245 24.5079C17.6672 24.4875 18.8105 24.0678 19.6686 23.1835C20.4922 22.3348 21.0101 21.1031 21.0544 19.5045C22.2121 19.2433 23.0767 18.2086 23.0767 16.972C23.0767 15.5381 21.9144 14.3758 20.4805 14.3758C19.0467 14.3758 17.8844 15.5381 17.8844 16.972C17.8844 18.2062 18.7457 19.2393 19.9001 19.503C19.857 20.8468 19.4253 21.7774 18.8406 22.38C18.2203 23.0192 17.3804 23.3386 16.5039 23.3543C14.7407 23.3858 12.9549 22.2006 12.6921 20.1101V17.2601H14.4229C16.016 17.2601 17.3075 15.9687 17.3075 14.3755V8.60629C17.3075 7.20944 16.3146 6.04448 14.9961 5.77863C14.6838 5.71566 14.4229 5.97997 14.4229 6.2986C14.4229 6.61723 14.6882 6.86611 14.9893 6.97035C15.667 7.20498 16.1536 7.84881 16.1536 8.60629V14.3755C16.1536 15.3314 15.3787 16.1063 14.4229 16.1063H9.80747C8.85159 16.1063 8.0767 15.3314 8.0767 14.3755V8.60629C8.0767 7.84881 8.56331 7.20498 9.24099 6.97035ZM20.4805 18.4143C21.2771 18.4143 21.9229 17.7685 21.9229 16.972C21.9229 16.1754 21.2771 15.5297 20.4805 15.5297C19.684 15.5297 19.0382 16.1754 19.0382 16.972C19.0382 17.7685 19.684 18.4143 20.4805 18.4143Z" fill="#9146FF"/>
</svg>
