<svg width="30" height="30" viewBox="0 0 30 30" fill="none" xmlns="http://www.w3.org/2000/svg">
<circle cx="15" cy="15" r="15" fill="#DFD2FF"/>
<path d="M15.9344 20.123V19.3961H16.6614C17.0182 19.3961 17.3075 19.1068 17.3075 18.7499C17.3075 18.3931 17.0182 18.1038 16.6614 18.1038H15.9344V17.3769C15.9344 17.02 15.6451 16.7307 15.2883 16.7307C14.9314 16.7307 14.6421 17.02 14.6421 17.3769V18.1038H13.9152C13.5583 18.1038 13.269 18.3931 13.269 18.7499C13.269 19.1068 13.5583 19.3961 13.9152 19.3961H14.6421V20.123C14.6421 20.4799 14.9314 20.7692 15.2883 20.7692C15.6451 20.7692 15.9344 20.4799 15.9344 20.123Z" fill="#9146FF"/>
<path fill-rule="evenodd" clip-rule="evenodd" d="M15.9976 10.4176C16.2424 10.0381 16.6398 9.62089 17.1605 9.2383C17.8297 8.74653 18.6539 8.3485 19.5027 8.17341C20.349 7.99883 21.1952 8.04982 21.9465 8.41811C22.692 8.78355 23.4063 9.49177 23.9415 10.7479C24.4125 11.8533 24.3062 13.1916 23.7611 14.6464C23.2179 16.0961 22.2629 17.5931 21.1496 18.9531C20.0382 20.3106 18.7887 21.5074 17.6809 22.3598C17.1266 22.7863 16.6177 23.1189 16.1877 23.342C15.7393 23.5746 15.4412 23.6538 15.2882 23.6538C15.1325 23.6538 14.824 23.5728 14.3572 23.3385C13.9097 23.1139 13.3772 22.7797 12.7953 22.3521C11.6323 21.4976 10.3106 20.2987 9.12761 18.9397C7.9422 17.578 6.91735 16.0798 6.32285 14.63C5.7259 13.1741 5.59213 11.8433 6.05887 10.7479C6.58936 9.50283 7.33238 8.79336 8.13203 8.42376C8.94166 8.04954 9.86723 7.99747 10.7937 8.175C11.7209 8.35266 12.6195 8.75551 13.3419 9.24958C13.9424 9.66035 14.3807 10.1059 14.6242 10.4964C14.5876 10.5456 14.5426 10.6041 14.4879 10.6734C14.4552 10.7148 14.4199 10.7589 14.3829 10.8053C14.2477 10.9747 14.0887 11.174 13.9405 11.3799C13.7508 11.6435 13.5558 11.9487 13.4226 12.2726C13.29 12.595 13.2003 12.98 13.28 13.3816C13.4504 14.2395 14.0043 14.7968 14.6638 15.032C15.2996 15.2588 16.0324 15.1858 16.5921 14.8187C17.1817 14.432 17.5371 13.7443 17.4102 12.8799C17.3017 12.1405 16.8497 11.3142 15.9976 10.4176ZM15.3605 11.43C15.9722 12.1246 16.213 12.6686 16.2686 13.0474C16.3308 13.4712 16.1703 13.7155 15.9592 13.8539C15.7182 14.012 15.3656 14.0573 15.0515 13.9452C14.7609 13.8416 14.5003 13.6027 14.4118 13.1569C14.3924 13.0591 14.4054 12.9163 14.4897 12.7115C14.5733 12.5082 14.7094 12.2869 14.8771 12.0538C15.0067 11.8737 15.1414 11.7048 15.2741 11.5385C15.303 11.5022 15.3319 11.4661 15.3605 11.43ZM15.2801 9.44153C15.6031 9.0343 16.016 8.64739 16.4773 8.30848C17.2617 7.73208 18.2368 7.2564 19.2696 7.04336C20.3048 6.82981 21.4226 6.87625 22.4544 7.38205C23.492 7.89069 24.3799 8.83322 25.003 10.2956C25.6355 11.7799 25.4416 13.4501 24.8416 15.0513C24.2397 16.6576 23.2048 18.2641 22.0424 19.684C20.8779 21.1063 19.5656 22.3655 18.3845 23.2743C17.7944 23.7283 17.2271 24.1026 16.719 24.3662C16.2293 24.6203 15.7273 24.8076 15.2882 24.8076C14.8519 24.8076 14.3423 24.6221 13.8396 24.3697C13.3174 24.1076 12.7287 23.735 12.1121 23.282C10.8782 22.3753 9.49416 21.1181 8.25732 19.6973C7.02289 18.2793 5.91385 16.6739 5.25527 15.0677C4.59915 13.4676 4.36066 11.7899 4.99736 10.2956C5.62517 8.82215 6.55644 7.88087 7.64792 7.37638C8.72941 6.87652 9.91179 6.83117 11.0109 7.04177C12.1093 7.25224 13.1539 7.72309 13.9933 8.2972C14.4894 8.63651 14.9355 9.02706 15.2801 9.44153Z" fill="#9146FF"/>
</svg>
