<svg width="30" height="24" viewBox="0 0 30 24" fill="#1C23BD" xmlns="http://www.w3.org/2000/svg">
<path fill-rule="evenodd" clip-rule="evenodd" d="M8.35134 10.7449C8.77166 10.3866 9.40282 10.437 9.76108 10.8573L14 15.8306L14 1.09086C14 0.53858 14.4477 0.0908639 15 0.0908638C15.5523 0.0908638 16 0.53858 16 1.09086L16 15.8306L20.239 10.8573C20.5972 10.437 21.2284 10.3866 21.6487 10.7449C22.069 11.1032 22.1193 11.7343 21.7611 12.1546L15.7611 19.1941C15.5711 19.417 15.2929 19.5454 15 19.5454C14.7071 19.5454 14.429 19.417 14.239 19.1941L8.23896 12.1546C7.8807 11.7343 7.93102 11.1032 8.35134 10.7449Z" />
<path fill-rule="evenodd" clip-rule="evenodd" d="M23 4.45459C25.7614 4.45459 28 6.69317 28 9.45459L28 18.9091C28 21.6706 25.7614 23.9091 23 23.9091L7 23.9091C4.23858 23.9091 2 21.6706 2 18.9091L2 9.45459C2 6.69316 4.23857 4.45459 7 4.45459L11.16 4.45459C11.7123 4.45459 12.16 4.9023 12.16 5.45459C12.16 6.00687 11.7123 6.45459 11.16 6.45459L7 6.45459C5.34314 6.45459 4 7.79773 4 9.45459L4 18.9091C4 20.566 5.34314 21.9091 7 21.9091L23 21.9091C24.6569 21.9091 26 20.566 26 18.9091L26 9.45459C26 7.79774 24.6569 6.45459 23 6.45459L19.08 6.45459C18.5277 6.45459 18.08 6.00687 18.08 5.45459C18.08 4.9023 18.5277 4.45459 19.08 4.45459L23 4.45459Z" />
</svg>
