<svg width="45" height="45" viewBox="0 0 45 45" fill="none" xmlns="http://www.w3.org/2000/svg">
<g clip-path="url(#clip0_7587_54704)">
<path d="M22.5 43.1875C27.9867 43.1875 33.2486 41.0079 37.1283 37.1283C41.0079 33.2486 43.1875 27.9867 43.1875 22.5C43.1875 17.0133 41.0079 11.7514 37.1283 7.87173C33.2486 3.99207 27.9867 1.8125 22.5 1.8125C17.0133 1.8125 11.7514 3.99207 7.87173 7.87173C3.99207 11.7514 1.8125 17.0133 1.8125 22.5C1.8125 27.9867 3.99207 33.2486 7.87173 37.1283C11.7514 41.0079 17.0133 43.1875 22.5 43.1875ZM37.7028 37.7028C33.6708 41.7348 28.2022 44 22.5 44C16.7978 44 11.3292 41.7348 7.2972 37.7028C3.26517 33.6708 1 28.2022 1 22.5C1 16.7978 3.26517 11.3292 7.2972 7.2972C11.3292 3.26517 16.7978 1 22.5 1C28.2022 1 33.6708 3.26517 37.7028 7.2972C41.7348 11.3292 44 16.7978 44 22.5C44 28.2022 41.7348 33.6708 37.7028 37.7028Z" fill="#ACFFC5" stroke="#ACFFC5" stroke-width="2"/>
<path d="M20.187 28.9472C19.67 28.4302 19.67 27.5918 20.187 27.0748L21.086 26.1758L21.9473 27.0371C22.4643 27.5542 22.4642 28.3924 21.9472 28.9095C21.5945 29.2622 21.0922 29.3743 20.6444 29.2457C20.4777 29.1812 20.3215 29.0817 20.187 28.9472ZM18.8257 27.6602L13.8877 22.7217C13.3707 22.2047 13.3708 21.3664 13.8878 20.8494C14.4049 20.3323 15.2432 20.3323 15.7603 20.8494L20.379 25.4686L19.4799 26.3677C19.1156 26.732 18.8975 27.1871 18.8257 27.6602ZM33.2464 17.7602L23.3177 27.689C23.2568 27.1922 23.0357 26.7114 22.6544 26.33L21.7931 25.4687L25.7805 21.4813L31.374 15.8878C31.8911 15.3707 32.7294 15.3707 33.2464 15.8878C33.7635 16.4048 33.7635 17.2432 33.2464 17.7602Z" fill="#ACFFC5" stroke="#ACFFC5"/>
</g>
<defs>
<clipPath id="clip0_7587_54704">
<rect width="45" height="45" fill="white"/>
</clipPath>
</defs>
</svg>
