<svg width="45" height="45" viewBox="0 0 45 45" fill="none" xmlns="http://www.w3.org/2000/svg">
<g clip-path="url(#clip0_7587_54708)">
<path d="M22.5 43.1875C27.9867 43.1875 33.2486 41.0079 37.1283 37.1283C41.0079 33.2486 43.1875 27.9867 43.1875 22.5C43.1875 17.0133 41.0079 11.7514 37.1283 7.87173C33.2486 3.99207 27.9867 1.8125 22.5 1.8125C17.0133 1.8125 11.7514 3.99207 7.87173 7.87173C3.99207 11.7514 1.8125 17.0133 1.8125 22.5C1.8125 27.9867 3.99207 33.2486 7.87173 37.1283C11.7514 41.0079 17.0133 43.1875 22.5 43.1875ZM37.7028 37.7028C33.6708 41.7348 28.2022 44 22.5 44C16.7978 44 11.3292 41.7348 7.2972 37.7028C3.26517 33.6708 1 28.2022 1 22.5C1 16.7978 3.26517 11.3292 7.2972 7.2972C11.3292 3.26517 16.7978 1 22.5 1C28.2022 1 33.6708 3.26517 37.7028 7.2972C41.7348 11.3292 44 16.7978 44 22.5C44 28.2022 41.7348 33.6708 37.7028 37.7028Z" fill="#FF815E" stroke="#FF815E" stroke-width="2"/>
<path d="M13.4225 13.4234L13.4225 13.4234L13.4234 13.4225C13.5076 13.3381 13.6076 13.2711 13.7177 13.2255C13.8278 13.1798 13.9458 13.1562 14.065 13.1562C14.1842 13.1562 14.3023 13.1798 14.4123 13.2255C14.5224 13.2711 14.6225 13.3381 14.7066 13.4225L14.707 13.4229L22.1489 20.8676L22.5025 21.2213L22.8561 20.8676L30.2979 13.4229C30.298 13.4229 30.298 13.4229 30.298 13.4229C30.3823 13.3386 30.4824 13.2717 30.5925 13.2261C30.7027 13.1805 30.8208 13.157 30.94 13.157C31.0593 13.157 31.1773 13.1805 31.2875 13.2261C31.3977 13.2717 31.4978 13.3386 31.5821 13.4229C31.6664 13.5073 31.7333 13.6074 31.7789 13.7175C31.8245 13.8277 31.848 13.9458 31.848 14.065C31.848 14.1843 31.8245 14.3023 31.7789 14.4125C31.7333 14.5226 31.6664 14.6227 31.5821 14.707C31.5821 14.707 31.5821 14.7071 31.5821 14.7071L24.1375 22.1489L23.7837 22.5025L24.1375 22.8561L31.5821 30.2979C31.5821 30.298 31.5821 30.298 31.5821 30.298C31.6664 30.3823 31.7333 30.4824 31.7789 30.5925C31.8245 30.7027 31.848 30.8208 31.848 30.94C31.848 31.0593 31.8245 31.1773 31.7789 31.2875C31.7333 31.3977 31.6664 31.4978 31.5821 31.5821L31.9356 31.9356L31.5821 31.5821C31.4978 31.6664 31.3977 31.7333 31.2875 31.7789C31.1773 31.8245 31.0593 31.848 30.94 31.848C30.8208 31.848 30.7027 31.8245 30.5925 31.7789C30.4824 31.7333 30.3823 31.6664 30.298 31.5821C30.298 31.5821 30.298 31.5821 30.2979 31.5821L22.8561 24.1375L22.5025 23.7837L22.1489 24.1375L14.7071 31.5821C14.7071 31.5821 14.707 31.5821 14.707 31.5821C14.6227 31.6664 14.5226 31.7333 14.4125 31.7789C14.3023 31.8245 14.1843 31.848 14.065 31.848C13.9458 31.848 13.8277 31.8245 13.7175 31.7789C13.6074 31.7333 13.5073 31.6664 13.4229 31.5821C13.3386 31.4978 13.2717 31.3977 13.2261 31.2875C13.1805 31.1773 13.157 31.0593 13.157 30.94C13.157 30.8208 13.1805 30.7027 13.2261 30.5925C13.2717 30.4824 13.3386 30.3823 13.4229 30.2979L20.8676 22.8561L21.2213 22.5025L20.8676 22.1489L13.4229 14.707L13.4225 14.7066C13.3381 14.6225 13.2711 14.5224 13.2255 14.4123C13.1798 14.3023 13.1562 14.1842 13.1562 14.065C13.1562 13.9458 13.1798 13.8278 13.2255 13.7177C13.2711 13.6076 13.3381 13.5076 13.4225 13.4234Z" fill="#FF815E" stroke="#FF815E"/>
</g>
<defs>
<clipPath id="clip0_7587_54708">
<rect width="45" height="45" fill="white"/>
</clipPath>
</defs>
</svg>
