<svg viewBox="0 0 25 24" fill="#000" xmlns="http://www.w3.org/2000/svg">
<path d="M11.1611 16.2991L12.2894 17.4274C12.5367 17.6858 12.8812 17.8284 13.2389 17.8205H14.5739V18.9488L14.5737 18.9486C14.5737 19.355 14.7352 19.7443 15.0224 20.0317C15.3096 20.3189 15.6992 20.4802 16.1053 20.4802H17.2336V21.8125H17.2334C17.2346 22.164 17.3728 22.501 17.6189 22.7519L18.5047 23.6377V23.6375C18.7395 23.8704 19.0571 24.0007 19.3878 24H22.9051C23.196 23.9993 23.4748 23.8836 23.6805 23.6777C23.8861 23.4721 24.002 23.1933 24.0027 22.9025V19.3852C24.0036 19.0519 23.8713 18.7319 23.6351 18.4969L16.299 11.1609C16.9282 9.36774 16.9296 7.41423 16.3031 5.62016C15.6764 3.82618 14.4591 2.29815 12.8504 1.28669C11.2418 0.275044 9.3372 -0.159925 7.44873 0.0526597C5.56054 0.265249 3.80038 1.11294 2.45682 2.45682C1.11294 3.80038 0.265246 5.56054 0.0526616 7.44873C-0.159928 9.33711 0.275041 11.2417 1.28669 12.8504C2.29816 14.4591 3.82618 15.6764 5.62016 16.3031C7.41414 16.9296 9.36769 16.9282 11.1609 16.299L11.1611 16.2991ZM3.54195 3.53675C5.05252 2.02423 7.18247 1.30315 9.30143 1.58698C11.4202 1.87097 13.2852 3.12708 14.3444 4.98391C15.4036 6.84093 15.5357 9.08556 14.7016 11.0538C14.6421 11.1941 14.6259 11.349 14.6551 11.4986C14.6841 11.6483 14.7573 11.7857 14.865 11.8936L22.4686 19.5V22.4686H19.5001L18.7523 21.7208L18.7521 19.9161C18.7521 19.6547 18.6483 19.4041 18.4637 19.2194C18.2789 19.0346 18.0282 18.9308 17.767 18.9308H16.1053V17.2743C16.1053 17.0129 16.0015 16.7624 15.8167 16.5776C15.6319 16.3928 15.3813 16.289 15.12 16.289H13.318L11.8938 14.8648C11.7859 14.757 11.6484 14.6839 11.4987 14.6548C11.3491 14.6256 11.1942 14.6419 11.0539 14.7013C9.0858 15.5337 6.84226 15.4005 4.98634 14.3411C3.13055 13.2818 1.87515 11.4174 1.59137 9.29954C1.30756 7.18148 2.02793 5.0524 3.53936 3.54188L3.54195 3.53675ZM6.74786 9.55832C7.49264 9.55832 8.20679 9.26258 8.73328 8.73592C9.25977 8.20942 9.55568 7.49528 9.55568 6.75068C9.55568 6.00591 9.25976 5.29176 8.73328 4.76527C8.20679 4.23859 7.49264 3.94287 6.74786 3.94287C6.00327 3.94287 5.28912 4.23861 4.76245 4.76527C4.23595 5.29176 3.94023 6.00591 3.94023 6.75068C3.94023 7.49528 4.23597 8.20942 4.76245 8.73592C5.28912 9.26259 6.00327 9.55832 6.74786 9.55832ZM6.74786 5.49477C7.08633 5.49477 7.41091 5.6292 7.65039 5.86867C7.88969 6.10797 8.02411 6.43254 8.02411 6.77102C8.02411 7.10949 7.88969 7.43407 7.65039 7.67354C7.41092 7.91284 7.08634 8.04726 6.74786 8.04726C6.4094 8.04726 6.08481 7.91284 5.84552 7.67354C5.60604 7.43407 5.47162 7.10949 5.47162 6.77102C5.47091 6.43219 5.60516 6.10692 5.84463 5.86689C6.08392 5.62707 6.40904 5.49228 6.74784 5.49228L6.74786 5.49477Z"/>
</svg>
