<svg version="1.1" id="Camada_1" xmlns="http://www.w3.org/2000/svg" xmlns:xlink="http://www.w3.org/1999/xlink" x="0px" y="0px"
	 viewBox="0 0 30 24" style="enable-background:new 0 0 30 24;" xml:space="preserve">
<path class="icon-color" d="M25.5,0H4.5C2,0,0,2.1,0,4.6v14.8C0,21.9,2,24,4.5,24h20.9c2.5,0,4.5-2.1,4.5-4.6V4.6C30,2.1,28,0,25.5,0z
	 M4.5,1.8h20.9c0.9,0,1.7,0.5,2.2,1.2c-0.1,0-0.2,0.1-0.3,0.1l-12.6,7.7L2.6,3.2C2.5,3.1,2.4,3.1,2.3,3C2.8,2.3,3.6,1.8,4.5,1.8z
	 M28.2,19.4c0,1.5-1.2,2.8-2.7,2.8H4.5c-1.5,0-2.7-1.2-2.7-2.8V5.1l12.4,7.8c0.3,0.2,0.8,0.2,1.1,0L28.2,5V19.4z"/>
</svg>