<svg width="30" height="24" viewBox="0 0 30 24" fill="none" xmlns="http://www.w3.org/2000/svg">
<path fill-rule="evenodd" clip-rule="evenodd" d="M14.8914 4.61538C14.8914 2.06638 16.9578 0 19.5068 0H22.3846C24.9336 0 27 2.06638 27 4.61538V19.3846C27 21.9336 24.9336 24 22.3846 24H19.5068C16.9578 24 14.8914 21.9336 14.8914 19.3846V12.8434H6.18642L10.7587 17.317C11.1231 17.6735 11.1294 18.2579 10.7729 18.6223C10.4164 18.9867 9.83196 18.9931 9.46757 18.6366L3.27752 12.5801C3.10004 12.4065 3 12.1686 3 11.9203C3 11.672 3.10004 11.4342 3.27752 11.2605L9.46757 5.20407C9.83196 4.84754 10.4164 4.85391 10.7729 5.21831C11.1294 5.5827 11.1231 6.16713 10.7587 6.52366L6.18642 10.9972H14.8914V4.61538ZM16.7376 12.8434H21.19C21.6998 12.8434 22.1131 12.4301 22.1131 11.9203C22.1131 11.4105 21.6998 10.9972 21.19 10.9972H16.7376V4.61538C16.7376 3.08598 17.9774 1.84615 19.5068 1.84615H22.3846C23.914 1.84615 25.1538 3.08598 25.1538 4.61538V19.3846C25.1538 20.914 23.914 22.1538 22.3846 22.1538H19.5068C17.9774 22.1538 16.7376 20.914 16.7376 19.3846V12.8434Z" fill="#9146FF"/>
</svg>
