<svg width="24" height="24" viewBox="0 0 24 24" fill="none" xmlns="http://www.w3.org/2000/svg">
<path fill-rule="evenodd" clip-rule="evenodd" d="M11.8914 4.61538C11.8914 2.06638 13.9578 0 16.5068 0H19.3846C21.9336 0 24 2.06638 24 4.61538V19.3846C24 21.9336 21.9336 24 19.3846 24H16.5068C13.9578 24 11.8914 21.9336 11.8914 19.3846V12.8434H3.18642L7.75868 17.317C8.12307 17.6735 8.12945 18.2579 7.77292 18.6223C7.41639 18.9867 6.83196 18.9931 6.46757 18.6366L0.277522 12.5801C0.100038 12.4065 0 12.1686 0 11.9203C0 11.672 0.100038 11.4342 0.277522 11.2605L6.46757 5.20407C6.83196 4.84754 7.41639 4.85391 7.77292 5.21831C8.12945 5.5827 8.12307 6.16713 7.75868 6.52366L3.18642 10.9972H11.8914V4.61538ZM13.7376 12.8434H18.19C18.6998 12.8434 19.1131 12.4301 19.1131 11.9203C19.1131 11.4105 18.6998 10.9972 18.19 10.9972H13.7376V4.61538C13.7376 3.08598 14.9774 1.84615 16.5068 1.84615H19.3846C20.914 1.84615 22.1538 3.08598 22.1538 4.61538V19.3846C22.1538 20.914 20.914 22.1538 19.3846 22.1538H16.5068C14.9774 22.1538 13.7376 20.914 13.7376 19.3846V12.8434Z" fill="black"/>
</svg>
