<svg width="30" height="24" viewBox="0 0 30 24" fill="none" xmlns="http://www.w3.org/2000/svg">
<path d="M14.97 17.928C14.8689 17.8319 14.8689 17.6762 14.97 17.5802L15.764 16.8261L16.558 16.072C16.6591 15.976 16.8231 15.976 16.9242 16.072C17.0253 16.1681 17.0253 16.3238 16.9242 16.4198L15.3362 17.928C15.2351 18.024 15.0711 18.024 14.97 17.928Z" />
<path d="M15.3202 17.9229C15.2191 18.0189 15.0552 18.0189 14.9541 17.9229L14.0758 17.0887C13.9747 16.9926 13.9747 16.837 14.0758 16.7409C14.177 16.6449 14.3409 16.6449 14.442 16.7409L15.3203 17.5751C15.4214 17.6712 15.4214 17.8269 15.3202 17.9229Z" />
<path fill-rule="evenodd" clip-rule="evenodd" d="M11.6137 6.12011H17.7862C18.4177 6.12011 18.9297 6.73405 18.9297 7.49138V17.0528H19.3437C19.7595 17.0528 20.0966 16.6893 20.0966 16.2408V6.38299C20.0966 5.93456 19.7595 5.57103 19.3437 5.57103H12.3264C11.9874 5.57103 11.7136 5.80757 11.6137 6.12011ZM18.9245 18.0271C18.8697 18.7232 18.381 19.2678 17.7862 19.2678H10.1435C9.51197 19.2678 9 18.6538 9 17.8965V7.49138C9 6.73405 9.51197 6.12011 10.1435 6.12011H10.6868C10.8028 5.28267 11.4702 4.59668 12.3264 4.59668H19.3437C20.2585 4.59668 21 5.39644 21 6.38299V16.2408C21 17.2274 20.2585 18.0271 19.3437 18.0271H18.9245ZM18.072 12.6939V17.8965C18.072 18.0858 17.944 18.2393 17.7862 18.2393H10.1435C9.98562 18.2393 9.85763 18.0858 9.85763 17.8965V7.49138C9.85763 7.30205 9.98562 7.14856 10.1435 7.14856H17.7862C17.944 7.14856 18.072 7.30205 18.072 7.49138V12.6939Z" />
<path fill-rule="evenodd" clip-rule="evenodd" d="M11 10.5C11 10.2239 11.2066 10 11.4615 10L16.5385 10C16.7934 10 17 10.2239 17 10.5C17 10.7761 16.7934 11 16.5385 11L11.4615 11C11.2066 11 11 10.7761 11 10.5Z" />
<path fill-rule="evenodd" clip-rule="evenodd" d="M11 12.5C11 12.2239 11.2066 12 11.4615 12L16.5385 12C16.7934 12 17 12.2239 17 12.5C17 12.7761 16.7934 13 16.5385 13L11.4615 13C11.2066 13 11 12.7761 11 12.5Z" />
<path fill-rule="evenodd" clip-rule="evenodd" d="M11 14.5C11 14.2239 11.2066 14 11.4615 14L16.5385 14C16.7934 14 17 14.2239 17 14.5C17 14.7761 16.7934 15 16.5385 15L11.4615 15C11.2066 15 11 14.7761 11 14.5Z" />
<path fill-rule="evenodd" clip-rule="evenodd" d="M11 8.5C11 8.22386 11.2066 8 11.4615 8L16.5385 8C16.7934 8 17 8.22386 17 8.5C17 8.77614 16.7934 9 16.5385 9L11.4615 9C11.2066 9 11 8.77614 11 8.5Z" />
<path fill-rule="evenodd" clip-rule="evenodd" d="M23.5261 21.7865C24.228 21.7865 24.7704 21.229 24.7704 20.5739C24.7704 19.9188 24.228 19.3614 23.5261 19.3614C22.8242 19.3614 22.2817 19.9188 22.2817 20.5739C22.2817 21.229 22.8242 21.7865 23.5261 21.7865ZM23.5261 22.9149C24.8363 22.9149 25.8984 21.8668 25.8984 20.5739C25.8984 19.281 24.8363 18.233 23.5261 18.233C22.2159 18.233 21.1538 19.281 21.1538 20.5739C21.1538 21.8668 22.2159 22.9149 23.5261 22.9149Z" />
<path d="M20.3361 18.6045C20.4769 18.3266 20.8175 18.213 21.0969 18.3509L21.7827 18.6893C22.0621 18.8271 22.1744 19.1642 22.0335 19.4421L21.8539 19.7966C21.7131 20.0745 21.3724 20.1881 21.0931 20.0503L20.4072 19.7118C20.1279 19.574 20.0156 19.2369 20.1564 18.959L20.3361 18.6045Z" />
<path d="M23.4666 17.001C23.7775 16.983 24.0446 17.2206 24.0631 17.5316L24.1072 18.2748C24.1256 18.5858 23.8885 18.8526 23.5776 18.8705L23.0042 18.9037C22.6932 18.9217 22.4262 18.6841 22.4077 18.373L22.3636 17.6299C22.3451 17.3188 22.5823 17.0521 22.8932 17.0341L23.4666 17.001Z" />
<path d="M26.3088 18.315C26.5189 18.5451 26.5004 18.8994 26.2676 19.1064L25.7008 19.6104C25.468 19.8175 25.109 19.7988 24.8989 19.5687L24.6448 19.2905C24.4347 19.0604 24.4531 18.7061 24.6859 18.4991L25.2528 17.9951C25.4856 17.788 25.8446 17.8067 26.0547 18.0368L26.3088 18.315Z" />
<path d="M26.9272 21.3866C26.8828 21.695 26.5968 21.9101 26.2884 21.8669L25.7429 21.7905C25.4344 21.7474 25.2203 21.4623 25.2646 21.1539L25.3316 20.6876C25.3759 20.3791 25.6619 20.1641 25.9704 20.2073L26.5159 20.2836C26.8244 20.3268 27.0385 20.6118 26.9942 20.9203L26.9272 21.3866Z" />
<path d="M25.0609 23.6776C24.7897 23.8309 24.443 23.7366 24.2867 23.4672L23.9636 22.9106C23.8073 22.6411 23.9003 22.2984 24.1715 22.1451L24.5275 21.9439C24.7988 21.7907 25.1454 21.8849 25.3018 22.1544L25.6248 22.711C25.7812 22.9805 25.6881 23.3232 25.4169 23.4764L25.0609 23.6776Z" />
<path d="M22.1601 23.8475C21.8664 23.7438 21.7144 23.4223 21.8206 23.1293L22.0551 22.4825C22.1613 22.1895 22.4855 22.0361 22.7792 22.1398L23.1194 22.2599C23.4132 22.3636 23.5652 22.6851 23.459 22.9781L23.2245 23.6249C23.1183 23.9179 22.7941 24.0713 22.5004 23.9676L22.1601 23.8475Z" />
<path d="M20.0195 21.5333C19.9385 21.2324 20.1172 20.9245 20.4185 20.8456L21.2811 20.6196C21.5825 20.5406 21.8924 20.7205 21.9733 21.0214L22.0859 21.44C22.1669 21.7409 21.9883 22.0488 21.687 22.1278L20.8243 22.3538C20.523 22.4328 20.2131 22.2528 20.1321 21.9519L20.0195 21.5333Z" />
<path fill-rule="evenodd" clip-rule="evenodd" d="M15.2581 2.04302C9.59397 2.04302 5.04302 6.52316 5.04302 12C5.04302 17.4768 9.59397 21.957 15.2581 21.957C16.0239 21.957 16.7689 21.875 17.4846 21.72C18.036 21.6006 18.5798 21.9507 18.6992 22.5021C18.8186 23.0535 18.4685 23.5973 17.9171 23.7167C17.06 23.9023 16.1701 24 15.2581 24C8.51066 24 3 18.6497 3 12C3 5.35033 8.51066 0 15.2581 0C22.0056 0 27.5162 5.35033 27.5162 12C27.5162 13.4689 27.2462 14.8782 26.7513 16.1812C26.5511 16.7087 25.9611 16.9739 25.4337 16.7736C24.9063 16.5733 24.6411 15.9834 24.8414 15.456C25.2498 14.3804 25.4732 13.2167 25.4732 12C25.4732 6.52316 20.9223 2.04302 15.2581 2.04302Z" />
</svg>
