<svg width="24" height="25" viewBox="0 0 24 25" fill="none" xmlns="http://www.w3.org/2000/svg">
<path d="M12.5105 5.38689V6.22573C13.054 6.28269 13.5187 6.3966 13.9048 6.56748C14.2959 6.73835 14.6362 6.99725 14.9257 7.34417C15.1543 7.60825 15.3295 7.8801 15.4514 8.15971C15.5784 8.43932 15.6419 8.69563 15.6419 8.92864C15.6419 9.18754 15.5479 9.41278 15.36 9.60437C15.1771 9.79078 14.9537 9.88398 14.6895 9.88398C14.1917 9.88398 13.8692 9.60955 13.7219 9.06068C13.5543 8.41343 13.1505 7.98366 12.5105 7.77136V11.0024C13.1403 11.1785 13.6406 11.339 14.0114 11.484C14.3873 11.629 14.7225 11.8387 15.0171 12.1131C15.3321 12.3979 15.5733 12.7396 15.741 13.1383C15.9137 13.5319 16 13.9642 16 14.4354C16 15.0257 15.8629 15.5798 15.5886 16.0976C15.3194 16.6102 14.9206 17.0296 14.3924 17.3558C13.8641 17.682 13.2368 17.8762 12.5105 17.9383V19.8723C12.5105 20.1778 12.48 20.4005 12.419 20.5403C12.3632 20.6801 12.2362 20.75 12.0381 20.75C11.8552 20.75 11.7257 20.693 11.6495 20.5791C11.5784 20.4652 11.5429 20.2892 11.5429 20.051V17.9539C10.9486 17.8866 10.4279 17.7442 9.98095 17.5267C9.53905 17.3092 9.16825 17.04 8.86857 16.7189C8.57397 16.3927 8.35556 16.0561 8.21333 15.7092C8.07111 15.3571 8 15.0128 8 14.6762C8 14.4277 8.09397 14.205 8.2819 14.0083C8.47492 13.8063 8.71365 13.7053 8.9981 13.7053C9.22667 13.7053 9.41968 13.7597 9.57714 13.8684C9.7346 13.9772 9.84381 14.1299 9.90476 14.3267C10.0419 14.7513 10.1613 15.0775 10.2629 15.3053C10.3644 15.528 10.5168 15.7325 10.72 15.9189C10.9283 16.1053 11.2025 16.2477 11.5429 16.3461V12.7345C10.8622 12.5429 10.2933 12.3306 9.83619 12.0976C9.37905 11.8594 9.00825 11.5228 8.72381 11.0879C8.43937 10.6529 8.29714 10.0937 8.29714 9.41019C8.29714 8.51958 8.57397 7.78948 9.12762 7.2199C9.68635 6.65032 10.4914 6.31893 11.5429 6.22573V5.40243C11.5429 4.96748 11.7029 4.75 12.0229 4.75C12.3479 4.75 12.5105 4.9623 12.5105 5.38689ZM11.5429 10.715V7.74029C11.1162 7.86974 10.7835 8.04061 10.5448 8.25291C10.306 8.46521 10.1867 8.78625 10.1867 9.21602C10.1867 9.62508 10.2984 9.93576 10.5219 10.1481C10.7454 10.3552 11.0857 10.5442 11.5429 10.715ZM12.5105 13.0218V16.4238C13.0235 16.3202 13.4197 16.1105 13.699 15.7947C13.9784 15.4788 14.1181 15.1112 14.1181 14.6917C14.1181 14.2413 13.981 13.8943 13.7067 13.651C13.4375 13.4024 13.0387 13.1927 12.5105 13.0218Z" fill="#9146FF"/>
<path d="M12 23.5C18.0751 23.5 23 18.5751 23 12.5C23 6.42487 18.0751 1.5 12 1.5C5.92487 1.5 1 6.42487 1 12.5C1 18.5751 5.92487 23.5 12 23.5Z" stroke="#9146FF" stroke-width="2" stroke-linecap="round" stroke-linejoin="round"/>
</svg>
