<svg viewBox="0 0 18 18" fill="currentColor" xmlns="http://www.w3.org/2000/svg">
<g clip-path="url(#clip0_7310_52742)">
<path d="M16.8888 7.12402H1.21154C1.07294 7.12402 0.940025 7.17908 0.842024 7.27708C0.744022 7.37508 0.688965 7.508 0.688965 7.6466L0.688965 17.053C0.688965 17.1915 0.744022 17.3245 0.842024 17.4225C0.940025 17.5205 1.07294 17.5755 1.21154 17.5755H16.8888C17.0274 17.5755 17.1603 17.5205 17.2583 17.4225C17.3563 17.3245 17.4114 17.1915 17.4114 17.053V7.6466C17.4114 7.508 17.3563 7.37508 17.2583 7.27708C17.1603 7.17908 17.0274 7.12402 16.8888 7.12402ZM16.3662 16.5304H1.73412V8.16917H16.3662V16.5304Z"/>
<path d="M2.77917 14.4397C3.05626 14.4401 3.32191 14.5503 3.51785 14.7462C3.71378 14.9421 3.824 15.2078 3.82432 15.4849C3.82432 15.6235 3.87937 15.7564 3.97738 15.8544C4.07538 15.9524 4.2083 16.0075 4.34689 16.0075H13.7532C13.8918 16.0075 14.0248 15.9524 14.1228 15.8544C14.2208 15.7564 14.2758 15.6235 14.2758 15.4849C14.2761 15.2078 14.3864 14.9421 14.5823 14.7462C14.7782 14.5503 15.0439 14.4401 15.321 14.4397C15.4596 14.4397 15.5925 14.3847 15.6905 14.2867C15.7885 14.1887 15.8435 14.0558 15.8435 13.9172V10.7817C15.8435 10.6431 15.7885 10.5102 15.6905 10.4122C15.5925 10.3142 15.4596 10.2591 15.321 10.2591C15.0439 10.2588 14.7782 10.1486 14.5823 9.95266C14.3864 9.75673 14.2761 9.49108 14.2758 9.21398C14.2758 9.07539 14.2208 8.94247 14.1228 8.84447C14.0248 8.74646 13.8918 8.69141 13.7532 8.69141H4.34689C4.2083 8.69141 4.07538 8.74646 3.97738 8.84447C3.87937 8.94247 3.82432 9.07539 3.82432 9.21398C3.824 9.49108 3.71378 9.75673 3.51785 9.95266C3.32191 10.1486 3.05626 10.2588 2.77917 10.2591C2.64057 10.2591 2.50765 10.3142 2.40965 10.4122C2.31165 10.5102 2.25659 10.6431 2.25659 10.7817V13.9172C2.25659 14.0558 2.31165 14.1887 2.40965 14.2867C2.50765 14.3847 2.64057 14.4397 2.77917 14.4397ZM3.30174 11.2382C3.66295 11.1441 3.99252 10.9553 4.25644 10.6913C4.52036 10.4274 4.70907 10.0978 4.8031 9.73656H13.297C13.3911 10.0978 13.5798 10.4274 13.8437 10.6913C14.1076 10.9553 14.4372 11.1441 14.7984 11.2382V13.4607C14.4372 13.5548 14.1076 13.7436 13.8437 14.0075C13.5798 14.2715 13.3911 14.6011 13.297 14.9623H4.8031C4.70907 14.6011 4.52036 14.2715 4.25644 14.0075C3.99252 13.7436 3.66295 13.5548 3.30174 13.4607V11.2382Z"/>
<path d="M9.05015 14.4394C9.92943 14.4394 10.6179 13.5213 10.6179 12.3491C10.6179 11.1768 9.92943 10.2588 9.05015 10.2588C8.17086 10.2588 7.48242 11.1768 7.48242 12.3491C7.48242 13.5213 8.17086 14.4394 9.05015 14.4394ZM9.05015 11.3039C9.26346 11.3039 9.57272 11.7112 9.57272 12.3491C9.57272 12.987 9.26346 13.3942 9.05015 13.3942C8.83683 13.3942 8.52757 12.987 8.52757 12.3491C8.52757 11.7112 8.83683 11.3039 9.05015 11.3039Z"/>
<path d="M12.1857 12.8723C12.4743 12.8723 12.7082 12.6383 12.7082 12.3497C12.7082 12.0611 12.4743 11.8271 12.1857 11.8271C11.8971 11.8271 11.6631 12.0611 11.6631 12.3497C11.6631 12.6383 11.8971 12.8723 12.1857 12.8723Z"/>
<path d="M5.91467 12.8723C6.20328 12.8723 6.43724 12.6383 6.43724 12.3497C6.43724 12.0611 6.20328 11.8271 5.91467 11.8271C5.62605 11.8271 5.39209 12.0611 5.39209 12.3497C5.39209 12.6383 5.62605 12.8723 5.91467 12.8723Z"/>
<path d="M7.32922 3.83508L8.52748 2.63687V6.0785C8.52748 6.21709 8.58254 6.35001 8.68054 6.44801C8.77854 6.54601 8.91146 6.60107 9.05006 6.60107C9.18865 6.60107 9.32157 6.54601 9.41957 6.44801C9.51758 6.35001 9.57263 6.21709 9.57263 6.0785V2.63687L10.7709 3.83508C10.8695 3.93027 11.0015 3.98294 11.1385 3.98175C11.2755 3.98056 11.4066 3.9256 11.5035 3.82871C11.6003 3.73182 11.6553 3.60076 11.6565 3.46374C11.6577 3.32672 11.605 3.19472 11.5098 3.09616L9.41999 1.00628C9.32173 0.908442 9.18872 0.853516 9.05006 0.853516C8.9114 0.853516 8.77839 0.908442 8.68013 1.00628L6.5903 3.09616C6.49511 3.19472 6.44243 3.32672 6.44362 3.46374C6.44481 3.60076 6.49977 3.73182 6.59666 3.82871C6.69355 3.9256 6.82462 3.98056 6.96164 3.98175C7.09866 3.98294 7.23066 3.93027 7.32922 3.83508Z"/>
</g>
<defs>
<clipPath id="clip0_7310_52742">
<rect width="16.7224" height="16.7224" transform="translate(0.688965 0.852539)"/>
</clipPath>
</defs>
</svg>
