<svg viewBox="0 0 20 20" fill="currentColor" xmlns="http://www.w3.org/2000/svg">
<g clip-path="url(#clip0_7310_52757)">
<path d="M18.6726 0.689453H1.42762C1.27516 0.689453 1.12895 0.750016 1.02115 0.857818C0.913346 0.96562 0.852783 1.11183 0.852783 1.26429L0.852783 11.6113C0.852783 11.7637 0.913346 11.9099 1.02115 12.0177C1.12895 12.1255 1.27516 12.1861 1.42762 12.1861H18.6726C18.8251 12.1861 18.9713 12.1255 19.0791 12.0177C19.1869 11.9099 19.2474 11.7637 19.2474 11.6113V1.26429C19.2474 1.11183 19.1869 0.96562 19.0791 0.857818C18.9713 0.750016 18.8251 0.689453 18.6726 0.689453V0.689453ZM18.0978 11.0364H2.00245V1.83912H18.0978V11.0364Z"/>
<path d="M3.1521 8.73722C3.45691 8.73757 3.74912 8.85881 3.96465 9.07434C4.18018 9.28987 4.30142 9.58209 4.30177 9.88689C4.30177 10.0393 4.36233 10.1856 4.47013 10.2934C4.57794 10.4012 4.72415 10.4617 4.8766 10.4617H15.2236C15.376 10.4617 15.5223 10.4012 15.6301 10.2934C15.7379 10.1856 15.7984 10.0393 15.7984 9.88689C15.7988 9.58209 15.92 9.28987 16.1355 9.07434C16.3511 8.85881 16.6433 8.73757 16.9481 8.73722C17.1005 8.73722 17.2468 8.67666 17.3546 8.56886C17.4624 8.46106 17.5229 8.31485 17.5229 8.16239V4.71339C17.5229 4.56094 17.4624 4.41473 17.3546 4.30693C17.2468 4.19912 17.1005 4.13856 16.9481 4.13856C16.6433 4.13821 16.3511 4.01697 16.1355 3.80145C15.92 3.58592 15.7988 3.2937 15.7984 2.9889C15.7984 2.83644 15.7379 2.69023 15.6301 2.58243C15.5223 2.47463 15.376 2.41406 15.2236 2.41406H4.8766C4.72415 2.41406 4.57794 2.47463 4.47013 2.58243C4.36233 2.69023 4.30177 2.83644 4.30177 2.9889C4.30142 3.2937 4.18018 3.58592 3.96465 3.80145C3.74912 4.01697 3.45691 4.13821 3.1521 4.13856C2.99965 4.13856 2.85344 4.19912 2.74564 4.30693C2.63783 4.41473 2.57727 4.56094 2.57727 4.71339V8.16239C2.57727 8.31485 2.63783 8.46106 2.74564 8.56886C2.85344 8.67666 2.99965 8.73722 3.1521 8.73722ZM3.72694 5.21551C4.12427 5.112 4.48679 4.90436 4.7771 4.614C5.06741 4.32364 5.27499 3.96108 5.37843 3.56373H14.7218C14.8252 3.96108 15.0328 4.32364 15.3231 4.614C15.6134 4.90436 15.9759 5.112 16.3733 5.21551V7.66027C15.9759 7.76378 15.6134 7.97143 15.3231 8.26179C15.0328 8.55215 14.8252 8.9147 14.7218 9.31206H5.37843C5.27499 8.9147 5.06741 8.55215 4.7771 8.26179C4.48679 7.97143 4.12427 7.76378 3.72694 7.66027V5.21551Z"/>
<path d="M10.0501 8.73733C11.0173 8.73733 11.7746 7.72747 11.7746 6.438C11.7746 5.14854 11.0173 4.13867 10.0501 4.13867C9.08285 4.13867 8.32556 5.14854 8.32556 6.438C8.32556 7.72747 9.08285 8.73733 10.0501 8.73733ZM10.0501 5.28834C10.2847 5.28834 10.6249 5.7363 10.6249 6.438C10.6249 7.1397 10.2847 7.58767 10.0501 7.58767C9.81541 7.58767 9.47523 7.1397 9.47523 6.438C9.47523 5.7363 9.81541 5.28834 10.0501 5.28834Z"/>
<path d="M13.4991 7.01295C13.8166 7.01295 14.074 6.75559 14.074 6.43811C14.074 6.12064 13.8166 5.86328 13.4991 5.86328C13.1817 5.86328 12.9243 6.12064 12.9243 6.43811C12.9243 6.75559 13.1817 7.01295 13.4991 7.01295Z"/>
<path d="M6.60108 7.01295C6.91855 7.01295 7.17591 6.75559 7.17591 6.43811C7.17591 6.12064 6.91855 5.86328 6.60108 5.86328C6.28361 5.86328 6.02625 6.12064 6.02625 6.43811C6.02625 6.75559 6.28361 7.01295 6.60108 7.01295Z"/>
<path d="M11.943 15.8033L10.6249 17.1214V13.3356C10.6249 13.1831 10.5644 13.0369 10.4566 12.9291C10.3487 12.8213 10.2025 12.7607 10.0501 12.7607C9.89763 12.7607 9.75142 12.8213 9.64362 12.9291C9.53581 13.0369 9.47525 13.1831 9.47525 13.3356V17.1214L8.15716 15.8033C8.04874 15.6986 7.90354 15.6407 7.75282 15.642C7.6021 15.6433 7.45793 15.7038 7.35135 15.8103C7.24477 15.9169 7.18431 16.0611 7.18301 16.2118C7.1817 16.3625 7.23964 16.5077 7.34435 16.6161L9.64316 18.915C9.75124 19.0226 9.89756 19.0831 10.0501 19.0831C10.2026 19.0831 10.3489 19.0226 10.457 18.915L12.7558 16.6161C12.8605 16.5077 12.9185 16.3625 12.9172 16.2118C12.9159 16.0611 12.8554 15.9169 12.7488 15.8103C12.6422 15.7038 12.4981 15.6433 12.3473 15.642C12.1966 15.6407 12.0514 15.6986 11.943 15.8033Z"/>
</g>
<defs>
<clipPath id="clip0_7310_52757">
<rect width="18.3946" height="18.3946" transform="translate(0.852783 0.689453)"/>
</clipPath>
</defs>
</svg>
