<svg width="30" height="24" viewBox="0 0 30 24" fill="none" xmlns="http://www.w3.org/2000/svg">
<path fill-rule="evenodd" clip-rule="evenodd" d="M4.54545 0C2.03507 0 0 2.06638 0 4.61539V19.3846C0 21.9336 2.03507 24 4.54545 24H25.4545C27.9649 24 30 21.9336 30 19.3846V4.61538C30 2.06638 27.9649 0 25.4545 0H4.54545ZM2.30624 3.0341C2.79899 2.31604 3.61818 1.84615 4.54545 1.84615H25.4545C26.3818 1.84615 27.201 2.31604 27.6938 3.03411C27.5962 3.0594 27.5009 3.09896 27.411 3.15349L14.7745 10.8127L2.60345 3.1624C2.50939 3.10328 2.40909 3.06076 2.30624 3.0341ZM1.81818 5.05616V19.3846C1.81818 20.914 3.03922 22.1538 4.54545 22.1538H25.4545C26.9608 22.1538 28.1818 20.914 28.1818 19.3846V5.04852L15.3162 12.8466C14.9736 13.0543 14.537 13.0508 14.198 12.8377L1.81818 5.05616Z" fill="#9146FF"/>
</svg>
