<svg width="25" height="24" viewBox="0 0 25 24" fill="none" xmlns="http://www.w3.org/2000/svg">
<path fill-rule="evenodd" clip-rule="evenodd" d="M0 4.61539C0 2.06638 2.07276 0 4.62963 0H20.3704C22.9272 0 25 2.06638 25 4.61538V19.3846C25 21.9336 22.9272 24 20.3704 24H4.62963C2.07276 24 0 21.9336 0 19.3846V4.61539ZM4.62963 1.84615C3.09551 1.84615 1.85185 3.08598 1.85185 4.61539V19.3846C1.85185 20.914 3.09551 22.1538 4.62963 22.1538H20.3704C21.9045 22.1538 23.1481 20.914 23.1481 19.3846V4.61538C23.1481 3.08598 21.9045 1.84615 20.3704 1.84615H4.62963ZM4.12719 6.98901C4.12719 6.47921 4.54174 6.06593 5.05312 6.06593H20.3058C20.8171 6.06593 21.2317 6.47921 21.2317 6.98901C21.2317 7.49881 20.8171 7.91209 20.3058 7.91209H5.05312C4.54174 7.91209 4.12719 7.49881 4.12719 6.98901ZM4.12719 12C4.12719 11.4902 4.54174 11.0769 5.05312 11.0769H20.3058C20.8171 11.0769 21.2317 11.4902 21.2317 12C21.2317 12.5098 20.8171 12.9231 20.3058 12.9231H5.05312C4.54174 12.9231 4.12719 12.5098 4.12719 12ZM4.12719 17.011C4.12719 16.5012 4.54174 16.0879 5.05312 16.0879H16.7088C17.2201 16.0879 17.6347 16.5012 17.6347 17.011C17.6347 17.5208 17.2201 17.9341 16.7088 17.9341H5.05312C4.54174 17.9341 4.12719 17.5208 4.12719 17.011Z" fill="black"/>
</svg>
