<svg width="35" height="35" viewBox="0 0 35 35" fill="none" xmlns="http://www.w3.org/2000/svg">
<path d="M10.8906 14.7812L17.8906 21.7812L24.8906 14.7813" stroke="#6A6A6A" stroke-width="3" stroke-linecap="round" stroke-linejoin="round"/>
<path d="M17.5 1.1875C13.1737 1.1875 9.02451 2.90613 5.96532 5.96532C2.90614 9.0245 1.1875 13.1737 1.1875 17.5C1.1875 21.8263 2.90614 25.9755 5.96532 29.0347C9.02451 32.0939 13.1737 33.8125 17.5 33.8125C21.8263 33.8125 25.9755 32.0939 29.0347 29.0347C32.0939 25.9755 33.8125 21.8263 33.8125 17.5C33.8125 13.1737 32.0939 9.02451 29.0347 5.96532C25.9755 2.90613 21.8263 1.1875 17.5 1.1875ZM5.83274 5.83274C8.92709 2.73838 13.1239 0.999998 17.5 0.999998C21.8761 0.999999 26.0729 2.73838 29.1673 5.83274C32.2616 8.92709 34 13.1239 34 17.5C34 21.8761 32.2616 26.0729 29.1673 29.1673C26.0729 32.2616 21.8761 34 17.5 34C13.1239 34 8.92709 32.2616 5.83274 29.1673C2.73839 26.0729 1 21.8761 1 17.5C1 13.1239 2.73839 8.92708 5.83274 5.83274Z" stroke="#6A6A6A" stroke-width="2"/>
</svg>
