<svg width="55" height="74" viewBox="0 0 55 74" fill="none" xmlns="http://www.w3.org/2000/svg">
<rect y="23.9668" width="8.25" height="13.75" rx="4.125" fill="#326BF6"/>
<rect x="46.75" y="23.9668" width="8.25" height="13.75" rx="4.125" fill="#326BF6"/>
<path d="M1.62693 26.8055C1.67287 28.1855 2.82877 29.2669 4.20872 29.221C5.58867 29.175 6.6701 28.0191 6.62416 26.6392L1.62693 26.8055ZM48.375 26.721C48.375 28.1017 49.4943 29.221 50.875 29.221C52.2557 29.221 53.375 28.1017 53.375 26.721H48.375ZM6.62416 26.6392C6.2815 16.3448 8.00304 11.4703 12.4999 8.09761L9.49991 4.09761C2.99661 8.9751 1.26771 16.0137 1.62693 26.8055L6.62416 26.6392ZM12.4999 8.09761C13.3924 7.42822 15.2328 6.73551 17.9608 6.23504C20.5954 5.75171 23.7489 5.50095 26.9851 5.50007C30.2187 5.49918 33.4686 5.7478 36.2919 6.23469C39.1705 6.7311 41.3894 7.4395 42.7136 8.23416L45.2864 3.94685C43.1731 2.67872 40.2357 1.84099 37.1416 1.30742C33.9923 0.764316 30.4531 0.499114 26.9837 0.500066C23.5167 0.501016 20.053 0.767759 17.0586 1.31711C14.1577 1.84931 11.3574 2.70446 9.49991 4.09761L12.4999 8.09761ZM42.7136 8.23416C43.8176 8.89665 44.8336 10.1853 45.6986 12.0888C46.5501 13.9626 47.1478 16.1955 47.5574 18.4079C47.9643 20.6059 48.17 22.6964 48.2731 24.2439C48.3245 25.0149 48.35 25.6444 48.3626 26.0768C48.369 26.2929 48.372 26.4593 48.3736 26.5691C48.3743 26.624 48.3747 26.6646 48.3748 26.6903C48.3749 26.7031 48.375 26.7121 48.375 26.7173C48.375 26.7199 48.375 26.7215 48.375 26.7221C48.375 26.7224 48.375 26.7225 48.375 26.7223C48.375 26.7222 48.375 26.7219 48.375 26.7218C48.375 26.7215 48.375 26.721 50.875 26.721C53.375 26.721 53.375 26.7204 53.375 26.7198C53.375 26.7195 53.375 26.7188 53.375 26.7182C53.375 26.717 53.375 26.7156 53.375 26.7139C53.375 26.7105 53.375 26.7062 53.375 26.7008C53.3749 26.6901 53.3749 26.6754 53.3747 26.6568C53.3745 26.6197 53.374 26.5672 53.3731 26.5002C53.3712 26.3662 53.3676 26.174 53.3605 25.9307C53.3463 25.4444 53.3181 24.7522 53.262 23.9114C53.1503 22.2353 52.9263 19.9417 52.4739 17.4977C52.0241 15.0682 51.3327 12.4014 50.2506 10.0202C49.182 7.6687 47.6199 5.34713 45.2864 3.94685L42.7136 8.23416Z" fill="#326BF6"/>
<path d="M4.125 33.5918H22" stroke="#326BF6" stroke-width="4" stroke-linecap="round" stroke-linejoin="round"/>
<rect x="19.25" y="29.4668" width="13.75" height="8.25" rx="4.125" fill="#326BF6"/>
<path fill-rule="evenodd" clip-rule="evenodd" d="M10.6921 21.3336C10.9399 13.5769 16.9712 9.11133 24.7396 9.11133H31.3366C39.2837 9.11133 44.9143 14.325 44.9143 22.2641V33.6124V34.1669C44.1923 37.2922 41.4112 42.2494 35.1803 45.9705C35.536 46.0832 36.5179 46.2216 36.8859 46.3356C40.1612 47.3508 43.6797 48.3505 46.262 49.0551C48.3454 49.6235 48.8865 51.5132 48.8865 53.6846V64.4308C48.8865 68.1357 46.7967 70.2224 43.0881 70.2224H15.2683C11.5596 70.2224 9.77539 68.1357 9.77539 64.4308V53.6846C9.77539 51.2978 10.2598 49.6185 12.2952 49.0805C14.6184 48.4665 18.8827 47.213 21.9976 45.9705C20.9252 45.3176 18.9616 44.5861 17.9072 43.7837C14.8136 41.4296 11.6972 38.0735 10.6921 33.9314V33.6124V21.9447V21.3336ZM27.9803 49.3567C24.3614 50.911 18.3293 53.3549 14.309 54.491V64.4308C14.309 64.96 14.7385 65.3891 15.2683 65.3891H43.0881C43.6179 65.3891 44.0474 64.96 44.0474 64.4308V54.4105C41.5058 53.7104 38.2474 52.778 35.1803 51.8274C32.5261 51.0047 29.8848 50.1293 27.9803 49.3567ZM28.1375 43.1708C36.207 40.5602 39.3096 35.1539 39.9703 32.9168V22.2641C39.9703 17.5006 36.1049 13.6391 31.3366 13.6391H24.7396C20.0785 13.6391 16.259 17.335 16.1103 21.989L16.1082 22.0551L16.2236 32.8928C16.8465 34.9905 18.7376 37.1874 21.395 39.2096C23.6975 40.9618 26.249 42.3353 28.1375 43.1708Z" fill="#326BF6"/>
</svg>
