<svg width="11" height="13" viewBox="0 0 11 13" fill="none" xmlns="http://www.w3.org/2000/svg">
<path fill-rule="evenodd" clip-rule="evenodd" d="M1.82834 5.05119H1.27273C0.569819 5.05119 0 5.56921 0 6.20822V11.5702C0 12.2093 0.569819 12.7273 1.27273 12.7273H9.54545C10.2484 12.7273 10.8182 12.2093 10.8182 11.5702V6.20822C10.8182 5.56921 10.2484 5.05119 9.54545 5.05119H9.05437C9.10076 4.23045 9.02908 3.21093 8.69629 2.30556C8.47986 1.71675 8.13977 1.14031 7.61078 0.707192C7.06903 0.263625 6.36413 2.75858e-06 5.49563 0C4.63183 -2.75854e-06 3.92554 0.255192 3.37622 0.687538C2.83858 1.11069 2.48443 1.67663 2.25315 2.26051C1.89243 3.17114 1.79859 4.20584 1.82834 5.05119ZM3.10175 5.05119H7.77978C7.82693 4.33028 7.76796 3.4307 7.48917 2.67225C7.31681 2.20332 7.07372 1.82458 6.75904 1.56693C6.45713 1.31974 6.05786 1.15703 5.49563 1.15702C4.92869 1.15702 4.52045 1.31736 4.20926 1.56228C3.88638 1.81641 3.63402 2.18947 3.4506 2.65252C3.15286 3.40418 3.07162 4.30493 3.10175 5.05119ZM1.27273 6.20822V11.5702H9.54545V6.20822H1.27273Z" fill="#084C4F"/>
</svg>
