<svg version="1.1" id="Camada_1" xmlns="http://www.w3.org/2000/svg" xmlns:xlink="http://www.w3.org/1999/xlink" x="0px" y="0px"
	 viewBox="0 0 26 24" style="enable-background:new 0 0 26 24;" xml:space="preserve">
<g>
	<path class="icon-color" d="M15.8,21.3c-5.5,1.4-11.1-1.7-12.6-6.8c-1-3.7,0.3-7.5,3.3-9.9C6.7,4.9,7,5.2,7.4,5.3C7.9,5.4,8.4,5,8.5,4.5
		l0.3-1.7c0.1-0.5-0.2-1-0.7-1.1L6.2,1C5.7,0.9,5.1,1.2,4.9,1.7C4.8,2.2,5,2.7,5.5,2.9C1.7,5.7,0,10.5,1.3,15
		c1.5,5.2,6.4,8.6,11.9,8.6c1,0,2.1-0.1,3.2-0.4c0.5-0.1,0.9-0.7,0.7-1.2C16.9,21.5,16.4,21.1,15.8,21.3z"/>
	<path class="icon-color" d="M8,15c0,1.1,0.9,2,2,2h6c1.1,0,2-0.9,2-2v-3.6c0-0.9-0.6-1.7-1.5-1.9c0-1.2-0.3-2.5-1-3.4
		C14.9,5.4,14,5,13.1,5c-1,0-1.8,0.4-2.4,1.1C9.9,6.9,9.6,8.2,9.5,9.4C8.7,9.6,8,10.4,8,11.4V15z M12.1,7.4C12.4,7.1,12.7,7,13.1,7
		c0.4,0,0.7,0.1,0.9,0.4c0.4,0.4,0.5,1.2,0.6,2h-3C11.6,8.6,11.7,7.8,12.1,7.4z M10,11.4h5.5H16V15h-6V11.4z"/>
	<path class="icon-color" d="M20.8,21L20.8,21c3.5-2.9,5.1-7.5,3.9-11.9c-1.8-6.2-8.5-9.9-15-8.2C9.1,0.9,8.8,1.5,9,2
		c0.1,0.5,0.7,0.9,1.2,0.7c5.5-1.4,11.1,1.7,12.6,6.8c1,3.7-0.3,7.5-3.4,9.9l0-0.2c0-0.6-0.4-1-0.9-1.1c-0.6,0-1,0.4-1.1,0.9
		l-0.1,2.1c0,0.5,0.3,0.9,0.7,1l2.2,0.6c0.1,0,0.1,0,0.2,0c0.5,0,0.9-0.3,1-0.7C21.6,21.6,21.3,21.1,20.8,21z"/>
</g>
</svg>