<svg width="30" height="24" viewBox="0 0 30 24" stroke="current" fill="current" xmlns="http://www.w3.org/2000/svg">
<path d="M18.0755 22.2431C12.0628 23.7658 5.88249 20.3933 4.2714 14.7103C2.92839 9.97305 5.1844 5.12566 9.45528 2.76155" stroke="current" stroke-width="2" stroke-linecap="round" stroke-linejoin="round"/>
<path d="M11.921 1.75721C17.9337 0.234466 24.114 3.60699 25.7251 9.28995C27.0728 14.0437 24.7963 18.9084 20.4965 21.2634"  stroke="current" stroke-width="2" stroke-linecap="round" stroke-linejoin="round"/>
<path d="M12.5701 10.3657C12.3963 8.87313 12.6743 5.99999 15.0725 6C17.4707 6.00001 17.6793 8.94776 17.4707 10.3657M12.5701 10.3657H12C11.4477 10.3657 11 10.8134 11 11.3657V15C11 15.5523 11.4477 16 12 16H18C18.5523 16 19 15.5523 19 15V11.3657C19 10.8134 18.5523 10.3657 18 10.3657H17.4707M12.5701 10.3657H15.0204H17.4707" stroke="current" stroke-width="2" stroke-linejoin="round"/>
<path d="M10 4C10 4 10 3.06676 10 2.28571L8 2" stroke="current" stroke-width="2" stroke-linecap="round" stroke-linejoin="round"/>
<path d="M20.2168 19.407L20.2168 21.5064L22.4877 21.97" stroke="current" stroke-width="2" stroke-linecap="round" stroke-linejoin="round"/>
</svg>
