<svg width="30" height="24" viewBox="0 0 30 24" fill="none" xmlns="http://www.w3.org/2000/svg">
<path d="M18.0763 22.2431C12.0637 23.7658 5.88335 20.3933 4.27225 14.7103C2.92925 9.97305 5.18525 5.12566 9.45613 2.76155" stroke="#9146FF" stroke-width="2" stroke-linecap="round" stroke-linejoin="round"/>
<path d="M11.9201 1.75721C17.9328 0.234466 24.1131 3.60699 25.7242 9.28995C27.0719 14.0437 24.7955 18.9084 20.4957 21.2634" stroke="#9146FF" stroke-width="2" stroke-linecap="round" stroke-linejoin="round"/>
<path d="M12.5701 10.3657C12.3963 8.87313 12.6743 5.99999 15.0725 6C17.4707 6.00001 17.6793 8.94776 17.4707 10.3657M12.5701 10.3657H12C11.4477 10.3657 11 10.8134 11 11.3657V15C11 15.5523 11.4477 16 12 16H18C18.5523 16 19 15.5523 19 15V11.3657C19 10.8134 18.5523 10.3657 18 10.3657H17.4707M12.5701 10.3657H15.0204H17.4707" stroke="#9146FF" stroke-width="2" stroke-linejoin="round"/>
<path d="M10 4C10 4 10 3.06676 10 2.28571L8 2" stroke="#9146FF" stroke-width="2" stroke-linecap="round" stroke-linejoin="round"/>
<path d="M20.2174 19.407L20.2174 21.5064L22.4883 21.97" stroke="#9146FF" stroke-width="2" stroke-linecap="round" stroke-linejoin="round"/>
</svg>
