<svg version="1.1" id="Camada_1" xmlns="http://www.w3.org/2000/svg" xmlns:xlink="http://www.w3.org/1999/xlink" x="0px" y="0px"
	 viewBox="0 0 30 24" style="enable-background:new 0 0 30 24;" xml:space="preserve">
<path class="icon-color" d="M29.5,4.6c-1.2-3-3.4-4.6-6.2-4.6c0,0,0,0,0,0c-2.7,0-5.3,1.5-6.8,3.2C15,1.4,12.2-0.1,9.5,0
	C7.8,0.1,6.3,0.7,5.2,2H5.1c-2.5,0-4.5,2-4.6,4.4l0,0.1l0,3.7l0,0.1c0.3,1.3,1.4,2.4,2.3,3.1c0.3,0.3,0.7,0.5,1,0.7
	c-1,0.4-2.1,0.8-2.8,1c-0.6,0.2-1.2,0.8-1.2,1.5v3.4c0,1.2,1,2.1,2.1,2.1h8.8c0.4,0,0.8-0.1,1.1-0.3c1.3,1,3.2,2.3,4.5,2.3
	c2.4,0,7.5-4.4,10.6-9C29,12.2,30.9,8.1,29.5,4.6z M16.6,6.5c1,1.1,1.2,1.9,1,2.3c-0.2,0.4-0.7,0.6-1.2,0.5c-0.3,0-0.8-0.2-1-0.9
	C15.4,8.1,16.2,7,16.6,6.5z M2.4,9.9l0-3.4l0,0c0-1.5,1.3-2.6,2.7-2.6h2.1c1.5,0,2.7,1.2,2.7,2.7v3.4c-0.2,0.7-1.2,2.4-3.8,3.2
	c-0.6-0.3-1.4-0.7-2.1-1.3C3.2,11.2,2.6,10.5,2.4,9.9z M11.2,19.9c0,0.2-0.1,0.3-0.3,0.3H2.1c-0.2,0-0.3-0.1-0.3-0.3v-3.2
	c1.3-0.4,3.2-1.1,4.3-1.6c0.6,0.2,1.4,0.5,2.3,0.8c1,0.3,2,0.6,2.8,0.8V19.9z M25.5,13.8c-3.2,4.7-7.8,8.2-9,8.2
	c-0.4,0-1.7-0.6-3.5-2.1c0,0,0,0,0,0v-3.4c0-0.7-0.5-1.3-1.1-1.5c-0.8-0.2-1.9-0.5-3-0.9c-0.1,0-0.2-0.1-0.3-0.1
	c2-1.2,2.9-2.8,3.1-3.8l0-0.1V6.5c0-2-1.4-3.8-3.2-4.3C8.8,2.1,9.2,2,9.5,2c2.4-0.1,4.9,1.5,5.8,2.9c-0.1,0.1-0.2,0.2-0.3,0.3
	c-0.8,1-1.9,2.3-1.6,3.6c0.3,1.4,1.3,2.3,2.7,2.5c1.4,0.2,2.7-0.5,3.2-1.7c0.4-0.8,0.6-2.5-1.7-4.9C18.7,3.5,20.9,2,23.3,2
	c0,0,0,0,0,0c2,0,3.5,1.1,4.4,3.4C28.5,7.4,27.7,10.5,25.5,13.8z"/>
</svg>