<svg width="69" height="55" viewBox="0 0 69 55" fill="none" xmlns="http://www.w3.org/2000/svg">
<path fill-rule="evenodd" clip-rule="evenodd" d="M1.31216 14.1211C1.49238 8.47988 6.12219 4 11.772 4H16.5698C22.3495 4 27.0349 8.68066 27.0349 14.4545V22.7078L26.9813 22.9399C26.4562 25.2128 24.3471 29.0073 19.8156 31.7136C20.0743 31.7956 20.338 31.8782 20.6056 31.9611C22.9876 32.6994 25.5466 33.4265 27.4246 33.9389C28.9398 34.3523 30 35.7266 30 37.3058V45.1212C30 47.8157 27.8135 50 25.1163 50H4.88372C2.18652 50 0 47.8157 0 45.1212V37.426C0 35.6901 1.2412 34.3487 2.72151 33.9574C4.41107 33.5108 6.87801 32.5992 9.1434 31.6956C8.36345 31.2207 7.56979 30.6887 6.80293 30.1052C4.55304 28.3931 2.18529 25.9748 1.45427 22.9623L1.39801 22.7305L1.30778 14.2581L1.31216 14.1211ZM14.1289 34.1583C11.4969 35.2887 7.10994 37.066 4.18605 37.8923V45.1212C4.18605 45.5061 4.49841 45.8182 4.88372 45.8182H25.1163C25.5016 45.8182 25.814 45.5061 25.814 45.1212V37.8338C23.9655 37.3246 21.5958 36.6465 19.3652 35.9551C17.4349 35.3568 15.5139 34.7201 14.1289 34.1583ZM14.2431 29.6594C20.1119 27.7608 22.3683 23.829 22.8488 22.202V14.4545C22.8488 10.9902 20.0376 8.18182 16.5698 8.18182H11.772C8.38209 8.18182 5.60421 10.8697 5.49608 14.2545L5.49454 14.3025L5.57848 22.1845C6.03153 23.7101 7.40685 25.3078 9.33951 26.7786C11.0141 28.0529 12.8697 29.0518 14.2431 29.6594Z" fill="#9146FF"/>
<path d="M37.9259 11.0608C40.829 4.0682 58.722 -5.24193 65.4547 11.0608C71.8684 26.5913 44.809 52.1668 37.9259 52.1669C35.8501 52.1669 31.9391 49.8407 27.6647 46.1653M37.9259 11.0608C50.7091 22.6873 34.7861 27.3421 33.2813 19.5236C32.7049 16.5287 37.2756 12.6272 37.9259 11.0608ZM37.9259 11.0608C36.1675 6.8254 28.91 1.73979 21.9639 2.01035C18.708 2.13718 15.5206 3.44087 13 6.56063" stroke="#9146FF" stroke-width="4"/>
</svg>
