<svg width="30" height="24" viewBox="0 0 30 24" fill="current" xmlns="http://www.w3.org/2000/svg">
<g clip-path="url(#clip0_2299:6524)">
<path fill-rule="evenodd" clip-rule="evenodd" d="M0.497981 6.36408C0.57652 3.90568 2.59417 1.95337 5.05631 1.95337H7.14717C9.66595 1.95337 11.7078 3.99318 11.7078 6.50941V10.1061L11.6845 10.2073C11.4556 11.1978 10.5365 12.8514 8.56168 14.0308C8.67443 14.0665 8.78934 14.1025 8.90598 14.1387C9.94405 14.4604 11.0592 14.7773 11.8777 15.0006C12.538 15.1808 13 15.7797 13 16.4679V19.8738C13 21.048 12.0471 21.9999 10.8717 21.9999H2.05445C0.879021 21.9999 -0.0738525 21.048 -0.0738525 19.8738V16.5202C-0.0738525 15.7638 0.467058 15.1792 1.11217 15.0087C1.84847 14.814 2.92355 14.4168 3.91079 14.023C3.5709 13.816 3.22502 13.5842 2.89083 13.3299C1.91034 12.5837 0.878488 11.5299 0.55991 10.2171L0.535392 10.116L0.496073 6.42378L0.497981 6.36408ZM6.08343 15.0962C4.93644 15.5888 3.02463 16.3634 1.75041 16.7235V19.8738C1.75041 20.0415 1.88653 20.1775 2.05445 20.1775H10.8717C11.0396 20.1775 11.1757 20.0415 11.1757 19.8738V16.6979C10.3702 16.4761 9.33751 16.1806 8.3654 15.8792C7.52417 15.6185 6.68704 15.341 6.08343 15.0962ZM6.13324 13.1356C8.6908 12.3082 9.67415 10.5947 9.88356 9.8857V6.50941C9.88356 4.99967 8.65844 3.77578 7.14717 3.77578H5.05631C3.57902 3.77578 2.36843 4.94717 2.32131 6.42221L2.32064 6.44317L2.35722 9.87809C2.55466 10.5429 3.15402 11.2392 3.99626 11.8801C4.72603 12.4355 5.53468 12.8708 6.13324 13.1356Z" fill="current"/>
<path d="M16.5 4.97348C17.7731 1.90698 25.6198 -2.17585 28.5723 4.97348C31.385 11.7842 19.5184 23 16.5 23C15.5896 23 13.8745 21.9799 12 20.3681M16.5 4.97348C22.1058 10.0721 15.123 12.1134 14.4631 8.68472C14.2103 7.37134 16.2148 5.66039 16.5 4.97348ZM16.5 4.97348C15.7288 3.11611 12.5461 0.885887 9.50005 1.00454C8.07221 1.06016 6.67439 1.63187 5.56903 3" stroke="current" stroke-width="2"/>
</g>
<defs>
<clipPath id="clip0_2299:6524">
<rect width="30" height="24" fill="current"/>
</clipPath>
</defs>
</svg>
