<svg width="25" height="24" viewBox="0 0 25 24" fill="none" xmlns="http://www.w3.org/2000/svg">
<path fill-rule="evenodd" clip-rule="evenodd" d="M16.8416 0.293052C17.2321 -0.0974724 17.8653 -0.0974724 18.2558 0.293052L24.0332 6.07048C24.4238 6.461 24.4238 7.09417 24.0332 7.48469L8.35573 23.1622C8.16745 23.3505 7.91184 23.4559 7.64556 23.4551L1.88579 23.4374C1.3359 23.4358 0.890541 22.9904 0.888856 22.4405L0.871206 16.6807C0.870389 16.4145 0.975807 16.1589 1.16409 15.9706L14.6994 2.43528L14.7129 2.42147L14.7267 2.40792L16.8416 0.293052ZM2.87247 17.0906L15.4202 4.54292L19.7834 8.90613L7.23568 21.4538L6.0815 21.4503L6.08149 19.2451C6.08149 18.6929 5.63378 18.2451 5.08149 18.2451L2.87601 18.2451L2.87247 17.0906ZM2.88214 20.2451L2.8858 21.4405L4.08149 21.4442L4.08149 20.2451L2.88214 20.2451ZM21.9119 6.77758L21.1976 7.49192L16.8344 3.12871L17.5487 2.41437L21.9119 6.77758Z" fill="#ACFFC5"/>
</svg>
