<svg width="30" height="24" viewBox="0 0 30 24" fill="none" xmlns="http://www.w3.org/2000/svg">
<path fill-rule="evenodd" clip-rule="evenodd" d="M8.48005 5.06053C8.56808 2.23994 10.8298 0 13.5897 0H15.9335C18.7569 0 21.0457 2.34033 21.0457 5.22727V9.35391L21.0195 9.46993C20.763 10.6064 19.7327 12.5037 17.519 13.8568C17.6454 13.8978 17.7742 13.9391 17.905 13.9806C19.0686 14.3497 20.3187 14.7132 21.2361 14.9694C21.9763 15.1762 22.4942 15.8633 22.4942 16.6529V20.5606C22.4942 21.9078 21.4261 23 20.1085 23H10.2248C8.90717 23 7.83905 21.9078 7.83905 20.5606V16.713C7.83905 15.8451 8.44538 15.1743 9.16852 14.9787C9.99388 14.7554 11.199 14.2996 12.3056 13.8478C11.9246 13.6104 11.5369 13.3444 11.1623 13.0526C10.0632 12.1965 8.90658 10.9874 8.54947 9.48116L8.52198 9.36524L8.47791 5.12903L8.48005 5.06053ZM14.7411 15.0791C13.4553 15.6443 11.3123 16.533 9.88395 16.9461V20.5606C9.88395 20.7531 10.0365 20.9091 10.2248 20.9091H20.1085C20.2967 20.9091 20.4493 20.7531 20.4493 20.5606V16.9169C19.5463 16.6623 18.3887 16.3233 17.299 15.9776C16.356 15.6784 15.4177 15.3601 14.7411 15.0791ZM14.7969 12.8297C17.6638 11.8804 18.7661 9.91448 19.0008 9.10098V5.22727C19.0008 3.49511 17.6275 2.09091 15.9335 2.09091H13.5897C11.9337 2.09091 10.5767 3.43487 10.5239 5.12723L10.5232 5.15127L10.5642 9.09226C10.7855 9.85503 11.4573 10.6539 12.4014 11.3893C13.2195 12.0264 14.1259 12.5259 14.7969 12.8297Z" fill="#DFD2FF"/>
<path fill-rule="evenodd" clip-rule="evenodd" d="M21.5172 19.3636H27.0914C27.242 19.3636 27.3641 19.2415 27.3641 19.0909V16.2393C26.6417 16.0401 25.7156 15.7747 24.8439 15.5042C24.0895 15.2701 23.3388 15.0209 22.7975 14.8011C22.0527 15.1214 20.9482 15.5744 19.9617 15.9228L17.6091 15.1819C17.801 14.958 18.0593 14.7966 18.3395 14.7225C18.9997 14.5477 19.9638 14.191 20.8492 13.8374C20.5443 13.6516 20.2342 13.4434 19.9345 13.2151C19.3929 12.8024 18.8338 12.2848 18.4175 11.6727L19.5631 10.5L19.5725 10.4134C19.8165 10.9178 20.2952 11.4329 20.9258 11.9133C21.5802 12.412 22.3054 12.8029 22.8422 13.0406C25.1357 12.2977 26.0175 10.7592 26.2053 10.1225V7.09091C26.2053 5.7353 25.1066 4.63636 23.7514 4.63636H21.8764C21.0811 4.63636 20.3719 5.01546 19.923 5.60506L19.3573 3.86798C20.0525 3.32367 20.9277 3 21.8764 3H23.7514C26.0101 3 27.8412 4.83156 27.8412 7.09091V10.3205L27.8203 10.4112C27.6151 11.3007 26.7908 12.7855 25.0199 13.8445C25.121 13.8765 25.224 13.9088 25.3286 13.9413C26.2595 14.2302 27.2596 14.5147 27.9935 14.7152C28.5857 14.877 29 15.4148 29 16.0327V19.0909C29 20.1453 28.1455 21 27.0914 21H21.5172V19.3636Z" fill="#DFD2FF"/>
<path fill-rule="evenodd" clip-rule="evenodd" d="M8.81604 19.3636V21H2.90858C1.8545 21 1 20.1453 1 19.0909V16.0797C1 15.4005 1.48507 14.8756 2.06357 14.7225C2.72386 14.5477 3.68795 14.191 4.57327 13.8374C4.26847 13.6516 3.9583 13.4434 3.65861 13.2151C2.77934 12.5451 1.85402 11.5988 1.56833 10.42L1.54635 10.3293L1.51109 7.01403L1.5128 6.96041C1.58323 4.75299 3.39257 3 5.60052 3H7.47552C8.41344 3 9.27762 3.31581 9.96757 3.84691L9.79305 4.00002L10.2816 10.5L11.1567 11.3957C10.7268 12.1928 9.95777 13.1187 8.744 13.8445C8.84511 13.8765 8.94815 13.9088 9.05276 13.9413C9.98365 14.2302 10.9837 14.5147 11.7176 14.7152C11.9393 14.7758 12.1361 14.8891 12.2955 15.0395L9.98297 15.9271C9.5224 15.794 9.03732 15.6498 8.56798 15.5042C7.8136 15.2701 7.0629 15.0209 6.52161 14.8011C5.49303 15.2434 3.77859 15.9389 2.63592 16.2622V19.0909C2.63592 19.2415 2.75799 19.3636 2.90858 19.3636H8.81604ZM6.56627 13.0406C8.85979 12.2977 9.74162 10.7592 9.9294 10.1225V7.09091C9.9294 5.7353 8.83076 4.63636 7.47552 4.63636H5.60052C4.27575 4.63636 3.19014 5.68816 3.14789 7.01261L3.14729 7.03143L3.18009 10.1157C3.35714 10.7126 3.89462 11.3379 4.64991 11.9133C5.30435 12.412 6.02951 12.8029 6.56627 13.0406Z" fill="#DFD2FF"/>
</svg>
