<svg width="30" height="24" viewBox="0 0 30 24" fill="none" xmlns="http://www.w3.org/2000/svg">
<path fill-rule="evenodd" clip-rule="evenodd" d="M8.1967 5.28055C8.28856 2.33733 10.6486 0 13.5285 0H15.9742C18.9203 0 21.3087 2.44208 21.3087 5.45455V9.7606L21.2814 9.88166C21.0137 11.0675 19.9386 13.0473 17.6287 14.4593C17.7606 14.502 17.895 14.5451 18.0314 14.5884C19.2456 14.9736 20.55 15.3529 21.5073 15.6203C22.2797 15.836 22.8201 16.553 22.8201 17.3769V21.4545C22.8201 22.8604 21.7056 24 20.3307 24H10.0173C8.64239 24 7.52783 22.8604 7.52783 21.4545V17.4396C7.52783 16.534 8.16053 15.8341 8.9151 15.6299C9.77634 15.397 11.0339 14.9213 12.1886 14.4499C11.791 14.2021 11.3865 13.9245 10.9956 13.6201C9.84871 12.7268 8.64177 11.4651 8.26914 9.89338L8.24046 9.77242L8.19447 5.35203L8.1967 5.28055ZM14.7299 15.7347C13.3883 16.3245 11.1521 17.2518 9.66164 17.6829V21.4545C9.66164 21.6554 9.82087 21.8182 10.0173 21.8182H20.3307C20.5271 21.8182 20.6863 21.6554 20.6863 21.4545V17.6524C19.7441 17.3867 18.5362 17.033 17.3991 16.6722C16.4151 16.3601 15.436 16.0279 14.7299 15.7347ZM14.7882 13.3875C17.7797 12.3969 18.9299 10.3455 19.1749 9.49668V5.45455C19.1749 3.64707 17.7419 2.18182 15.9742 2.18182H13.5285C11.8006 2.18182 10.3845 3.58421 10.3294 5.35015L10.3286 5.37524L10.3714 9.48757C10.6024 10.2835 11.3034 11.1171 12.2886 11.8845C13.1422 12.5493 14.0881 13.0705 14.7882 13.3875Z" fill="#9146FF"/>
<path fill-rule="evenodd" clip-rule="evenodd" d="M21.8004 20.2055H27.6172C27.7743 20.2055 27.9017 20.0781 27.9017 19.9209V16.9453C27.1479 16.7374 26.1816 16.4605 25.2719 16.1782C24.4848 15.9339 23.7014 15.6739 23.1366 15.4445C22.3594 15.7787 21.2069 16.2515 20.1775 16.615L17.7227 15.8419C17.9229 15.6083 18.1924 15.4399 18.4847 15.3625C19.1737 15.1802 20.1797 14.8079 21.1035 14.439C20.7855 14.2451 20.4618 14.0278 20.1491 13.7896C19.5839 13.3589 19.0005 12.8188 18.5661 12.18L19.7614 10.9565L19.7713 10.8657C20.0258 11.3922 20.5254 11.9298 21.1835 12.4313C21.8664 12.9516 22.6231 13.3594 23.1832 13.6075C25.5764 12.8323 26.4966 11.2269 26.6926 10.5626V7.39915C26.6926 5.9846 25.5461 4.83788 24.132 4.83788H22.1755C21.3455 4.83788 20.6054 5.23355 20.137 5.84891L19.5467 4.03623C20.2721 3.46817 21.1854 3.13037 22.1755 3.13037H24.132C26.4889 3.13037 28.3996 5.04157 28.3996 7.39915V10.7691L28.3777 10.8638C28.1636 11.7919 27.3036 13.3413 25.4556 14.4463C25.5611 14.4798 25.6686 14.5135 25.7778 14.5474C26.7492 14.8488 27.7927 15.1457 28.5585 15.3549C29.1764 15.5238 29.6088 16.0849 29.6088 16.7297V19.9209C29.6088 21.0211 28.7171 21.913 27.6172 21.913H21.8004V20.2055Z" fill="#9146FF"/>
<path fill-rule="evenodd" clip-rule="evenodd" d="M8.54704 20.2055V21.913H2.38291C1.28301 21.913 0.391357 21.0211 0.391357 19.9209V16.7788C0.391357 16.07 0.897514 15.5223 1.50117 15.3625C2.19017 15.1802 3.19617 14.8079 4.11999 14.439C3.80193 14.2451 3.47828 14.0278 3.16556 13.7896C2.24806 13.0905 1.28251 12.103 0.9844 10.873L0.961458 10.7784L0.924665 7.31892L0.92645 7.26298C0.999943 4.95958 2.88796 3.13037 5.1919 3.13037H7.14842C8.12709 3.13037 9.02881 3.45989 9.74875 4.01405L9.56653 4.17391L10.0763 10.9565L10.9895 11.8913C10.541 12.723 9.73852 13.689 8.47205 14.4463C8.57756 14.4798 8.68508 14.5135 8.79423 14.5474C9.7656 14.8488 10.8091 15.1457 11.575 15.3549C11.8063 15.4181 12.0116 15.5363 12.178 15.6933L9.76489 16.6195C9.2843 16.4806 8.77812 16.3302 8.28838 16.1782C7.5012 15.9339 6.71786 15.6739 6.15303 15.4445C5.07974 15.9061 3.29076 16.6318 2.09841 16.9692V19.9209C2.09841 20.0781 2.22578 20.2055 2.38291 20.2055H8.54704ZM6.19964 13.6075C8.59287 12.8323 9.51304 11.2269 9.709 10.5626V7.39915C9.709 5.9846 8.56259 4.83788 7.14842 4.83788H5.1919C3.80953 4.83788 2.67673 5.93541 2.63263 7.31744L2.632 7.33708L2.66623 10.5554C2.85099 11.1783 3.41183 11.8307 4.19996 12.4313C4.88285 12.9516 5.63954 13.3594 6.19964 13.6075Z" fill="#9146FF"/>
</svg>
