<svg version="1.1" id="Camada_1" xmlns="http://www.w3.org/2000/svg" xmlns:xlink="http://www.w3.org/1999/xlink" x="0px" y="0px"
	 viewBox="0 0 30 24" style="enable-background:new 0 0 30 24;" xml:space="preserve">
<path class="icon-color" d="M28.6,15.4c-0.8-0.2-1.8-0.5-2.8-0.8c-0.1,0-0.2-0.1-0.3-0.1c1.8-1.1,2.7-2.7,2.9-3.6l0-0.1V7.4
	c0-2.4-1.9-4.3-4.3-4.3h-2c-0.4,0-0.9,0.1-1.3,0.2C20.1,1.4,18.2,0,16,0h-2.4c-2.2,0-4.1,1.4-4.9,3.4C8.1,3.2,7.7,3.1,7.1,3.1h-2
	C2.9,3.1,1,5,0.9,7.3l0,0.1l0,3.5l0,0.1c0.3,1.2,1.3,2.2,2.2,2.9c0.3,0.2,0.6,0.5,1,0.6c-0.9,0.4-1.9,0.7-2.6,0.9
	c-0.6,0.2-1.1,0.7-1.1,1.4v3.1c0,1.1,0.9,2,2,2h5.2C7.8,23.1,8.8,24,10,24h10.3c1.2,0,2.2-0.9,2.4-2.1h4.8c1.1,0,2-0.9,2-2v-3.2
	C29.6,16.1,29.2,15.5,28.6,15.4z M22.2,4.8h2c1.4,0,2.6,1.1,2.6,2.6v3.2c-0.2,0.7-1.1,2.3-3.5,3c-0.6-0.2-1.3-0.7-2-1.2
	c-0.3-0.2-0.5-0.4-0.8-0.7c0.5-0.7,0.7-1.4,0.8-1.9l0-0.1V5.5c0-0.1,0-0.3,0-0.4C21.6,4.9,21.9,4.8,22.2,4.8z M19.3,13.1
	c0.3,0.3,0.5,0.5,0.8,0.7c0.3,0.2,0.6,0.5,1,0.6c-0.5,0.2-1.1,0.4-1.6,0.6c-0.5-0.1-1-0.3-1.5-0.5c-0.1,0-0.3-0.1-0.4-0.1
	C18.3,14,18.9,13.6,19.3,13.1z M10.1,5.2c0.1-1.9,1.6-3.3,3.4-3.3H16c1.9,0,3.4,1.5,3.4,3.5v4.3c-0.3,0.9-1.5,3.1-4.6,4.1
	c-0.7-0.3-1.7-0.9-2.6-1.6c-1-0.8-1.8-1.7-2-2.5L10.1,5.2L10.1,5.2z M10.6,15.1c-0.6-0.2-1.2-0.3-1.8-0.5c-0.1,0-0.2-0.1-0.3-0.1
	c0.7-0.4,1.3-1,1.8-1.5c0.3,0.2,0.5,0.5,0.8,0.7c0.4,0.3,0.8,0.6,1.2,0.8C11.7,14.7,11.1,14.9,10.6,15.1z M2.7,10.6l0-3.2l0,0
	c0-1.4,1.2-2.5,2.6-2.5h2c0.4,0,0.7,0.1,1.1,0.2c0,0.1,0,0.1,0,0.2l0,0.1l0,4.4l0,0.1c0.2,0.6,0.5,1.2,0.8,1.8
	c-0.5,0.7-1.4,1.5-2.9,1.9c-0.6-0.2-1.3-0.7-2-1.2C3.4,11.8,2.9,11.2,2.7,10.6z M2.1,19.9v-3c1.2-0.3,3-1.1,4.1-1.5
	c0.5,0.2,1.2,0.4,1.9,0.7c-0.3,0.3-0.6,0.8-0.6,1.3v2.8H2.4C2.2,20.2,2.1,20.1,2.1,19.9z M20.9,21.6c0,0.2-0.2,0.4-0.4,0.4H9.8
	c-0.2,0-0.4-0.2-0.4-0.4v-3.9c1.6-0.4,3.9-1.4,5.3-2c0.7,0.3,1.8,0.7,2.8,1c1.2,0.4,2.4,0.7,3.4,1V21.6z M27.9,19.9
	c0,0.2-0.1,0.3-0.3,0.3h-4.8v-2.8c0-0.6-0.3-1.2-0.8-1.5c0.4-0.2,0.8-0.3,1.1-0.4c0.6,0.2,1.3,0.5,2.1,0.7c0.9,0.3,1.9,0.6,2.6,0.8
	V19.9z"/>
</svg>