<svg width="26" height="22" viewBox="0 0 26 22" fill="none" xmlns="http://www.w3.org/2000/svg">
<path d="M1 8.23107C1 1.76953 7.46154 1.76953 13 1.76953C18.5385 1.76953 25 1.76953 25 8.23107C25 15.6157 18.5385 7.30799 18.5385 7.30799H7.46154C7.46154 7.30799 1 15.6157 1 8.23107ZM8.38462 7.30799C8.38462 7.30799 3.76923 11.9234 3.76923 20.2311H22.2308C22.2308 11.9234 17.6154 7.30799 17.6154 7.30799H8.38462Z" stroke="#9146FF" stroke-width="2" stroke-linecap="round" stroke-linejoin="round"/>
<path d="M13.0009 17.4627C15.0401 17.4627 16.6932 15.8096 16.6932 13.7704C16.6932 11.7312 15.0401 10.0781 13.0009 10.0781C10.9617 10.0781 9.30859 11.7312 9.30859 13.7704C9.30859 15.8096 10.9617 17.4627 13.0009 17.4627Z" stroke="#9146FF" stroke-width="2" stroke-linecap="round" stroke-linejoin="round"/>
</svg>
