<svg width="30" height="24" viewBox="0 0 30 24" fill="none" xmlns="http://www.w3.org/2000/svg">
<path fill-rule="evenodd" clip-rule="evenodd" d="M23.5261 21.7865C24.228 21.7865 24.7704 21.229 24.7704 20.5739C24.7704 19.9188 24.228 19.3614 23.5261 19.3614C22.8242 19.3614 22.2817 19.9188 22.2817 20.5739C22.2817 21.229 22.8242 21.7865 23.5261 21.7865ZM23.5261 22.9149C24.8363 22.9149 25.8984 21.8668 25.8984 20.5739C25.8984 19.281 24.8363 18.233 23.5261 18.233C22.2159 18.233 21.1538 19.281 21.1538 20.5739C21.1538 21.8668 22.2159 22.9149 23.5261 22.9149Z" fill="#9146FF"/>
<path d="M20.3361 18.6045C20.4769 18.3266 20.8175 18.213 21.0969 18.3509L21.7827 18.6893C22.0621 18.8271 22.1744 19.1642 22.0335 19.4421L21.8539 19.7966C21.7131 20.0745 21.3724 20.1881 21.0931 20.0503L20.4072 19.7118C20.1279 19.574 20.0156 19.2369 20.1564 18.959L20.3361 18.6045Z" fill="#9146FF"/>
<path d="M23.4666 17.001C23.7775 16.983 24.0446 17.2206 24.0631 17.5316L24.1072 18.2748C24.1256 18.5858 23.8885 18.8526 23.5776 18.8705L23.0042 18.9037C22.6932 18.9217 22.4262 18.6841 22.4077 18.373L22.3636 17.6299C22.3451 17.3188 22.5823 17.0521 22.8932 17.0341L23.4666 17.001Z" fill="#9146FF"/>
<path d="M26.3088 18.315C26.5189 18.5451 26.5004 18.8994 26.2676 19.1064L25.7008 19.6104C25.468 19.8175 25.109 19.7988 24.8989 19.5687L24.6448 19.2905C24.4347 19.0604 24.4531 18.7061 24.6859 18.4991L25.2528 17.9951C25.4856 17.788 25.8446 17.8067 26.0547 18.0368L26.3088 18.315Z" fill="#9146FF"/>
<path d="M26.9272 21.3866C26.8828 21.695 26.5968 21.9101 26.2884 21.8669L25.7429 21.7905C25.4344 21.7474 25.2203 21.4623 25.2646 21.1539L25.3316 20.6876C25.3759 20.3791 25.6619 20.1641 25.9704 20.2073L26.5159 20.2836C26.8244 20.3268 27.0385 20.6118 26.9942 20.9203L26.9272 21.3866Z" fill="#9146FF"/>
<path d="M25.0609 23.6776C24.7897 23.8309 24.443 23.7366 24.2867 23.4672L23.9636 22.9106C23.8073 22.6411 23.9003 22.2984 24.1715 22.1451L24.5275 21.9439C24.7988 21.7907 25.1454 21.8849 25.3018 22.1544L25.6248 22.711C25.7812 22.9805 25.6881 23.3232 25.4169 23.4764L25.0609 23.6776Z" fill="#9146FF"/>
<path d="M22.1601 23.8475C21.8664 23.7438 21.7144 23.4223 21.8206 23.1293L22.0551 22.4825C22.1613 22.1895 22.4855 22.0361 22.7792 22.1398L23.1194 22.2599C23.4132 22.3636 23.5652 22.6851 23.459 22.9781L23.2245 23.6249C23.1183 23.9179 22.7941 24.0713 22.5004 23.9676L22.1601 23.8475Z" fill="#9146FF"/>
<path d="M20.0195 21.5333C19.9385 21.2324 20.1172 20.9245 20.4185 20.8456L21.2811 20.6196C21.5825 20.5406 21.8924 20.7205 21.9733 21.0214L22.0859 21.44C22.1669 21.7409 21.9883 22.0488 21.687 22.1278L20.8243 22.3538C20.523 22.4328 20.2131 22.2528 20.1321 21.9519L20.0195 21.5333Z" fill="#9146FF"/>
<path fill-rule="evenodd" clip-rule="evenodd" d="M15.2581 2.04302C9.59397 2.04302 5.04302 6.52316 5.04302 12C5.04302 17.4768 9.59397 21.957 15.2581 21.957C16.0239 21.957 16.7689 21.875 17.4846 21.72C18.036 21.6006 18.5798 21.9507 18.6992 22.5021C18.8186 23.0535 18.4685 23.5973 17.9171 23.7167C17.06 23.9023 16.1701 24 15.2581 24C8.51066 24 3 18.6497 3 12C3 5.35033 8.51066 0 15.2581 0C22.0056 0 27.5162 5.35033 27.5162 12C27.5162 13.4689 27.2462 14.8782 26.7513 16.1812C26.5511 16.7087 25.9611 16.9739 25.4337 16.7736C24.9063 16.5733 24.6411 15.9834 24.8414 15.456C25.2498 14.3804 25.4732 13.2167 25.4732 12C25.4732 6.52316 20.9223 2.04302 15.2581 2.04302Z" fill="#9146FF"/>
<path fill-rule="evenodd" clip-rule="evenodd" d="M10.4374 7.30035C10.4975 5.46083 12.0407 4 13.924 4H15.5233C17.4498 4 19.0116 5.5263 19.0116 7.40909V10.1004L18.9938 10.176C18.8187 10.9172 18.1157 12.1546 16.6052 13.0371C16.6914 13.0638 16.7793 13.0907 16.8685 13.1178C17.6625 13.3585 18.5155 13.5956 19.1415 13.7627C19.6466 13.8975 20 14.3456 20 14.8606V17.4091C20 18.2877 19.2712 19 18.3721 19H11.6279C10.7288 19 10 18.2877 10 17.4091V14.8998C10 14.3337 10.4137 13.8963 10.9072 13.7687C11.4704 13.6231 12.2927 13.3258 13.0478 13.0312C12.7878 12.8763 12.5233 12.7028 12.2676 12.5126C11.5177 11.9543 10.7284 11.1657 10.4848 10.1834L10.466 10.1078L10.4359 7.34502L10.4374 7.30035ZM14.7096 13.8342C13.8323 14.2028 12.37 14.7824 11.3953 15.0518V17.4091C11.3953 17.5346 11.4995 17.6364 11.6279 17.6364H18.3721C18.5005 17.6364 18.6047 17.5346 18.6047 17.4091V15.0327C17.9885 14.8667 17.1986 14.6456 16.4551 14.4201C15.8116 14.225 15.1713 14.0174 14.7096 13.8342ZM14.7477 12.3672C16.704 11.7481 17.4561 10.466 17.6163 9.93542V7.40909C17.6163 6.27942 16.6792 5.36364 15.5233 5.36364H13.924C12.794 5.36364 11.8681 6.24013 11.832 7.34384L11.8315 7.35952L11.8595 9.92973C12.0105 10.4272 12.469 10.9482 13.1132 11.4278C13.6714 11.8433 14.2899 12.1691 14.7477 12.3672Z" fill="#9146FF"/>
</svg>
