<svg version="1.1" id="Camada_1" xmlns="http://www.w3.org/2000/svg" xmlns:xlink="http://www.w3.org/1999/xlink" x="0px" y="0px"
	 viewBox="0 0 28 24" style="enable-background:new 0 0 28 24;" xml:space="preserve">
<g>
	<path class="icon-color" d="M23,24H5c-2.8,0-5-2.2-5-5V5c0-2.8,2.2-5,5-5h18c2.8,0,5,2.2,5,5v14C28,21.8,25.8,24,23,24z M5,2
		C3.3,2,2,3.3,2,5v14c0,1.7,1.3,3,3,3h18c1.7,0,3-1.3,3-3V5c0-1.7-1.3-3-3-3H5z"/>
</g>
<g>
	<path class="icon-color" d="M22.1,19H20c-0.6,0-1-0.4-1-1s0.4-1,1-1h2.1c0.6,0,1,0.4,1,1S22.7,19,22.1,19z M16.7,19H10c-0.6,0-1-0.4-1-1
		s0.4-1,1-1h6.7c0.6,0,1,0.4,1,1S17.2,19,16.7,19z M6.5,19H6c-0.6,0-1-0.4-1-1s0.4-1,1-1h0.5c0.6,0,1,0.4,1,1S7.1,19,6.5,19z
		 M22.1,16H20c-0.6,0-1-0.4-1-1s0.4-1,1-1h2.1c0.6,0,1,0.4,1,1S22.7,16,22.1,16z M16.7,16H10c-0.6,0-1-0.4-1-1s0.4-1,1-1h6.7
		c0.6,0,1,0.4,1,1S17.2,16,16.7,16z M6.5,16H6c-0.6,0-1-0.4-1-1s0.4-1,1-1h0.5c0.6,0,1,0.4,1,1S7.1,16,6.5,16z M22.1,13H20
		c-0.6,0-1-0.4-1-1s0.4-1,1-1h2.1c0.6,0,1,0.4,1,1S22.7,13,22.1,13z M16,13h-6c-0.6,0-1-0.4-1-1s0.4-1,1-1h6c0.6,0,1,0.4,1,1
		S16.6,13,16,13z M6.5,13H6c-0.6,0-1-0.4-1-1s0.4-1,1-1h0.5c0.6,0,1,0.4,1,1S7.1,13,6.5,13z M22.1,10H20c-0.6,0-1-0.4-1-1s0.4-1,1-1
		h2.1c0.6,0,1,0.4,1,1S22.7,10,22.1,10z M16.7,10H10c-0.6,0-1-0.4-1-1s0.4-1,1-1h6.7c0.6,0,1,0.4,1,1S17.2,10,16.7,10z M6.5,10H6
		c-0.6,0-1-0.4-1-1s0.4-1,1-1h0.5c0.6,0,1,0.4,1,1S7.1,10,6.5,10z M22.1,6.5H10.3c-0.6,0-1-0.4-1-1s0.4-1,1-1h11.8c0.6,0,1,0.4,1,1
		S22.7,6.5,22.1,6.5z M7.5,6.5H6c-0.6,0-1-0.4-1-1s0.4-1,1-1h1.5c0.6,0,1,0.4,1,1S8.1,6.5,7.5,6.5z"/>
</g>
</svg>