<svg width="26" height="26" viewBox="0 0 26 26" fill="none" xmlns="http://www.w3.org/2000/svg">
<path fill-rule="evenodd" clip-rule="evenodd" d="M17.1886 4.29865C17.7991 4.62103 17.9337 5.40831 17.5377 5.97382C17.1417 6.53933 16.3652 6.66586 15.7419 6.3692C14.5406 5.79748 13.2013 5.5523 11.8611 5.6703C10.1032 5.82507 8.45622 6.59475 7.20977 7.84395C5.96333 9.09315 5.19729 10.7419 5.0464 12.5001C4.8955 14.2583 5.36942 16.0134 6.3848 17.4568C7.40017 18.9001 8.89196 19.9391 10.5978 20.3911C12.3036 20.8432 14.1142 20.6792 15.711 19.9282C17.3079 19.1771 18.5888 17.887 19.3284 16.2847C19.8903 15.0674 20.1125 13.7292 19.9831 12.4098L18.6937 12.6371L20.5787 8.91999L23.6214 11.7682L22.4506 11.9747C22.6645 13.7955 22.3746 15.6506 21.5982 17.3325C20.6121 19.4688 18.9042 21.189 16.7751 22.1904C14.6459 23.1918 12.2318 23.4104 9.95739 22.8077C7.68298 22.205 5.69392 20.8196 4.34009 18.8952C2.98626 16.9708 2.35437 14.6306 2.55556 12.2863C2.75675 9.94202 3.77813 7.74374 5.44006 6.07814C7.10199 4.41254 9.29801 3.3863 11.6419 3.17994C13.5686 3.0103 15.4938 3.40362 17.1886 4.29865Z" fill="#1C23BD"/>
</svg>
