<svg width="25" height="24" viewBox="0 0 25 24" fill="none" xmlns="http://www.w3.org/2000/svg">
<path fill-rule="evenodd" clip-rule="evenodd" d="M10.4201 4.95312C9.61401 4.95312 9.03685 5.47309 9.03687 6.5186V7.05933H7.80025C7.24287 7.05933 6.79102 7.59132 6.79102 8.24757V17.2639C6.79102 17.9202 7.24287 18.4522 7.80025 18.4522H14.7978C15.2562 18.4522 15.6432 18.0924 15.7662 17.5996H16.2545C17.0562 17.5996 18.0004 16.8987 18.0004 16.0341V6.5186C18.0004 5.65401 17.0562 4.95312 16.2545 4.95312H10.4201ZM15.807 16.346H16.2545C16.6189 16.346 16.9143 16.0274 16.9143 15.6344V6.81651C16.9143 6.42352 16.6189 6.10493 16.2545 6.10493H10.7062C10.2597 6.10493 10.0774 6.33109 10.0774 6.81651V7.05933H14.7978C15.3552 7.05933 15.807 7.59132 15.807 8.24757V16.346ZM14.8135 17.0739C14.8135 17.2379 14.7005 17.3709 14.5612 17.3709H8.05256C7.91321 17.3709 7.80025 17.2379 7.80025 17.0739L7.78456 8.3547C7.78456 8.19064 7.89752 8.05764 8.03687 8.05764H14.5455C14.6848 8.05764 14.7978 8.19064 14.7978 8.3547L14.8135 17.0739Z" fill="#ACFFC5"/>
<path fill-rule="evenodd" clip-rule="evenodd" d="M8.54297 11.5241C8.54297 11.2821 8.72406 11.0859 8.94745 11.0859L13.3967 11.0859C13.6201 11.0859 13.8012 11.2821 13.8012 11.5241C13.8012 11.7661 13.6201 11.9623 13.3967 11.9623L8.94745 11.9623C8.72406 11.9623 8.54297 11.7661 8.54297 11.5241Z" fill="#ACFFC5"/>
<path fill-rule="evenodd" clip-rule="evenodd" d="M8.54297 13.278C8.54297 13.036 8.72406 12.8398 8.94745 12.8398L13.3967 12.8398C13.6201 12.8398 13.8012 13.036 13.8012 13.278C13.8012 13.52 13.6201 13.7162 13.3967 13.7162L8.94745 13.7162C8.72406 13.7162 8.54297 13.52 8.54297 13.278Z" fill="#ACFFC5"/>
<path fill-rule="evenodd" clip-rule="evenodd" d="M8.54297 15.0319C8.54297 14.7899 8.72406 14.5938 8.94745 14.5938L13.3967 14.5937C13.6201 14.5937 13.8012 14.7899 13.8012 15.0319C13.8012 15.2739 13.6201 15.4701 13.3967 15.4701L8.94745 15.4701C8.72406 15.4701 8.54297 15.2739 8.54297 15.0319Z" fill="#ACFFC5"/>
<path fill-rule="evenodd" clip-rule="evenodd" d="M8.54297 9.77412C8.54297 9.53212 8.72406 9.33594 8.94745 9.33594L13.3967 9.33594C13.6201 9.33594 13.8012 9.53212 13.8012 9.77412C13.8012 10.0161 13.6201 10.2123 13.3967 10.2123L8.94745 10.2123C8.72406 10.2123 8.54297 10.0161 8.54297 9.77412Z" fill="#ACFFC5"/>
<path d="M19.819 16.3583V16.8301C20.1587 16.8621 20.4492 16.9262 20.6905 17.0223C20.9349 17.1184 21.1476 17.2641 21.3286 17.4592C21.4714 17.6078 21.581 17.7607 21.6571 17.918C21.7365 18.0752 21.7762 18.2194 21.7762 18.3505C21.7762 18.4961 21.7175 18.6228 21.6 18.7306C21.4857 18.8354 21.346 18.8879 21.181 18.8879C20.8698 18.8879 20.6683 18.7335 20.5762 18.4248C20.4714 18.0607 20.219 17.8189 19.819 17.6995V19.517C20.2127 19.616 20.5254 19.7063 20.7571 19.7879C20.9921 19.8694 21.2016 19.9874 21.3857 20.1417C21.5825 20.3019 21.7333 20.4942 21.8381 20.7184C21.946 20.9398 22 21.183 22 21.4481C22 21.7801 21.9143 22.0917 21.7429 22.383C21.5746 22.6714 21.3254 22.9073 20.9952 23.0908C20.6651 23.2743 20.273 23.3835 19.819 23.4184V23.5063C19.819 23.6782 19.8 23.8034 19.7619 23.882C19.727 23.9607 19.6476 24 19.5238 24C19.4095 24 19.3286 23.968 19.281 23.9039C19.2365 23.8398 19.2143 23.7408 19.2143 23.6068V23.4272C18.8429 23.3893 18.5175 23.3092 18.2381 23.1869C17.9619 23.0646 17.7302 22.9131 17.5429 22.7325C17.3587 22.549 17.2222 22.3597 17.1333 22.1646C17.0444 21.9665 17 21.7728 17 21.5835C17 21.4437 17.0587 21.3184 17.1762 21.2078C17.2968 21.0942 17.446 21.0374 17.6238 21.0374C17.7667 21.0374 17.8873 21.068 17.9857 21.1291C18.0841 21.1903 18.1524 21.2762 18.1905 21.3869C18.2762 21.6257 18.3508 21.8092 18.4143 21.9374C18.4778 22.0626 18.573 22.1777 18.7 22.2825C18.8302 22.3874 19.0016 22.4675 19.2143 22.5228V20.4913C18.7889 20.3835 18.4333 20.2641 18.1476 20.133C17.8619 19.999 17.6302 19.8097 17.4524 19.565C17.2746 19.3204 17.1857 19.0058 17.1857 18.6214C17.1857 18.1204 17.3587 17.7097 17.7048 17.3893C18.054 17.0689 18.5571 16.8825 19.2143 16.8301V16.367C19.2143 16.1223 19.3143 16 19.5143 16C19.7175 16 19.819 16.1194 19.819 16.3583ZM19.2143 19.3553V17.682C18.9476 17.7549 18.7397 17.851 18.5905 17.9704C18.4413 18.0898 18.3667 18.2704 18.3667 18.5121C18.3667 18.7422 18.4365 18.917 18.5762 19.0364C18.7159 19.1529 18.9286 19.2592 19.2143 19.3553ZM19.819 20.6529V22.5665C20.1397 22.5083 20.3873 22.3903 20.5619 22.2126C20.7365 22.035 20.8238 21.8282 20.8238 21.5922C20.8238 21.3388 20.7381 21.1437 20.5667 21.0068C20.3984 20.867 20.1492 20.749 19.819 20.6529Z" fill="#ACFFC5"/>
<path fill-rule="evenodd" clip-rule="evenodd" d="M12.2581 2.04302C6.59397 2.04302 2.04302 6.52316 2.04302 12C2.04302 17.4768 6.59397 21.957 12.2581 21.957C13.0239 21.957 13.7689 21.875 14.4846 21.72C15.036 21.6006 15.5798 21.9507 15.6992 22.5021C15.8186 23.0535 15.4685 23.5973 14.9171 23.7167C14.06 23.9023 13.1701 24 12.2581 24C5.51066 24 0 18.6497 0 12C0 5.35033 5.51066 0 12.2581 0C19.0056 0 24.5162 5.35033 24.5162 12C24.5162 13.4689 24.2462 14.8782 23.7513 16.1812C23.5511 16.7087 22.9611 16.9739 22.4337 16.7736C21.9063 16.5733 21.6411 15.9834 21.8414 15.456C22.2498 14.3804 22.4732 13.2167 22.4732 12C22.4732 6.52316 17.9223 2.04302 12.2581 2.04302Z" fill="#ACFFC5"/>
</svg>
