<svg width="24" height="24" viewBox="0 0 24 24" fill="none" xmlns="http://www.w3.org/2000/svg">
<path fill-rule="evenodd" clip-rule="evenodd" d="M2 12C2 6.52316 6.45512 2.04302 12 2.04302C17.5449 2.04302 22 6.52316 22 12C22 13.2167 21.7813 14.3804 21.3815 15.456C21.1854 15.9834 21.445 16.5733 21.9613 16.7736C22.4776 16.9739 23.0551 16.7087 23.2512 16.1812C23.7356 14.8782 24 13.4689 24 12C24 5.35033 18.6054 0 12 0C5.39462 0 0 5.35033 0 12C0 18.6497 5.39462 24 12 24C12.8928 24 13.7639 23.9023 14.603 23.7167C15.1428 23.5973 15.4855 23.0535 15.3686 22.5021C15.2517 21.9507 14.7194 21.6006 14.1796 21.72C13.4789 21.875 12.7497 21.957 12 21.957C6.45512 21.957 2 17.4768 2 12ZM7.77663 6.11125C7.99743 6.03481 8.19205 5.85229 8.19205 5.61863C8.19205 5.38497 8.00072 5.19114 7.77167 5.23732C6.80476 5.43228 6.07666 6.28658 6.07666 7.31094V11.5417C6.07666 12.71 7.02375 13.6571 8.19205 13.6571H9.46128V15.7975L9.46417 15.8221C9.70515 17.8704 11.456 19.0018 13.1179 18.9721C13.9559 18.9572 14.7943 18.6494 15.4235 18.0009C16.0275 17.3785 16.4073 16.4752 16.4398 15.3029C17.2888 15.1114 17.9228 14.3526 17.9228 13.4458C17.9228 12.3943 17.0704 11.5419 16.019 11.5419C14.9675 11.5419 14.1151 12.3943 14.1151 13.4458C14.1151 14.3509 14.7468 15.1085 15.5933 15.3018C15.5617 16.2873 15.2451 16.9698 14.8163 17.4116C14.3614 17.8804 13.7455 18.1146 13.1028 18.1261C11.8097 18.1492 10.5002 17.2801 10.3074 15.7471V13.6571H11.5767C12.745 13.6571 13.692 12.71 13.692 11.5417V7.31094C13.692 6.28658 12.9639 5.43228 11.997 5.23732C11.768 5.19114 11.5767 5.38497 11.5767 5.61863C11.5767 5.85229 11.7713 6.03481 11.9921 6.11125C12.489 6.28331 12.8459 6.75545 12.8459 7.31094V11.5417C12.8459 12.2427 12.2776 12.8109 11.5767 12.8109H8.19205C7.49107 12.8109 6.92281 12.2427 6.92281 11.5417V7.31094C6.92281 6.75545 7.27966 6.28331 7.77663 6.11125ZM16.019 14.5035C16.6031 14.5035 17.0767 14.0299 17.0767 13.4458C17.0767 12.8616 16.6031 12.3881 16.019 12.3881C15.4348 12.3881 14.9613 12.8616 14.9613 13.4458C14.9613 14.0299 15.4348 14.5035 16.019 14.5035ZM16 18.3365C16 17.5984 16.5762 17 17.287 17H21.663C22.3738 17 22.95 17.5984 22.95 18.3365V22.6135C22.95 23.3516 22.3738 23.95 21.663 23.95H17.287C16.5762 23.95 16 23.3516 16 22.6135V18.3365ZM17.287 17.5346C16.8605 17.5346 16.5148 17.8936 16.5148 18.3365V22.6135C16.5148 23.0564 16.8605 23.4154 17.287 23.4154H21.663C22.0894 23.4154 22.4352 23.0564 22.4352 22.6135V18.3365C22.4352 17.8936 22.0894 17.5346 21.663 17.5346H17.287ZM17.1474 19.0239C17.1474 18.8763 17.2626 18.7566 17.4048 18.7566H21.645C21.7872 18.7566 21.9024 18.8763 21.9024 19.0239C21.9024 19.1715 21.7872 19.2912 21.645 19.2912H17.4048C17.2626 19.2912 17.1474 19.1715 17.1474 19.0239ZM17.1474 20.475C17.1474 20.3274 17.2626 20.2077 17.4048 20.2077H21.645C21.7872 20.2077 21.9024 20.3274 21.9024 20.475C21.9024 20.6226 21.7872 20.7423 21.645 20.7423H17.4048C17.2626 20.7423 17.1474 20.6226 17.1474 20.475ZM17.1474 21.9261C17.1474 21.7785 17.2626 21.6588 17.4048 21.6588H20.645C20.7872 21.6588 20.9024 21.7785 20.9024 21.9261C20.9024 22.0737 20.7872 22.1934 20.645 22.1934H17.4048C17.2626 22.1934 17.1474 22.0737 17.1474 21.9261Z" />
</svg>
