<svg width="25" height="25" viewBox="0 0 25 25" fill="none" xmlns="http://www.w3.org/2000/svg">
<path d="M25 12.5C25 9.55885 23.9629 6.71188 22.0711 4.45987C20.1793 2.20786 17.554 0.695044 14.657 0.187515C11.76 -0.320014 8.77676 0.210253 6.23209 1.68504C3.68741 3.15984 1.74426 5.48469 0.744434 8.25069C-0.255397 11.0167 -0.247873 14.0467 0.765684 16.8076C1.77924 19.5686 3.73391 21.8838 6.28588 23.346C8.83785 24.8081 11.8237 25.3235 14.7181 24.8016C17.6126 24.2797 20.2304 22.7539 22.1109 20.4925L19.7082 18.4944C18.2978 20.1904 16.3345 21.3348 14.1636 21.7262C11.9927 22.1176 9.75339 21.7311 7.83941 20.6345C5.92543 19.5379 4.45943 17.8015 3.69926 15.7307C2.9391 13.66 2.93345 11.3875 3.68333 9.31302C4.4332 7.23852 5.89056 5.49488 7.79906 4.38878C9.70757 3.28269 11.945 2.88499 14.1178 3.26564C16.2905 3.64628 18.2595 4.7809 19.6783 6.4699C21.0972 8.15891 21.875 10.2941 21.875 12.5H25Z" fill="#C0A6FF"/>
</svg>
