<svg width="23" height="26" viewBox="0 0 23 26" fill="none" xmlns="http://www.w3.org/2000/svg">
<path fill-rule="evenodd" clip-rule="evenodd" d="M11.4094 0.668834C10.7444 0.534778 10.256 1.10066 10.256 1.67786C10.256 2.29603 10.7582 2.7101 11.217 2.86893C11.9484 3.12213 12.4728 3.81699 12.4728 4.63338V12.0222C12.4728 13.0531 11.637 13.8888 10.606 13.8888H4.69455C3.66353 13.8888 2.82776 13.0531 2.82776 12.0222V4.63338C2.82776 3.81699 3.35211 3.12213 4.0835 2.86893C4.54229 2.7101 5.04455 2.29603 5.04455 1.67786C5.04455 1.10066 4.55608 0.534778 3.89116 0.668834C2.04228 1.04159 0.649902 2.67449 0.649902 4.63338V12.0222C0.649902 14.2558 2.46077 16.0666 4.69455 16.0666H6.56133V19.4751L6.56879 19.5385C7.01412 23.3236 10.2527 25.4034 13.304 25.3489C14.8483 25.3213 16.4047 24.7534 17.576 23.5465C18.6548 22.4348 19.3327 20.8582 19.439 18.8629C20.9445 18.4033 22.0399 17.0037 22.0399 15.3475C22.0399 13.3178 20.3944 11.6725 18.3647 11.6725C16.335 11.6725 14.6895 13.3178 14.6895 15.3475C14.6895 16.9918 15.7692 18.3831 17.258 18.8528C17.1585 20.35 16.6534 21.37 16.013 22.0299C15.2906 22.7743 14.3069 23.1529 13.2651 23.1715C11.163 23.209 9.05954 21.804 8.73919 19.3443V16.0666H10.606C12.8397 16.0666 14.6506 14.2558 14.6506 12.0222V4.63338C14.6506 2.67449 13.2582 1.04159 11.4094 0.668834ZM16.8674 15.3475C16.8674 14.5206 17.5378 13.8503 18.3647 13.8503C19.1917 13.8503 19.862 14.5206 19.862 15.3475C19.862 16.1743 19.1917 16.8447 18.3647 16.8447C17.5378 16.8447 16.8674 16.1743 16.8674 15.3475Z" />
</svg>
