<svg viewBox="0 0 21 21" fill="currentColor" xmlns="http://www.w3.org/2000/svg">
<g clip-path="url(#clip0_7310_52699)">
<path d="M15.5227 18.2588C15.7746 18.2588 15.9788 18.0546 15.9788 17.8027C15.9788 17.5509 15.7746 17.3467 15.5227 17.3467C15.2708 17.3467 15.0667 17.5509 15.0667 17.8027C15.0667 18.0546 15.2708 18.2588 15.5227 18.2588Z"/>
<path d="M8.18007 7.76972C8.27128 7.76972 8.31689 7.76972 8.4081 7.72411C9.68508 6.99441 10.506 5.62621 10.506 4.12119V2.29693C10.506 1.52162 9.91312 0.928733 9.1378 0.928733V0.472667C9.1378 0.199028 8.95538 0.0166016 8.68174 0.0166016C8.4081 0.0166016 8.22567 0.199028 8.22567 0.472667V2.29693C8.22567 2.57057 8.4081 2.753 8.68174 2.753C8.95538 2.753 9.1378 2.57057 9.1378 2.29693V1.84086C9.41144 1.84086 9.59387 2.02329 9.59387 2.29693V4.12119C9.59387 5.26136 8.95538 6.35591 7.95203 6.90319C7.724 7.04001 7.63279 7.31365 7.76961 7.54169C7.86082 7.6785 7.99764 7.76972 8.18007 7.76972Z"/>
<path d="M17.4839 16.663C17.347 16.435 17.0734 16.3894 16.8454 16.4806C16.6173 16.6174 16.5717 16.891 16.6629 17.1191C16.7998 17.3471 16.8454 17.5751 16.8454 17.8032C16.8454 18.5785 16.2525 19.1714 15.4772 19.1714C14.7019 19.1714 14.109 18.5785 14.109 17.8032C14.109 17.0279 14.7019 16.435 15.4772 16.435C15.7508 16.435 15.9332 16.2525 15.9332 15.9789V12.7864C15.9332 11.2814 14.7019 10.05 13.1968 10.05C11.6918 10.05 10.4605 11.2814 10.4605 12.7864V14.6107C10.4605 15.614 9.63953 16.435 8.63619 16.435C7.63284 16.435 6.81193 15.614 6.81193 14.6107V8.59064C6.81193 7.95214 6.35586 7.35926 5.71737 7.26805C4.30356 6.9488 3.20901 5.62621 3.20901 4.12119V2.29693C3.20901 2.02329 3.39143 1.84086 3.66507 1.84086V2.29693C3.66507 2.57057 3.8475 2.753 4.12114 2.753C4.39478 2.753 4.5772 2.57057 4.5772 2.29693V0.472667C4.5772 0.199028 4.39478 0.0166016 4.12114 0.0166016C3.8475 0.0166016 3.66507 0.199028 3.66507 0.472667V0.928733C2.88976 0.928733 2.29688 1.52162 2.29688 2.29693V4.12119C2.29688 6.08227 3.66507 7.76972 5.58055 8.13457C5.76297 8.18018 5.9454 8.3626 5.9454 8.59064V14.6107C5.9454 16.1157 7.17678 17.3471 8.6818 17.3471C10.1868 17.3471 11.4182 16.1157 11.4182 14.6107V12.7864C11.4182 11.7831 12.2391 10.9622 13.2425 10.9622C14.2458 10.9622 15.0667 11.7831 15.0667 12.7864V15.5684C14.0178 15.7965 13.2425 16.7086 13.2425 17.8032C13.2425 19.0801 14.2458 20.0835 15.5228 20.0835C16.7998 20.0835 17.8031 19.0801 17.8031 17.8032C17.8031 17.3927 17.7119 17.0279 17.4839 16.663Z"/>
</g>
<defs>
<clipPath id="clip0_7310_52699">
<rect width="20.0669" height="20.0669" transform="translate(0.0166016 0.0166016)"/>
</clipPath>
</defs>
</svg>
