<svg width="22" height="22" viewBox="0 0 22 22" fill="none" xmlns="http://www.w3.org/2000/svg">
<path d="M10 21C13 21 11.5824 17.2716 11.5905 14.4336" stroke="#9146FF" stroke-width="1.4" stroke-linecap="round"/>
<path d="M13.127 13.0616H12.3577H10.0501C9.73137 13.0616 9.43549 12.8963 9.26847 12.6249L9.17276 12.4694C9.07577 12.3117 9.02441 12.1303 9.02441 11.9453V11.1172V10.0061V9.13001C9.02441 8.84678 9.25401 8.61719 9.53723 8.61719H10.3065H11.3321H13.3834C13.8082 8.61719 14.1526 8.96158 14.1526 9.38642V9.45052V10.2839V11.1172V11.9453C14.1526 12.1303 14.1013 12.3117 14.0043 12.4694L13.9086 12.6249C13.7415 12.8963 13.4457 13.0616 13.127 13.0616Z" fill="#9146FF"/>
<path d="M12.3577 13.0616H13.127M13.127 13.0616V13.0616C13.4457 13.0616 13.7415 12.8963 13.9086 12.6249L14.0043 12.4694C14.1013 12.3117 14.1526 12.1303 14.1526 11.9453V11.1172V10.2839V9.45052V9.38642C14.1526 8.96158 13.8082 8.61719 13.3834 8.61719V8.61719H11.3321H10.3065H9.53723V8.61719C9.25401 8.61719 9.02441 8.84678 9.02441 9.13001V10.0061V11.1172V11.9453C9.02441 12.1303 9.07577 12.3117 9.17276 12.4694L9.26847 12.6249C9.43549 12.8963 9.73137 13.0616 10.0501 13.0616V13.0616H13.127Z" stroke="#9146FF" stroke-linecap="round" stroke-linejoin="round"/>
<path d="M8 8.3329C8 8.02607 8.2296 7.77734 8.51282 7.77734H14.6667C14.9499 7.77734 15.1795 8.02607 15.1795 8.3329C15.1795 8.63972 14.9499 8.88845 14.6667 8.88845H8.51282C8.2296 8.88845 8 8.63972 8 8.3329Z" fill="#9146FF"/>
<path fill-rule="evenodd" clip-rule="evenodd" d="M8.51282 7.77734C8.2296 7.77734 8 8.02607 8 8.3329C8 8.63972 8.2296 8.88845 8.51282 8.88845H14.6667C14.9499 8.88845 15.1795 8.63972 15.1795 8.3329C15.1795 8.02607 14.9499 7.77734 14.6667 7.77734H8.51282Z" fill="#9146FF"/>
<path d="M9.53906 5.55556C9.53906 5.24873 9.76866 5 10.0519 5C10.3351 5 10.5647 5.24873 10.5647 5.55556V7.22222H9.53906V5.55556Z" fill="#9146FF"/>
<path fill-rule="evenodd" clip-rule="evenodd" d="M10.0519 5C9.76866 5 9.53906 5.24873 9.53906 5.55556V7.22222H10.5647V5.55556C10.5647 5.24873 10.3351 5 10.0519 5Z" fill="#9146FF"/>
<path d="M12.6143 5.55556C12.6143 5.24873 12.8439 5 13.1271 5C13.4103 5 13.6399 5.24873 13.6399 5.55556V7.22222H12.6143V5.55556Z" fill="#9146FF"/>
<path fill-rule="evenodd" clip-rule="evenodd" d="M13.1271 5C12.8439 5 12.6143 5.24873 12.6143 5.55556V7.22222H13.6399V5.55556C13.6399 5.24873 13.4103 5 13.1271 5Z" fill="#9146FF"/>
<path d="M10.2812 14.0898H11.3339H12.3865H12.9128" stroke="#9146FF" stroke-linecap="round" stroke-linejoin="round"/>
<path d="M14 20.5422C18.0571 19.2679 21 15.4776 21 11C21 5.47715 16.5228 1 11 1C5.47715 1 1 5.47715 1 11C1 16.1853 4.94668 20.4489 10 20.9506" stroke="#9146FF" stroke-width="1.5" stroke-linecap="round"/>
</svg>
