<svg width="22" height="22" viewBox="0 0 22 22" fill="none" xmlns="http://www.w3.org/2000/svg">
<path d="M10 21C13 21 11.5824 17.2716 11.5905 14.4336" stroke="#9146FF" stroke-width="1.4" stroke-linecap="round"/>
<path d="M13.126 13.0616H12.3568H10.0491C9.73039 13.0616 9.43451 12.8963 9.26749 12.6249L9.17178 12.4694C9.07479 12.3117 9.02344 12.1303 9.02344 11.9453V11.1172V10.0061V9.13001C9.02344 8.84678 9.25304 8.61719 9.53626 8.61719H10.3055H11.3311H13.3824C13.8072 8.61719 14.1516 8.96158 14.1516 9.38642V9.45052V10.2839V11.1172V11.9453C14.1516 12.1303 14.1003 12.3117 14.0033 12.4694L13.9076 12.6249C13.7406 12.8963 13.4447 13.0616 13.126 13.0616Z" fill="#9146FF"/>
<path d="M12.3568 13.0616H13.126M13.126 13.0616V13.0616C13.4447 13.0616 13.7406 12.8963 13.9076 12.6249L14.0033 12.4694C14.1003 12.3117 14.1516 12.1303 14.1516 11.9453V11.1172V10.2839V9.45052V9.38642C14.1516 8.96158 13.8072 8.61719 13.3824 8.61719V8.61719H11.3311H10.3055H9.53626V8.61719C9.25304 8.61719 9.02344 8.84678 9.02344 9.13001V10.0061V11.1172V11.9453C9.02344 12.1303 9.07479 12.3117 9.17178 12.4694L9.26749 12.6249C9.43451 12.8963 9.73039 13.0616 10.0491 13.0616V13.0616H13.126Z" stroke="#9146FF" stroke-linecap="round" stroke-linejoin="round"/>
<path d="M8 8.3329C8 8.02607 8.2296 7.77734 8.51282 7.77734H14.6667C14.9499 7.77734 15.1795 8.02607 15.1795 8.3329C15.1795 8.63972 14.9499 8.88845 14.6667 8.88845H8.51282C8.2296 8.88845 8 8.63972 8 8.3329Z" fill="#9146FF"/>
<path fill-rule="evenodd" clip-rule="evenodd" d="M8.51282 7.77734C8.2296 7.77734 8 8.02607 8 8.3329C8 8.63972 8.2296 8.88845 8.51282 8.88845H14.6667C14.9499 8.88845 15.1795 8.63972 15.1795 8.3329C15.1795 8.02607 14.9499 7.77734 14.6667 7.77734H8.51282Z" fill="#9146FF"/>
<path d="M9.53906 5.55556C9.53906 5.24873 9.76866 5 10.0519 5C10.3351 5 10.5647 5.24873 10.5647 5.55556V7.22222H9.53906V5.55556Z" fill="#9146FF"/>
<path fill-rule="evenodd" clip-rule="evenodd" d="M10.0519 5C9.76866 5 9.53906 5.24873 9.53906 5.55556V7.22222H10.5647V5.55556C10.5647 5.24873 10.3351 5 10.0519 5Z" fill="#9146FF"/>
<path d="M12.6133 5.55556C12.6133 5.24873 12.8429 5 13.1261 5C13.4093 5 13.6389 5.24873 13.6389 5.55556V7.22222H12.6133V5.55556Z" fill="#9146FF"/>
<path fill-rule="evenodd" clip-rule="evenodd" d="M13.1261 5C12.8429 5 12.6133 5.24873 12.6133 5.55556V7.22222H13.6389V5.55556C13.6389 5.24873 13.4093 5 13.1261 5Z" fill="#9146FF"/>
<path d="M10.2812 14.0898H11.3339H12.3865H12.9128" stroke="#9146FF" stroke-linecap="round" stroke-linejoin="round"/>
<path d="M14 20.5422C18.0571 19.2679 21 15.4776 21 11C21 5.47715 16.5228 1 11 1C5.47715 1 1 5.47715 1 11C1 16.1853 4.94668 20.4489 10 20.9506" stroke="#9146FF" stroke-width="1.5" stroke-linecap="round"/>
</svg>
