<svg width="20" height="21" viewBox="0 0 20 21" fill="none" xmlns="http://www.w3.org/2000/svg">
<path fill-rule="evenodd" clip-rule="evenodd" d="M2 10C2 5.58172 5.58172 2 10 2C14.4183 2 18 5.58172 18 10C18 13.5806 15.6469 16.6142 12.4004 17.6339C11.8734 17.7994 11.5805 18.3607 11.746 18.8876C11.9114 19.4145 12.4727 19.7075 12.9996 19.542C17.0559 18.268 20 14.4792 20 10C20 4.47715 15.5228 0 10 0C4.47715 0 0 4.47715 0 10C0 14.8596 3.75463 19.0459 8.28897 19.9775C8.29391 19.9786 8.29886 19.9796 8.30383 19.9806C8.99554 20.119 9.73305 20.1474 10.3387 19.7785C11.0022 19.3744 11.2021 18.6931 11.2604 18.1563C11.3182 17.6252 11.2635 17.0057 11.2001 16.4161C11.1823 16.2507 11.1633 16.0841 11.1441 15.9154C11.0929 15.4657 11.0398 15.0002 11.0026 14.5C11.2775 14.4986 11.5 14.2753 11.5 14C11.5 13.7239 11.2761 13.5 11 13.5H11.2C11.6128 13.5 12.0001 13.3002 12.2393 12.9638L12.2546 12.9423C12.4142 12.7178 12.5 12.4491 12.5 12.1736V10.5625C12.5 10.3559 12.4411 10.1631 12.3391 10H12.5714C12.8081 10 13 9.77614 13 9.5C13 9.22386 12.8081 9 12.5714 9H7.42857C7.19188 9 7 9.22386 7 9.5C7 9.77614 7.19188 10 7.42857 10H7.59355C7.53367 10.1205 7.5 10.2563 7.5 10.4V12.1736C7.5 12.4491 7.58578 12.7178 7.74544 12.9423L7.76071 12.9638C7.99994 13.3002 8.3872 13.5 8.8 13.5H9C8.72386 13.5 8.5 13.7239 8.5 14C8.5 14.2761 8.72381 14.4999 8.99991 14.5C8.99993 14.5235 9.00077 14.5471 9.00246 14.5708C9.04318 15.1446 9.10586 15.6945 9.16063 16.1751C9.17886 16.335 9.19621 16.4872 9.21158 16.6301C9.27723 17.2401 9.30323 17.6542 9.27215 17.9403C9.26581 17.9987 9.25826 18.0414 9.25133 18.0719C9.17156 18.0795 9.00537 18.0806 8.70508 18.0213L8.70012 18.0202C5.02328 17.2692 2 13.8448 2 10ZM8 6.5C8 6.22386 8.22386 6 8.5 6C8.77614 6 9 6.22386 9 6.5V8H8V6.5ZM9.23012 18.1374C9.23012 18.1374 9.23128 18.1339 9.23459 18.1287C9.23194 18.1351 9.23012 18.1374 9.23012 18.1374ZM11.5 6C11.2239 6 11 6.22386 11 6.5V8H12V6.5C12 6.22386 11.7761 6 11.5 6Z" fill="#9146FF"/>
</svg>
