<svg viewBox="0 0 21 21" fill="currentColor" xmlns="http://www.w3.org/2000/svg">
<g clip-path="url(#clip0_7310_52716)">
<path d="M15.8421 6.9943C15.6597 6.81187 15.386 6.81187 15.2036 6.9943C15.0212 7.17672 15.0212 7.45036 15.2036 7.63279L15.7965 8.22567L8.08896 15.9332C7.90654 16.1156 7.6329 16.1156 7.45047 15.9332L6.72077 15.2035C6.53834 15.0211 6.2647 15.0211 6.08228 15.2035L5.35257 15.9332C5.17014 16.1156 4.8965 16.1156 4.71408 15.9332L4.1668 15.3859C4.07559 15.2947 4.02998 15.2035 4.02998 15.0667C4.02998 14.9298 4.07559 14.8386 4.1668 14.7474L4.8965 14.0177C5.07893 13.8353 5.07893 13.5616 4.8965 13.3792L4.1668 12.6495C4.07559 12.5583 4.02998 12.4671 4.02998 12.3303C4.02998 12.1934 4.07559 12.1022 4.1668 12.011L10.8254 5.35246C11.0078 5.17003 11.0078 4.89639 10.8254 4.71397C10.6429 4.53154 10.3693 4.53154 10.1869 4.71397L3.52831 11.3725C3.25467 11.6462 3.11785 11.9654 3.11785 12.3303C3.11785 12.6951 3.25467 13.06 3.52831 13.288L3.93877 13.6985L3.52831 14.1089C3.25467 14.3826 3.11785 14.7018 3.11785 15.0667C3.11785 15.3859 3.25467 15.7052 3.4827 15.9788L0.153421 19.3081C-0.029005 19.4905 -0.029005 19.7641 0.153421 19.9466C0.244634 20.0378 0.335848 20.0834 0.472667 20.0834C0.609487 20.0834 0.7007 20.0378 0.791913 19.9466L4.12119 16.6173C4.66847 17.0733 5.48939 17.0733 5.99106 16.5717L6.40152 16.1612L6.81198 16.5717C7.08562 16.8453 7.45047 16.9821 7.76972 16.9821C8.13457 16.9821 8.45382 16.8453 8.72746 16.5717L16.435 8.86417L17.0279 9.45705C17.1191 9.54826 17.2559 9.59387 17.3471 9.59387C17.4383 9.59387 17.5751 9.54826 17.6663 9.45705C17.8488 9.27463 17.8488 9.00099 17.6663 8.81856L15.8421 6.9943Z"/>
<path d="M19.9467 4.71408L15.3861 0.153421C15.2036 -0.029005 14.93 -0.029005 14.7476 0.153421C14.5652 0.335848 14.5652 0.609487 14.7476 0.791913L16.2982 2.34254C16.3894 2.43375 16.435 2.61618 16.435 2.753C16.435 2.88982 16.3894 3.07224 16.2526 3.16345L14.1547 5.30696L11.2815 2.43375C11.0991 2.25132 10.8254 2.25132 10.643 2.43375C10.4606 2.61618 10.4606 2.88982 10.643 3.07224L13.5162 5.94546L9.59404 9.86762L8.54509 8.81867C8.36266 8.63624 8.08902 8.63624 7.9066 8.81867C7.72417 9.00109 7.72417 9.27474 7.9066 9.45716L10.643 12.1936C10.7342 12.2848 10.871 12.3304 10.9622 12.3304C11.0534 12.3304 11.1903 12.2848 11.2815 12.1936C11.4639 12.0111 11.4639 11.7375 11.2815 11.5551L10.2325 10.5061L16.9367 3.84755C17.2103 3.61952 17.5296 3.61952 17.8032 3.84755L19.3082 5.35257C19.3995 5.44378 19.5363 5.48939 19.6275 5.48939C19.7187 5.48939 19.8555 5.44378 19.9467 5.35257C20.1292 5.17014 20.1292 4.8965 19.9467 4.71408Z"/>
</g>
<defs>
<clipPath id="clip0_7310_52716">
<rect width="20.0669" height="20.0669" transform="translate(0.0166016 0.0166016)"/>
</clipPath>
</defs>
</svg>
