<svg width="20" height="20" viewBox="0 0 20 20" fill="none" xmlns="http://www.w3.org/2000/svg">
<path d="M0.766244 0.767138L0.766245 0.767139L0.767138 0.766244C0.851321 0.681848 0.951327 0.614889 1.06143 0.569202C1.17153 0.523516 1.28956 0.5 1.40876 0.5C1.52797 0.5 1.646 0.523517 1.7561 0.569202C1.8662 0.614889 1.9662 0.681848 2.05039 0.766244L2.05077 0.766624L9.49264 8.21131L9.84626 8.56507L10.1999 8.21131L17.6417 0.766693C17.6417 0.76667 17.6417 0.766647 17.6418 0.766624C17.7261 0.682336 17.8261 0.615475 17.9363 0.569856C18.0464 0.524223 18.1645 0.500736 18.2838 0.500736C18.403 0.500736 18.5211 0.524223 18.6312 0.569856C18.7414 0.615488 18.8415 0.682372 18.9258 0.766691C19.0101 0.85101 19.077 0.951109 19.1227 1.06128C19.1683 1.17144 19.1918 1.28951 19.1918 1.40876C19.1918 1.52801 19.1683 1.64609 19.1227 1.75625C19.077 1.86639 19.0102 1.96646 18.9259 2.05077C18.9259 2.05079 18.9258 2.05081 18.9258 2.05083L11.4812 9.49264L11.1275 9.84626L11.4812 10.1999L18.9258 17.6417C18.9258 17.6417 18.9259 17.6417 18.9259 17.6417C19.0102 17.7261 19.077 17.8261 19.1227 17.9363C19.1683 18.0464 19.1918 18.1645 19.1918 18.2838C19.1918 18.403 19.1683 18.5211 19.1227 18.6312C19.077 18.7414 19.0101 18.8415 18.9258 18.9258L19.2794 19.2794L18.9258 18.9258C18.8415 19.0102 18.7414 19.077 18.6312 19.1227C18.5211 19.1683 18.403 19.1918 18.2838 19.1918C18.1645 19.1918 18.0464 19.1683 17.9363 19.1227C17.8261 19.077 17.7261 19.0102 17.6418 18.9259C17.6417 18.9259 17.6417 18.9259 17.6417 18.9258L10.1999 11.4812L9.84626 11.1275L9.49264 11.4812L2.05083 18.9258C2.05081 18.9259 2.05079 18.9259 2.05077 18.9259C1.96646 19.0102 1.86639 19.077 1.75625 19.1227C1.64609 19.1683 1.52801 19.1918 1.40876 19.1918C1.28952 19.1918 1.17144 19.1683 1.06127 19.1227C0.951109 19.077 0.85101 19.0102 0.766693 18.9258C0.682373 18.8415 0.615488 18.7414 0.569855 18.6312C0.524223 18.5211 0.500736 18.403 0.500736 18.2838C0.500736 18.1645 0.524223 18.0464 0.569856 17.9363C0.615488 17.8261 0.682372 17.726 0.766693 17.6417L8.21131 10.1999L8.56507 9.84626L8.21131 9.49264L0.766625 2.05077L0.766244 2.05039C0.681848 1.96621 0.614889 1.8662 0.569202 1.7561C0.523516 1.646 0.5 1.52797 0.5 1.40876C0.5 1.28956 0.523516 1.17153 0.569202 1.06143C0.614889 0.951327 0.681848 0.851321 0.766244 0.767138Z" fill="#DFD2FF" stroke="#DFD2FF"/>
</svg>
