<svg width="26" height="25" viewBox="0 0 26 25" fill="none" xmlns="http://www.w3.org/2000/svg">
<path fill-rule="evenodd" clip-rule="evenodd" d="M7.0001 0.872727C7.0001 0.390733 6.46284 0 5.8001 0C5.13736 0 4.6001 0.390733 4.6001 0.872727V3H2.76C1.23569 3 0 4.11929 0 5.5V9V11V20.5C0 21.8807 1.23569 23 2.76 23H15.5278C16.6264 24.2275 18.223 25 20 25C23.3137 25 26 22.3137 26 19C26 16.7792 24.7934 14.8401 23 13.8027V11V9V5.5C23 4.11929 21.7643 3 20.24 3H18.4V0.872727C18.4 0.390733 17.8627 0 17.2 0C16.5373 0 16 0.390733 16 0.872727V3H7.0001V0.872727ZM21.16 13.112V11H1.84V20.5C1.84 20.9602 2.2519 21.3333 2.76 21.3333H14.4706C14.2902 20.9063 14.1578 20.454 14.0802 19.9832C12.4993 19.8108 11.7724 18.3278 11.7724 16.4808C11.7724 14.5342 12.615 13 14.3958 13C15.3432 13 16.0248 13.4465 16.4525 14.1606C17.4461 13.431 18.6727 13 20 13C20.3968 13 20.7847 13.0385 21.16 13.112ZM16.8042 18.0192C16.3457 18.1102 16 18.5147 16 19C16 19.1312 16.0253 19.2566 16.0712 19.3714C16.2187 19.7398 16.579 20 17 20H19V21.3333V22C19 22.5523 19.4477 23 20 23C20.5523 23 21 22.5523 21 22V20.9698V20H21.16H23C23.5523 20 24 19.5523 24 19C24 18.4477 23.5523 18 23 18H21.16H21V16C21 15.4477 20.5523 15 20 15C19.4477 15 19 15.4477 19 16V18H17C16.933 18 16.8675 18.0066 16.8042 18.0192ZM15.6506 14.8669C15.3864 14.3117 14.9552 14.0164 14.3958 14.0164C13.4096 14.0164 12.8256 14.8795 12.8256 16.4808C12.8256 17.8895 13.2496 18.7249 14.0004 18.9324C14.0178 17.3572 14.6421 15.9278 15.6506 14.8669ZM16 6.10909V4.66667H7.0001V6.10909C7.0001 6.59108 6.46284 6.98182 5.8001 6.98182C5.13736 6.98182 4.6001 6.59108 4.6001 6.10909V4.66667H2.76C2.2519 4.66667 1.84 5.03976 1.84 5.5V9H21.16V5.5C21.16 5.03976 20.7481 4.66667 20.24 4.66667H18.4V6.10909C18.4 6.59108 17.8627 6.98182 17.2 6.98182C16.5373 6.98182 16 6.59108 16 6.10909ZM8.44407 20C6.83558 20 5.94517 18.974 6.00262 17.7466L7.12281 17.574L7.11324 17.737C7.11324 18.4753 7.57281 18.9836 8.45364 18.9836C9.3632 18.9836 9.90894 18.5233 9.90894 17.8041C9.90894 17.1233 9.3632 16.7397 8.48237 16.7397H7.85046V15.7712L8.44407 15.7616C9.21959 15.7521 9.61214 15.4068 9.61214 14.8795C9.61214 14.3425 9.19087 14.0164 8.46322 14.0164C7.6877 14.0164 7.3143 14.4959 7.3143 15.1L6.25155 14.9274C6.2707 13.8438 7.09409 13 8.45364 13C9.90894 13 10.6749 13.7863 10.6749 14.7452C10.6749 15.3205 10.4547 15.8192 10.0047 16.1644C10.6557 16.5192 10.9908 17.1137 10.9908 17.8041C10.9908 18.9836 10.11 20 8.44407 20Z" fill="#084C4F"/>
</svg>
