<svg width="22" height="22" viewBox="0 0 22 22" fill="none" xmlns="http://www.w3.org/2000/svg">
<path fill-rule="evenodd" clip-rule="evenodd" d="M5.11765 8.93759H5.04211C4.99262 7.60917 5.14876 5.98322 5.74893 4.55223C6.13376 3.6347 6.72301 2.74536 7.61757 2.08042C8.53158 1.40102 9.70675 0.999996 11.144 1C12.5891 1 13.7619 1.41427 14.6633 2.1113C15.5435 2.79191 16.1094 3.69775 16.4695 4.62302C16.4838 4.65994 16.4979 4.69698 16.5117 4.73414C16.7483 5.37169 16.2329 5.99997 15.5529 5.99997C15.0594 5.99997 14.64 5.65916 14.461 5.19925C14.1742 4.46237 13.7697 3.86719 13.2461 3.46232C12.7438 3.07387 12.0795 2.81818 11.144 2.81818C10.2007 2.81818 9.52143 3.07014 9.00365 3.45502C8.46642 3.85435 8.04652 4.44059 7.74133 5.16825C7.24593 6.34943 7.11077 7.7649 7.1609 8.93759H11.0527H14.9445L14.9447 8.93497H16.0654L16.0652 8.93759H16.8824C18.0519 8.93759 19 9.75161 19 10.7558V19.1818C19 20.186 18.0519 21 16.8824 21H5.11765C3.9481 21 3 20.186 3 19.1818V10.7558C3 9.75161 3.9481 8.93759 5.11765 8.93759ZM6.11765 19.1818C5.56536 19.1818 5.11765 18.7341 5.11765 18.1818V11.7558C5.11765 11.2035 5.56536 10.7558 6.11765 10.7558H15.8824C16.4346 10.7558 16.8824 11.2035 16.8824 11.7558V18.1818C16.8824 18.7341 16.4346 19.1818 15.8824 19.1818H6.11765Z" fill="#F89BFF"/>
</svg>
