<svg version="1.1" id="Camada_1" xmlns="http://www.w3.org/2000/svg" xmlns:xlink="http://www.w3.org/1999/xlink" x="0px" y="0px"
	 viewBox="0 0 30 24" style="enable-background:new 0 0 30 24;" xml:space="preserve">
<path class="icon-color" d="M7.9,5.3C8,2.3,10.4,0,13.3,0h2.5c3,0,5.5,2.4,5.5,5.5v4.3l0,0.1c-0.3,1.2-1.4,3.2-3.7,4.6
	c0.1,0,0.3,0.1,0.4,0.1c1.2,0.4,2.6,0.8,3.6,1c0.8,0.2,1.3,0.9,1.3,1.8v4.1c0,1.4-1.1,2.5-2.5,2.5H9.7c-1.4,0-2.5-1.1-2.5-2.5v-4
	c0-0.9,0.6-1.6,1.4-1.8c0.9-0.2,2.2-0.7,3.4-1.2c-0.4-0.2-0.8-0.5-1.2-0.8c-1.2-0.9-2.4-2.2-2.8-3.7l0-0.1L7.9,5.3L7.9,5.3z
	 M14.5,15.7c-1.4,0.6-3.7,1.5-5.2,1.9v3.8c0,0.2,0.2,0.4,0.4,0.4h10.6c0.2,0,0.4-0.2,0.4-0.4v-3.8c-1-0.3-2.2-0.6-3.4-1
	C16.3,16.4,15.3,16,14.5,15.7z M14.6,13.4c3.1-1,4.2-3,4.5-3.9v-4c0-1.8-1.5-3.3-3.3-3.3h-2.5c-1.8,0-3.2,1.4-3.3,3.2l0,0l0,4.1
	c0.2,0.8,1,1.6,2,2.4C12.9,12.5,13.9,13.1,14.6,13.4z"/>
</svg>