<svg width="30" height="24" viewBox="0 0 30 24"  fill="#DFD2FF" xmlns="http://www.w3.org/2000/svg">
  <path fill-rule="evenodd" clip-rule="evenodd" d="M7.65608 6.06053C7.74619 3.23994 10.0611 1 12.886 1H15.2849C18.1747 1 20.5174 3.34033 20.5174 6.22727V10.3539L20.4906 10.4699C20.2281 11.6064 19.1736 13.5037 16.9078 14.8568C17.0372 14.8978 17.169 14.9391 17.3028 14.9806C18.4938 15.3497 19.7733 15.7132 20.7123 15.9694C21.4699 16.1762 22 16.8633 22 17.6529V21.5606C22 22.9078 20.9067 24 19.5581 24H9.44186C8.09326 24 7 22.9078 7 21.5606V17.713C7 16.8451 7.6206 16.1743 8.36075 15.9787C9.20553 15.7554 10.439 15.2996 11.5717 14.8478C11.1817 14.6104 10.7849 14.3444 10.4015 14.0526C9.27652 13.1965 8.09265 11.9874 7.72713 10.4812L7.699 10.3652L7.65389 6.12903L7.65608 6.06053ZM14.0644 16.0791C12.7485 16.6443 10.555 17.533 9.09302 17.9461V21.5606C9.09302 21.7531 9.2492 21.9091 9.44186 21.9091H19.5581C19.7508 21.9091 19.907 21.7531 19.907 21.5606V17.9169C18.9828 17.6623 17.7979 17.3233 16.6826 16.9776C15.7174 16.6784 14.757 16.3601 14.0644 16.0791ZM14.1216 13.8297C17.0559 12.8804 18.1842 10.9145 18.4244 10.101V6.22727C18.4244 4.49511 17.0188 3.09091 15.2849 3.09091H12.886C11.191 3.09091 9.8021 4.43487 9.74804 6.12723L9.74727 6.15127L9.78924 10.0923C10.0158 10.855 10.7034 11.6539 11.6698 12.3893C12.507 13.0264 13.4348 13.5259 14.1216 13.8297Z"/>
</svg>
