<svg width="30" height="24" viewBox="0 0 30 24" fill="none" xmlns="http://www.w3.org/2000/svg">
<path fill-rule="evenodd" clip-rule="evenodd" d="M8.19621 5.28055C8.28808 2.33733 10.6481 0 13.528 0H15.9737C18.9199 0 21.3082 2.44208 21.3082 5.45455V9.7606L21.2809 9.88166C21.0132 11.0675 19.9381 13.0473 17.6282 14.4593C17.7601 14.502 17.8945 14.5451 18.0309 14.5884C19.2451 14.9736 20.5496 15.3529 21.5069 15.6203C22.2792 15.836 22.8196 16.553 22.8196 17.3769V21.4545C22.8196 22.8604 21.7051 24 20.3302 24H10.0168C8.64191 24 7.52734 22.8604 7.52734 21.4545V17.4396C7.52734 16.534 8.16004 15.8341 8.91462 15.6299C9.77586 15.397 11.0334 14.9213 12.1881 14.4499C11.7906 14.2021 11.386 13.9245 10.9951 13.6201C9.84822 12.7268 8.64128 11.4651 8.26865 9.89338L8.23997 9.77242L8.19398 5.35203L8.19621 5.28055ZM14.7294 15.7347C13.3878 16.3245 11.1516 17.2518 9.66115 17.6829V21.4545C9.66115 21.6554 9.82038 21.8182 10.0168 21.8182H20.3302C20.5266 21.8182 20.6858 21.6554 20.6858 21.4545V17.6524C19.7436 17.3867 18.5357 17.033 17.3986 16.6722C16.4146 16.3601 15.4355 16.0279 14.7294 15.7347ZM14.7877 13.3875C17.7792 12.3969 18.9294 10.3455 19.1744 9.49668V5.45455C19.1744 3.64707 17.7414 2.18182 15.9737 2.18182H13.528C11.8001 2.18182 10.3841 3.58421 10.3289 5.35015L10.3282 5.37524L10.3709 9.48757C10.6019 10.2835 11.3029 11.1171 12.2881 11.8845C13.1417 12.5493 14.0876 13.0705 14.7877 13.3875Z" />
<path fill-rule="evenodd" clip-rule="evenodd" d="M21.8004 20.206H27.6172C27.7743 20.206 27.9017 20.0785 27.9017 19.9214V16.9458C27.1479 16.7379 26.1816 16.461 25.2719 16.1787C24.4848 15.9344 23.7014 15.6744 23.1366 15.445C22.3594 15.7792 21.2069 16.252 20.1775 16.6155L17.7227 15.8424C17.9229 15.6088 18.1924 15.4404 18.4847 15.363C19.1737 15.1807 20.1797 14.8084 21.1035 14.4395C20.7855 14.2456 20.4618 14.0283 20.1491 13.7901C19.5839 13.3594 19.0005 12.8193 18.5661 12.1805L19.7614 10.957L19.7713 10.8662C20.0258 11.3927 20.5254 11.9303 21.1835 12.4317C21.8664 12.9521 22.6231 13.3599 23.1832 13.608C25.5764 12.8328 26.4966 11.2274 26.6926 10.563V7.39963C26.6926 5.98509 25.5461 4.83837 24.132 4.83837H22.1755C21.3455 4.83837 20.6054 5.23404 20.137 5.84939L19.5467 4.03672C20.2721 3.46866 21.1854 3.13086 22.1755 3.13086H24.132C26.4889 3.13086 28.3996 5.04206 28.3996 7.39963V10.7696L28.3777 10.8643C28.1636 11.7924 27.3036 13.3418 25.4556 14.4468C25.5611 14.4803 25.6686 14.514 25.7778 14.5479C26.7492 14.8493 27.7927 15.1462 28.5585 15.3554C29.1764 15.5242 29.6088 16.0854 29.6088 16.7302V19.9214C29.6088 21.0216 28.7171 21.9135 27.6172 21.9135H21.8004V20.206Z" />
<path fill-rule="evenodd" clip-rule="evenodd" d="M8.54631 20.206V21.9135H2.38218C1.28228 21.9135 0.390625 21.0216 0.390625 19.9214V16.7793C0.390625 16.0705 0.896782 15.5227 1.50044 15.363C2.18944 15.1807 3.19544 14.8084 4.11926 14.4395C3.8012 14.2456 3.47754 14.0283 3.16482 13.7901C2.24733 13.091 1.28178 12.1035 0.983668 10.8735L0.960725 10.7788L0.923933 7.31941L0.925718 7.26347C0.99921 4.96007 2.88722 3.13086 5.19117 3.13086H7.14769C8.12636 3.13086 9.02808 3.46037 9.74802 4.01454L9.5658 4.1744L10.0755 10.957L10.9888 11.8918C10.5403 12.7235 9.73779 13.6895 8.47132 14.4468C8.57682 14.4803 8.68435 14.514 8.7935 14.5479C9.76487 14.8493 10.8084 15.1462 11.5742 15.3554C11.8056 15.4186 12.0109 15.5368 12.1773 15.6938L9.76416 16.62C9.28357 16.4811 8.77739 16.3307 8.28765 16.1787C7.50047 15.9344 6.71713 15.6744 6.1523 15.445C5.079 15.9066 3.29002 16.6323 2.09767 16.9697V19.9214C2.09767 20.0785 2.22505 20.206 2.38218 20.206H8.54631ZM6.19891 13.608C8.59214 12.8328 9.51231 11.2274 9.70826 10.563V7.39963C9.70826 5.98509 8.56186 4.83837 7.14769 4.83837H5.19117C3.8088 4.83837 2.67599 5.9359 2.6319 7.31793L2.63127 7.33757L2.6655 10.5559C2.85025 11.1788 3.4111 11.8312 4.19923 12.4317C4.88212 12.9521 5.63881 13.3599 6.19891 13.608Z" />
</svg>
