<svg width="15" height="23" viewBox="0 0 15 23" fill="none" xmlns="http://www.w3.org/2000/svg">
<path fill-rule="evenodd" clip-rule="evenodd" d="M0.656081 5.06053C0.74619 2.23994 3.06109 0 5.88598 0H8.28488C11.1747 0 13.5174 2.34033 13.5174 5.22727V9.35391L13.4906 9.46993C13.2281 10.6064 12.1736 12.5037 9.90779 13.8568C10.0371 13.8978 10.169 13.9391 10.3028 13.9806C11.4938 14.3497 12.7733 14.7132 13.7123 14.9694C14.4699 15.1762 15 15.8633 15 16.6529V20.5606C15 21.9078 13.9067 23 12.5581 23H2.44186C1.09326 23 0 21.9078 0 20.5606V16.713C0 15.8451 0.620602 15.1743 1.36075 14.9787C2.20553 14.7554 3.439 14.2996 4.5717 13.8478C4.18173 13.6104 3.78489 13.3444 3.40146 13.0526C2.27652 12.1965 1.09265 10.9874 0.727134 9.48116L0.699004 9.36524L0.653892 5.12903L0.656081 5.06053ZM7.06443 15.0791C5.74845 15.6443 3.55497 16.533 2.09302 16.9461V20.5606C2.09302 20.7531 2.2492 20.9091 2.44186 20.9091H12.5581C12.7508 20.9091 12.907 20.7531 12.907 20.5606V16.9169C11.9828 16.6623 10.7979 16.3232 9.68259 15.9776C8.71743 15.6784 7.75696 15.3601 7.06443 15.0791ZM7.12157 12.8297C10.0559 11.8804 11.1842 9.91448 11.4244 9.10098V5.22727C11.4244 3.49511 10.0188 2.09091 8.28488 2.09091H5.88598C4.19105 2.09091 2.8021 3.43487 2.74804 5.12723L2.74727 5.15127L2.78924 9.09226C3.01577 9.85503 3.70343 10.6539 4.66976 11.3893C5.50705 12.0264 6.43483 12.5259 7.12157 12.8297Z" fill="#9146FF"/>
</svg>
