<svg width="25" height="24" viewBox="0 0 25 24" fill="#1C23BD" xmlns="http://www.w3.org/2000/svg">
<path fill-rule="evenodd" clip-rule="evenodd" d="M16 18.3365C16 17.5984 16.5762 17 17.287 17H21.663C22.3738 17 22.95 17.5984 22.95 18.3365V22.6135C22.95 23.3516 22.3738 23.95 21.663 23.95H17.287C16.5762 23.95 16 23.3516 16 22.6135V18.3365ZM17.287 17.5346C16.8606 17.5346 16.5148 17.8936 16.5148 18.3365V22.6135C16.5148 23.0564 16.8606 23.4154 17.287 23.4154H21.663C22.0894 23.4154 22.4352 23.0564 22.4352 22.6135V18.3365C22.4352 17.8936 22.0894 17.5346 21.663 17.5346H17.287ZM17.1474 19.0239C17.1474 18.8763 17.2626 18.7566 17.4048 18.7566H21.645C21.7872 18.7566 21.9024 18.8763 21.9024 19.0239C21.9024 19.1715 21.7872 19.2912 21.645 19.2912H17.4048C17.2626 19.2912 17.1474 19.1715 17.1474 19.0239ZM17.1474 20.475C17.1474 20.3274 17.2626 20.2077 17.4048 20.2077H21.645C21.7872 20.2077 21.9024 20.3274 21.9024 20.475C21.9024 20.6226 21.7872 20.7423 21.645 20.7423H17.4048C17.2626 20.7423 17.1474 20.6226 17.1474 20.475ZM17.1474 21.9261C17.1474 21.7785 17.2626 21.6588 17.4048 21.6588H20.645C20.7872 21.6588 20.9024 21.7785 20.9024 21.9261C20.9024 22.0737 20.7872 22.1934 20.645 22.1934H17.4048C17.2626 22.1934 17.1474 22.0737 17.1474 21.9261Z"/>
<path fill-rule="evenodd" clip-rule="evenodd" d="M9.47339 8.42025C9.51427 7.07127 10.5644 6 11.8458 6H12.934C14.2449 6 15.3076 7.11929 15.3076 8.5V10.4736L15.2954 10.5291C15.1763 11.0726 14.698 11.98 13.6702 12.6272C13.7289 12.6468 13.7887 12.6665 13.8494 12.6864C14.3896 12.8629 14.97 13.0368 15.396 13.1593C15.7396 13.2582 15.9801 13.5868 15.9801 13.9644V15.8333C15.9801 16.4777 15.4842 17 14.8724 17H10.2835C9.67171 17 9.17578 16.4777 9.17578 15.8333V13.9932C9.17578 13.5781 9.4573 13.2573 9.79305 13.1637C10.1763 13.0569 10.7358 12.8389 11.2496 12.6229C11.0727 12.5093 10.8927 12.3821 10.7188 12.2425C10.2085 11.8331 9.67143 11.2548 9.50562 10.5345L9.49286 10.479L9.4724 8.45302L9.47339 8.42025ZM12.3804 13.2118C11.7834 13.4821 10.7884 13.9071 10.1252 14.1047V15.8333C10.1252 15.9254 10.1961 16 10.2835 16H14.8724C14.9598 16 15.0307 15.9254 15.0307 15.8333V14.0907C14.6114 13.9689 14.074 13.8068 13.568 13.6414C13.1302 13.4984 12.6945 13.3461 12.3804 13.2118ZM12.4063 12.1359C13.7374 11.6819 14.2492 10.7417 14.3581 10.3526V8.5C14.3581 7.67157 13.7205 7 12.934 7H11.8458C11.0769 7 10.4469 7.64276 10.4224 8.45215L10.422 8.46365L10.441 10.3485C10.5438 10.7133 10.8557 11.0954 11.2941 11.447C11.6739 11.7518 12.0948 11.9906 12.4063 12.1359Z"/>
<path fill-rule="evenodd" clip-rule="evenodd" d="M15.525 15.2636H18.1135C18.1834 15.2636 18.2401 15.2052 18.2401 15.1332V13.7693C17.9047 13.6741 17.4747 13.5471 17.07 13.4178C16.7197 13.3058 16.3712 13.1866 16.1199 13.0815C15.7741 13.2347 15.2613 13.4513 14.8032 13.618L13.7109 13.2636C13.8 13.1565 13.9199 13.0794 14.05 13.0439C14.3566 12.9603 14.8042 12.7897 15.2153 12.6206C15.0737 12.5317 14.9297 12.4322 14.7906 12.323C14.5391 12.1256 14.2795 11.878 14.0862 11.5853L14.6178 11.0248L14.6222 10.9824C14.7354 11.2238 14.9578 11.4704 15.2509 11.7004C15.5547 11.9389 15.8914 12.1258 16.1406 12.2395C17.2055 11.8842 17.6149 11.1484 17.7021 10.8439V9.39402C17.7021 8.74569 17.192 8.22011 16.5628 8.22011H15.6922C15.3227 8.22011 14.9933 8.40163 14.7849 8.6839L14.5222 7.85296C14.845 7.59243 15.2515 7.4375 15.6922 7.4375H16.5628C17.6115 7.4375 18.4617 8.31346 18.4617 9.39402V10.9386L18.4519 10.982C18.3567 11.4074 17.974 12.1175 17.1517 12.624C17.1987 12.6393 17.2465 12.6548 17.2951 12.6703C17.7273 12.8085 18.1916 12.9445 18.5324 13.0404C18.8073 13.1178 18.9997 13.375 18.9997 13.6705V15.1332C18.9997 15.6374 18.6029 16.0462 18.1135 16.0462H15.525V15.2636Z" />
<path fill-rule="evenodd" clip-rule="evenodd" d="M9.62891 15.2636V16.0462H6.88615C6.39674 16.0462 6 15.6374 6 15.1332V13.693C6 13.3682 6.22522 13.1171 6.49381 13.0439C6.80038 12.9603 7.24801 12.7897 7.65906 12.6206C7.51754 12.5317 7.37353 12.4322 7.23438 12.323C6.82614 12.0026 6.39652 11.55 6.26388 10.9862L6.25367 10.9428L6.2373 9.35725L6.23809 9.33161C6.27079 8.27589 7.11086 7.4375 8.13601 7.4375H9.00656C9.44212 7.4375 9.84343 7.5886 10.1638 7.84269L10.0825 7.91614L10.3093 11.0248L10.7156 11.4531C10.516 11.8343 10.1589 12.2769 9.59551 12.624C9.64246 12.6393 9.6903 12.6548 9.73887 12.6703C10.1711 12.8085 10.6354 12.9445 10.9762 13.0404C11.0791 13.0694 11.1704 13.1236 11.2445 13.1955L10.1708 13.62C9.95692 13.5564 9.7317 13.4874 9.51379 13.4178C9.16353 13.3058 8.81498 13.1866 8.56366 13.0815C8.0861 13.293 7.29009 13.6257 6.75955 13.7803V15.1332C6.75955 15.2052 6.81623 15.2636 6.88615 15.2636H9.62891ZM8.5844 12.2395C9.64927 11.8842 10.0587 11.1484 10.1459 10.8439V9.39402C10.1459 8.74569 9.6358 8.22011 9.00656 8.22011H8.13601C7.52092 8.22011 7.01688 8.72314 6.99726 9.35658L6.99698 9.36557L7.01221 10.8407C7.09441 11.1262 7.34396 11.4252 7.69464 11.7004C7.99849 11.9389 8.33518 12.1258 8.5844 12.2395Z"/>
<path fill-rule="evenodd" clip-rule="evenodd" d="M12.2581 2.04302C6.59397 2.04302 2.04302 6.52316 2.04302 12C2.04302 17.4768 6.59397 21.957 12.2581 21.957C13.0239 21.957 13.7689 21.875 14.4846 21.72C15.036 21.6006 15.5798 21.9507 15.6992 22.5021C15.8186 23.0535 15.4685 23.5973 14.9171 23.7167C14.06 23.9023 13.1701 24 12.2581 24C5.51066 24 0 18.6497 0 12C0 5.35033 5.51066 0 12.2581 0C19.0056 0 24.5162 5.35033 24.5162 12C24.5162 13.4689 24.2462 14.8782 23.7513 16.1812C23.5511 16.7087 22.9611 16.9739 22.4337 16.7736C21.9063 16.5733 21.6411 15.9834 21.8414 15.456C22.2498 14.3804 22.4732 13.2167 22.4732 12C22.4732 6.52316 17.9223 2.04302 12.2581 2.04302Z"/>
</svg>
