<svg width="19" height="15" viewBox="0 0 19 15" fill="none" xmlns="http://www.w3.org/2000/svg">
<path d="M17.9634 2.78132L9.22663 12.5964C9.15883 12.1417 8.96747 11.705 8.65254 11.3511L7.8671 10.4687L11.4352 6.46018L16.4142 0.86668C16.8494 0.377773 17.5282 0.377773 17.9634 0.866681C18.4288 1.38947 18.4288 2.25853 17.9634 2.78132ZM2.39826 5.82829L6.52835 10.4686L5.70927 11.3888C5.4091 11.726 5.22117 12.1386 5.14548 12.5701L0.848974 7.74283C0.383656 7.22003 0.38368 6.35101 0.849018 5.82824C1.28423 5.33932 1.96307 5.33934 2.39826 5.82829ZM6.45622 12.0537L7.1977 11.2207L7.90556 12.016C8.37088 12.5388 8.37085 13.4078 7.90551 13.9306C7.6113 14.2611 7.20576 14.3682 6.83941 14.2518C6.70081 14.1908 6.57016 14.0963 6.45622 13.9683C5.99086 13.4455 5.99086 12.5765 6.45622 12.0537Z" fill="#ACFFC5" stroke="#ACFFC5"/>
</svg>
