<svg width="32" height="32" viewBox="0 0 32 32" fill="none" xmlns="http://www.w3.org/2000/svg">
<path fill-rule="evenodd" clip-rule="evenodd" d="M15.5 5C16.3284 5 17 5.67157 17 6.5V14.5H20.5C21.3284 14.5 22 15.1716 22 16C22 16.8284 21.3284 17.5 20.5 17.5H15.5C14.6716 17.5 14 16.8284 14 16V6.5C14 5.67157 14.6716 5 15.5 5Z" fill="#AFAFAF"/>
<path d="M28.9621 15C28.4515 8.28755 22.8432 3 16 3V0C24.5007 0 31.4531 6.62927 31.9693 15H28.9621Z" fill="#AFAFAF"/>
<path d="M0.030742 15C0.526544 6.95999 6.95999 0.526544 15 0.0307419V3.03789C8.61759 3.52341 3.52341 8.61759 3.03789 15H0.030742Z" fill="#AFAFAF"/>
<path d="M29 16C29 23.1797 23.1797 29 16 29V32C24.8366 32 32 24.8366 32 16H29Z" fill="#AFAFAF"/>
<path d="M15 31.9693V28.9621C8.28755 28.4515 3 22.8432 3 16H0C0 24.5007 6.62927 31.4531 15 31.9693Z" fill="#AFAFAF"/>
</svg>
