<svg viewBox="0 0 57 57" fill="none" xmlns="http://www.w3.org/2000/svg">
<path fill-rule="evenodd" clip-rule="evenodd" d="M28.5 53.4375C35.1138 53.4375 41.4568 50.8102 46.1335 46.1335C50.8102 41.4568 53.4375 35.1138 53.4375 28.5C53.4375 21.8862 50.8102 15.5432 46.1335 10.8665C41.4568 6.18984 35.1138 3.5625 28.5 3.5625C21.8862 3.5625 15.5432 6.18984 10.8665 10.8665C6.18984 15.5432 3.5625 21.8862 3.5625 28.5C3.5625 35.1138 6.18984 41.4568 10.8665 46.1335C15.5432 50.8102 21.8862 53.4375 28.5 53.4375ZM28.5 57C36.0587 57 43.3078 53.9973 48.6525 48.6525C53.9973 43.3078 57 36.0587 57 28.5C57 20.9413 53.9973 13.6922 48.6525 8.34746C43.3078 3.00267 36.0587 0 28.5 0C20.9413 0 13.6922 3.00267 8.34746 8.34746C3.00267 13.6922 0 20.9413 0 28.5C0 36.0587 3.00267 43.3078 8.34746 48.6525C13.6922 53.9973 20.9413 57 28.5 57Z" fill="currentColor"/>
<path fill-rule="evenodd" clip-rule="evenodd" d="M32.0402 17.0866C33.2278 16.7473 34.4656 17.435 34.8049 18.6226C34.862 18.8224 34.8909 19.0291 34.8909 19.2369V21.1094H37.1273C38.3624 21.1094 39.3636 22.1106 39.3636 23.3457V36.7639C39.3636 37.999 38.3624 39.0003 37.1273 39.0003H19.2364C18.0013 39.0003 17 37.999 17 36.7639H17.0299C17.01 36.6436 17 36.5217 17 36.3994V23.0707C17 22.0722 17.6619 21.1947 18.622 20.9204L32.0402 17.0866ZM26.101 36.7639H37.1273V23.3457H34.8909V25.582H37.1272V27.8184H34.8909V32.5656C34.8909 33.5641 34.229 34.4417 33.2689 34.716L26.101 36.7639ZM19.2363 23.0711V36.3998L32.6545 32.566V19.2373L19.2363 23.0711ZM30.4182 25.582C30.4182 26.1996 29.9176 26.7002 29.3001 26.7002C28.6825 26.7002 28.1819 26.1996 28.1819 25.582C28.1819 24.9645 28.6825 24.4639 29.3001 24.4639C29.9176 24.4639 30.4182 24.9645 30.4182 25.582Z" fill="currentColor"/>
</svg>
