<svg viewBox="0 0 30 24" fill="currentColor" xmlns="http://www.w3.org/2000/svg">
<path d="M26.876 22.9136H3.14539C1.72243 22.9136 1 22.2131 1 20.812V5.35645V5.33456V3.1235C1 1.94134 1.98513 1 3.18917 1H25.1685C26.3725 1 27.3576 1.96324 27.3576 3.1235V3.75836C28.4522 3.75836 28.9995 4.48078 28.9995 5.85996V20.7901C29.0214 22.1912 28.299 22.9136 26.876 22.9136ZM2.64188 5.02808C2.44485 5.02808 2.26972 5.18132 2.26972 5.35645V20.7901C2.26972 21.3374 2.26972 21.622 3.1235 21.622H26.8541C27.7079 21.622 27.7079 21.3374 27.7079 20.7901V16.3899H22.1474C21.2717 16.3899 20.4399 16.0396 19.8269 15.4266C19.2139 14.7918 18.8636 13.9599 18.8636 13.0842C18.8636 11.2672 20.3304 9.77858 22.1474 9.77858H27.7298V5.85996C27.7298 5.02808 27.5984 5.02808 27.3576 5.02808H2.64188ZM22.1474 11.0483C21.0309 11.0483 20.1334 11.9678 20.1334 13.0842C20.1334 13.6315 20.3523 14.135 20.7244 14.5291C21.0966 14.9012 21.6001 15.1202 22.1474 15.1202H27.7298V11.0483H22.1474ZM3.18917 2.26972C2.68566 2.26972 2.26972 2.66377 2.26972 3.1235V3.80214C2.37918 3.78025 2.51053 3.75836 2.64188 3.75836H26.1098V3.1235C26.1098 2.64188 25.6939 2.26972 25.1904 2.26972H3.18917ZM22.3006 14.4415C23.0669 14.4415 23.6798 13.8286 23.6798 13.0623C23.6798 12.2961 23.0669 11.6832 22.3006 11.6832C21.5344 11.6832 20.9215 12.2961 20.9215 13.0623C20.9215 13.8286 21.5344 14.4415 22.3006 14.4415Z" stroke-width="0.5"/>
</svg>
