<svg width="15" height="15" viewBox="0 0 15 15" fill="none" xmlns="http://www.w3.org/2000/svg">
<g clip-path="url(#clip0_5820_43004)">
<mask id="path-1-inside-1_5820_43004" fill="white">
<path fill-rule="evenodd" clip-rule="evenodd" d="M7.5 14.0625C9.24048 14.0625 10.9097 13.3711 12.1404 12.1404C13.3711 10.9097 14.0625 9.24048 14.0625 7.5C14.0625 5.75952 13.3711 4.09032 12.1404 2.85961C10.9097 1.6289 9.24048 0.9375 7.5 0.9375C5.75952 0.9375 4.09032 1.6289 2.85961 2.85961C1.6289 4.09032 0.9375 5.75952 0.9375 7.5C0.9375 9.24048 1.6289 10.9097 2.85961 12.1404C4.09032 13.3711 5.75952 14.0625 7.5 14.0625ZM7.5 15C9.48912 15 11.3968 14.2098 12.8033 12.8033C14.2098 11.3968 15 9.48912 15 7.5C15 5.51088 14.2098 3.60322 12.8033 2.1967C11.3968 0.790176 9.48912 0 7.5 0C5.51088 0 3.60322 0.790176 2.1967 2.1967C0.790176 3.60322 0 5.51088 0 7.5C0 9.48912 0.790176 11.3968 2.1967 12.8033C3.60322 14.2098 5.51088 15 7.5 15Z"/>
</mask>
<path fill-rule="evenodd" clip-rule="evenodd" d="M7.5 14.0625C9.24048 14.0625 10.9097 13.3711 12.1404 12.1404C13.3711 10.9097 14.0625 9.24048 14.0625 7.5C14.0625 5.75952 13.3711 4.09032 12.1404 2.85961C10.9097 1.6289 9.24048 0.9375 7.5 0.9375C5.75952 0.9375 4.09032 1.6289 2.85961 2.85961C1.6289 4.09032 0.9375 5.75952 0.9375 7.5C0.9375 9.24048 1.6289 10.9097 2.85961 12.1404C4.09032 13.3711 5.75952 14.0625 7.5 14.0625ZM7.5 15C9.48912 15 11.3968 14.2098 12.8033 12.8033C14.2098 11.3968 15 9.48912 15 7.5C15 5.51088 14.2098 3.60322 12.8033 2.1967C11.3968 0.790176 9.48912 0 7.5 0C5.51088 0 3.60322 0.790176 2.1967 2.1967C0.790176 3.60322 0 5.51088 0 7.5C0 9.48912 0.790176 11.3968 2.1967 12.8033C3.60322 14.2098 5.51088 15 7.5 15Z" fill="#DF644B"/>
<path d="M7.5 14.0625V16.0625V14.0625ZM7.5 0.9375V-1.0625V0.9375ZM0.9375 7.5H-1.0625H0.9375ZM7.5 15V17V15ZM15 7.5H17H15ZM7.5 0V-2V0ZM0 7.5H-2H0ZM7.5 16.0625C9.77092 16.0625 11.9488 15.1604 13.5546 13.5546L10.7262 10.7262C9.87054 11.5818 8.71005 12.0625 7.5 12.0625V16.0625ZM13.5546 13.5546C15.1604 11.9488 16.0625 9.77092 16.0625 7.5H12.0625C12.0625 8.71005 11.5818 9.87054 10.7262 10.7262L13.5546 13.5546ZM16.0625 7.5C16.0625 5.22908 15.1604 3.05118 13.5546 1.4454L10.7262 4.27383C11.5818 5.12946 12.0625 6.28995 12.0625 7.5H16.0625ZM13.5546 1.4454C11.9488 -0.160382 9.77092 -1.0625 7.5 -1.0625V2.9375C8.71005 2.9375 9.87054 3.41819 10.7262 4.27383L13.5546 1.4454ZM7.5 -1.0625C5.22908 -1.0625 3.05118 -0.160382 1.4454 1.4454L4.27383 4.27383C5.12946 3.41819 6.28995 2.9375 7.5 2.9375V-1.0625ZM1.4454 1.4454C-0.160382 3.05118 -1.0625 5.22908 -1.0625 7.5H2.9375C2.9375 6.28995 3.41819 5.12946 4.27383 4.27383L1.4454 1.4454ZM-1.0625 7.5C-1.0625 9.77092 -0.160382 11.9488 1.4454 13.5546L4.27383 10.7262C3.41819 9.87054 2.9375 8.71005 2.9375 7.5H-1.0625ZM1.4454 13.5546C3.05118 15.1604 5.22908 16.0625 7.5 16.0625V12.0625C6.28995 12.0625 5.12946 11.5818 4.27383 10.7262L1.4454 13.5546ZM7.5 17C10.0196 17 12.4359 15.9991 14.2175 14.2175L11.3891 11.3891C10.3576 12.4205 8.95869 13 7.5 13V17ZM14.2175 14.2175C15.9991 12.4359 17 10.0196 17 7.5H13C13 8.95869 12.4205 10.3576 11.3891 11.3891L14.2175 14.2175ZM17 7.5C17 4.98044 15.9991 2.56408 14.2175 0.782486L11.3891 3.61091C12.4205 4.64236 13 6.04131 13 7.5H17ZM14.2175 0.782486C12.4359 -0.99911 10.0196 -2 7.5 -2V2C8.95869 2 10.3576 2.57946 11.3891 3.61091L14.2175 0.782486ZM7.5 -2C4.98044 -2 2.56408 -0.99911 0.782486 0.782486L3.61091 3.61091C4.64236 2.57946 6.04131 2 7.5 2V-2ZM0.782486 0.782486C-0.99911 2.56408 -2 4.98044 -2 7.5H2C2 6.04131 2.57946 4.64236 3.61091 3.61091L0.782486 0.782486ZM-2 7.5C-2 10.0196 -0.99911 12.4359 0.782486 14.2175L3.61091 11.3891C2.57946 10.3576 2 8.95869 2 7.5H-2ZM0.782486 14.2175C2.56408 15.9991 4.98044 17 7.5 17V13C6.04131 13 4.64236 12.4205 3.61091 11.3891L0.782486 14.2175Z" fill="#DF644B" mask="url(#path-1-inside-1_5820_43004)"/>
<path d="M7.33839 9.27519C7.05857 9.27519 6.83172 9.04835 6.83172 8.76852V4.37385C6.83172 4.09403 7.05857 3.86719 7.33839 3.86719C7.61822 3.86719 7.84506 4.09403 7.84506 4.37385V8.76852C7.84506 9.04835 7.61822 9.27519 7.33839 9.27519ZM7.35439 10.0539C7.53928 10.0539 7.69572 10.1214 7.82372 10.2565C7.95884 10.3845 8.02639 10.5374 8.02639 10.7152C8.02639 10.9143 7.95884 11.0814 7.82372 11.2165C7.69572 11.3516 7.53928 11.4192 7.35439 11.4192C7.15528 11.4192 6.98817 11.3516 6.85306 11.2165C6.71795 11.0814 6.65039 10.9143 6.65039 10.7152C6.65039 10.5303 6.71795 10.3739 6.85306 10.2459C6.98817 10.1179 7.15528 10.0539 7.35439 10.0539Z" fill="#DF644B"/>
</g>
<defs>
<clipPath id="clip0_5820_43004">
<rect width="15" height="15" fill="white"/>
</clipPath>
</defs>
</svg>
