<svg width="22" height="23" viewBox="0 0 22 23" fill="#0240CA" xmlns="http://www.w3.org/2000/svg">
<path fill-rule="evenodd" clip-rule="evenodd" d="M2 8C2 4.68629 4.68629 2 8 2C11.3137 2 14 4.68629 14 8C14 11.3137 11.3137 14 8 14C4.68629 14 2 11.3137 2 8ZM8 0C3.58172 0 0 3.58172 0 8C0 12.4183 3.58172 16 8 16C9.82512 16 11.5075 15.3888 12.8536 14.36L13.9835 15.6674C13.6811 16.4422 13.8133 17.3521 14.3961 18.0163L17.6179 21.6878C18.4586 22.6459 19.9294 22.7073 20.847 21.8224C21.7056 20.9945 21.7621 19.6381 20.9754 18.7416L17.6772 14.9829C17.1066 14.3326 16.2384 14.1059 15.4616 14.319L14.2819 12.954C15.3579 11.5916 16 9.87079 16 8C16 3.58172 12.4183 0 8 0ZM15.9164 16.2913C15.9895 16.2207 16.1069 16.2256 16.1739 16.302L19.4721 20.0607C19.5544 20.1544 19.5485 20.2962 19.4587 20.3828C19.3628 20.4753 19.2091 20.4688 19.1212 20.3687L15.8994 16.6972C15.7958 16.5791 15.8032 16.4003 15.9164 16.2913Z" />
</svg>
