<svg width="148" height="64" viewBox="0 0 148 64" fill="#9146FF" xmlns="http://www.w3.org/2000/svg">
<path d="M90.587 53.1807H92.5352L94.7163 50.6622H91.9046L90.587 53.1807ZM104.82 55.7001C104.453 55.2479 103.984 54.8863 103.449 54.6445C102.914 54.4027 102.329 54.2874 101.741 54.3077C99.2157 54.3077 97.4181 56.4694 97.4181 59.1576C97.4181 61.8833 99.2157 63.9885 101.741 63.9885C102.327 64.0082 102.91 63.8945 103.444 63.6565C103.978 63.4184 104.449 63.0624 104.82 62.616V63.7039H106.924V50.5455H104.82V55.7001ZM102.18 61.9973C101.811 61.9987 101.446 61.9244 101.107 61.7792C100.769 61.6341 100.465 61.4211 100.215 61.1541C99.9653 60.8871 99.7748 60.5718 99.6557 60.2283C99.5367 59.8849 99.4917 59.5208 99.5238 59.1594C99.4963 58.801 99.5445 58.4409 99.6651 58.1016C99.7858 57.7623 99.9764 57.4512 100.225 57.1877C100.474 56.9242 100.775 56.7139 101.11 56.5702C101.445 56.4264 101.807 56.3522 102.173 56.3522C102.539 56.3522 102.9 56.4264 103.236 56.5702C103.571 56.7139 103.872 56.9242 104.121 57.1877C104.37 57.4512 104.56 57.7623 104.681 58.1016C104.802 58.4409 104.85 58.801 104.822 59.1594C104.853 59.5188 104.808 59.8806 104.69 60.2221C104.572 60.5636 104.383 60.8774 104.136 61.1439C103.888 61.4104 103.588 61.6237 103.252 61.7706C102.917 61.9174 102.555 61.9946 102.188 61.9973H102.18ZM113.411 62.1479C112.715 62.1575 112.042 61.9029 111.533 61.4372C111.023 60.9714 110.716 60.3303 110.675 59.6476H117.466V58.6903C117.466 56.1335 115.84 54.3294 113.277 54.3294C110.523 54.3294 108.706 56.4537 108.706 59.1794C108.663 59.8062 108.754 60.435 108.973 61.0254C109.191 61.6157 109.533 62.1547 109.976 62.6077C110.419 63.0608 110.953 63.418 111.545 63.6563C112.136 63.8947 112.772 64.009 113.411 63.9919C114.417 64.031 115.405 63.7123 116.192 63.0942C116.978 62.4762 117.512 61.6001 117.695 60.6266L115.763 60.2698C115.675 60.8118 115.386 61.3029 114.953 61.6493C114.52 61.9957 113.972 62.1732 113.414 62.1479H113.411ZM113.277 56.1135C113.556 56.0894 113.837 56.12 114.104 56.2035C114.371 56.287 114.618 56.4216 114.832 56.5997C115.045 56.7778 115.221 56.9957 115.348 57.2409C115.475 57.4861 115.551 57.7536 115.573 58.028H110.777C110.912 57.4775 111.233 56.9883 111.688 56.6404C112.142 56.2926 112.704 56.1068 113.28 56.1135H113.277ZM93.5297 59.5344C93.5297 61.1514 92.6689 62.1287 91.3875 62.1287C90.1832 62.1287 89.5898 61.4325 89.5898 60.0801V54.6096H87.4876V60.4752C87.4876 62.637 88.6733 63.9902 90.7198 63.9902C91.2537 64.0077 91.7846 63.905 92.2719 63.6899C92.7593 63.4748 93.1901 63.153 93.5314 62.7492V63.7065H95.6354V54.6096H93.5314L93.5297 59.5344ZM81.5164 54.3129C79.4504 54.3129 77.6333 55.5156 77.7484 57.8653L79.7187 58.0158C79.6703 57.7598 79.6838 57.4963 79.758 57.2463C79.8323 56.9964 79.9652 56.7671 80.1461 56.577C80.327 56.3868 80.551 56.241 80.7998 56.1514C81.0485 56.0619 81.3152 56.031 81.5783 56.0612C82.764 56.0612 83.3954 56.7 83.3954 57.4902V57.8278L81.2534 58.1847C78.9775 58.5606 77.7334 59.4822 77.7334 61.2863C77.7334 62.5647 78.7074 63.9937 80.8894 63.9937C81.3905 64.0132 81.8878 63.8995 82.3287 63.6646C82.7696 63.4296 83.1378 63.0821 83.3946 62.6587V63.7117H85.3649V57.6025C85.3667 55.6244 84.0472 54.3051 81.5225 54.3051L81.5164 54.3129ZM83.391 59.8773C83.4192 60.1646 83.3857 60.4544 83.2925 60.7281C83.1994 61.0017 83.0487 61.253 82.8503 61.4657C82.6519 61.6785 82.4102 61.8478 82.1409 61.9628C81.8715 62.0777 81.5806 62.1357 81.287 62.133C80.3306 62.133 79.7187 61.6979 79.7187 61.0426C79.7187 60.2159 80.5794 59.9113 81.5553 59.7459L83.391 59.4457V59.8773ZM71.3007 55.7419C69.2348 55.5356 68.4882 54.9525 68.4882 53.8995C68.4882 52.9422 69.5588 52.2643 71.0899 52.2643C71.8119 52.2773 72.5059 52.5412 73.0487 53.0093C73.5914 53.4773 73.9479 54.1193 74.0548 54.8211L76.0827 54.05C75.8293 52.9485 75.1909 51.9691 74.2787 51.2822C73.3665 50.5953 72.2382 50.2444 71.0899 50.2906C68.3545 50.2906 66.3461 51.7944 66.3851 53.9187C66.4045 56.2118 67.9348 57.4867 70.9952 57.8096C73.3481 58.0541 74.3602 58.7495 74.3602 59.8399C74.3408 61.1375 73.2091 62.0016 71.2999 62.0016C69.3517 62.0016 67.9711 60.7833 67.5691 58.6363L65.5802 59.3134C65.764 60.6557 66.4536 61.8814 67.5127 62.748C68.5719 63.6147 69.9233 64.0592 71.2999 63.9937C74.4179 63.9937 76.4644 62.2836 76.4644 59.7642C76.4706 57.3353 74.6923 56.076 71.3069 55.7375L71.3007 55.7419ZM138.088 19.2414C133.252 19.2414 129.039 22.0645 129.039 27.5698V28.0876L132.726 28.3695C132.686 28.1522 132.67 27.9314 132.678 27.7107C132.678 24.5586 134.64 22.5344 138.232 22.5344C141.871 22.5344 143.738 24.5108 143.738 27.005V28.0876L137.609 29.0283C132.007 29.8751 128.896 32.2283 128.896 36.5126C128.896 39.7116 131.241 43.1944 136.843 43.1944C138.217 43.2527 139.582 42.9473 140.795 42.31C142.008 41.6727 143.024 40.7269 143.738 39.5715V42.5365H147.425V27.2826C147.43 22.3891 144.223 19.2335 138.095 19.2335L138.088 19.2414ZM143.738 32.887C143.738 37.0747 141.152 39.7569 137.561 39.7569C134.545 39.7569 132.63 38.3923 132.63 36.181C132.63 33.6407 135.119 32.6999 137.849 32.2291L143.738 31.2414V32.887ZM71.1059 28.4165H80.5174C80.8495 36.8842 84.5024 41.4008 91.9515 42.5722L92.5555 38.8623C88.4342 38.2139 84.6104 36.4386 84.3262 28.1311L84.8477 28.0876C89.3481 27.052 91.9321 23.5701 91.9321 19.0064C91.9321 13.6421 88.1969 9.59539 81.8776 9.59539H67.275L67.2591 42.5331H71.0891L71.1059 28.4165ZM71.1059 13.2183H81.7325C85.8502 13.2183 88.1003 15.5236 88.1003 19.0055C88.1003 22.5344 85.8502 24.8363 81.7325 24.8363H71.1059V13.2183ZM101.366 13.4063C101.366 13.054 101.296 12.7051 101.159 12.3796C101.021 12.0541 100.82 11.7583 100.567 11.5092C100.314 11.2601 100.012 11.0625 99.6812 10.9278C99.35 10.7931 98.995 10.7239 98.6366 10.7241C98.2769 10.7199 97.92 10.7864 97.5869 10.9197C97.2538 11.053 96.9512 11.2504 96.6969 11.5003C96.4425 11.7502 96.2415 12.0475 96.1058 12.3748C95.97 12.7021 95.9023 13.0529 95.9064 13.4063C95.9063 13.7586 95.9768 14.1075 96.114 14.433C96.2512 14.7586 96.4523 15.0543 96.7058 15.3034C96.9594 15.5525 97.2604 15.75 97.5917 15.8847C97.923 16.0194 98.2781 16.0886 98.6366 16.0884C99.3596 16.0823 100.051 15.7974 100.563 15.2951C101.074 14.7928 101.364 14.1133 101.371 13.4028L101.366 13.4063ZM121.763 34.0158C121.954 37.4507 120.23 39.7091 117.358 39.7091C114.486 39.7091 112.713 38.0155 112.713 34.7686V23.6988H122.241V19.9428H111.847C112.367 18.964 112.703 17.9009 112.839 16.8046C112.953 15.6188 112.993 14.4272 112.959 13.2366H109.137C109.162 14.2579 109.133 15.2799 109.049 16.2982C108.695 18.8855 107.366 19.9411 104.476 19.9411V23.6971H108.881V34.6685C108.881 39.9858 112.184 43.1848 117.499 43.1848C122.143 43.1848 125.782 39.7969 125.494 34.3387L121.763 34.0158ZM100.552 19.9463H96.722V42.5321H100.552V19.9463ZM50.177 21.9296L49.7342 21.5301C49.8095 21.3474 49.8839 21.1646 49.9583 20.981C50.6827 19.1694 50.9088 17.2023 50.614 15.2775C50.3192 13.3527 49.514 11.5382 48.279 10.0164C47.044 8.49462 45.423 7.3193 43.5791 6.60865C41.7352 5.898 39.7333 5.67706 37.775 5.96812C37.5766 5.99771 37.3782 6.02905 37.1807 6.06038C37.0816 5.88633 36.9833 5.7175 36.8833 5.54605C35.8937 3.85998 34.4698 2.45972 32.7548 1.48615C31.0397 0.51257 29.0941 0 27.1135 0C25.1329 0 23.1872 0.51257 21.4722 1.48615C19.7572 2.45972 18.3332 3.85998 17.3437 5.54605C17.2436 5.72011 17.1445 5.88981 17.0462 6.06038C16.8484 6.02847 16.6501 5.99771 16.4511 5.96812C14.4927 5.67716 12.4908 5.89821 10.6469 6.60897C8.80298 7.31973 7.18206 8.49516 5.94719 10.017C4.71232 11.5389 3.90715 13.3535 3.61248 15.2783C3.31782 17.2032 3.54407 19.1703 4.26864 20.9819C4.34303 21.1655 4.41746 21.3483 4.49273 21.531C4.34396 21.6633 4.19637 21.7965 4.04996 21.9305C2.59722 23.2537 1.52476 24.9296 0.940395 26.7896C0.35603 28.6495 0.280318 30.6279 0.721064 32.5257C1.16181 34.4235 2.10345 36.1737 3.45109 37.6003C4.79873 39.0269 6.50492 40.0796 8.398 40.6524L8.97449 40.8265C8.98689 41.0231 9.00049 41.2201 9.01524 41.4173C9.14743 43.3625 9.80609 45.2376 10.9232 46.8486C12.0403 48.4596 13.5751 49.7479 15.369 50.5803C16.9032 51.3126 18.586 51.6949 20.2916 51.6986C22.5534 51.6947 24.7604 51.0148 26.6197 49.7492C26.7862 49.637 26.9501 49.5256 27.1157 49.4116C27.2798 49.5276 27.4448 49.6402 27.6107 49.7492C29.2466 50.8467 31.1478 51.5014 33.1229 51.6474C35.0981 51.7934 37.0775 51.4257 38.8621 50.5811C40.6467 49.7365 42.1735 48.4448 43.2887 46.8362C44.404 45.2275 45.0684 43.3585 45.2153 41.4173C45.2294 41.2198 45.2436 41.024 45.256 40.8265C45.4491 40.7708 45.6403 40.7133 45.8325 40.6524C47.7256 40.0796 49.4318 39.0269 50.7794 37.6003C52.1271 36.1737 53.0686 34.4235 53.5093 32.5257C53.9501 30.6279 53.8745 28.6495 53.2901 26.7896C52.7057 24.9296 51.6333 23.2537 50.1806 21.9305L50.177 21.9296ZM46.9084 11.0888C47.9603 12.3642 48.6472 13.8922 48.8986 15.5152C49.15 17.1383 48.9567 18.7979 48.3386 20.3231C46.1836 18.5054 43.9098 16.8286 41.5315 15.3035C40.5481 12.6852 39.3905 10.1333 38.0663 7.66429C39.7173 7.41079 41.4073 7.59408 42.9623 8.19535C44.5173 8.79661 45.8812 9.79411 46.9138 11.0853L46.9084 11.0888ZM43.2901 30.2345C40.7566 34.2611 37.7423 37.9756 34.3116 41.299C29.5285 41.8632 24.694 41.8632 19.9109 41.299C16.4802 37.9756 13.4659 34.2611 10.9324 30.2345C11.4375 25.5264 12.5134 20.8945 14.1372 16.4374C18.1976 13.8895 22.5535 11.8281 27.1121 10.2968C31.6704 11.8282 36.026 13.8897 40.0862 16.4374C41.7124 20.8925 42.791 25.5226 43.299 30.2293L43.2901 30.2345ZM39.0537 13.797C36.1145 12.1006 33.0381 10.6452 29.8556 9.44571C31.9583 8.84491 34.0912 8.3511 36.2457 7.96626C37.2842 9.85985 38.2232 11.8045 39.0591 13.7927L39.0537 13.797ZM27.1121 1.71954C28.7823 1.70722 30.4256 2.13239 31.8731 2.95131C33.3206 3.77024 34.5199 4.95334 35.3477 6.37892C32.5587 6.90127 29.8075 7.60305 27.1121 8.47973C24.4167 7.60318 21.6656 6.9014 18.8766 6.37892C19.7042 4.95183 20.9039 3.76735 22.3522 2.94759C23.8006 2.12784 25.4452 1.70243 27.1166 1.71519L27.1121 1.71954ZM17.9778 7.9645C20.1325 8.34967 22.2656 8.84348 24.3687 9.44396C21.1859 10.6435 18.1092 12.0989 15.1697 13.7953C16.0047 11.804 16.9438 9.85632 17.9831 7.96015L17.9778 7.9645ZM7.3141 11.0888C8.19312 9.98831 9.31503 9.09852 10.5952 8.48659C11.8754 7.87465 13.2803 7.55656 14.7039 7.55636C15.1904 7.55644 15.6761 7.59253 16.1571 7.66429C14.8332 10.1334 13.6757 12.6853 12.692 15.3035C10.3137 16.8285 8.0397 18.5054 5.88482 20.3231C5.26657 18.7969 5.07357 17.1363 5.32574 15.5124C5.5779 13.8884 6.26609 12.36 7.3194 11.0844L7.3141 11.0888ZM8.87969 38.998C7.28717 38.5106 5.85278 37.6208 4.71995 36.4176C3.58712 35.2144 2.79553 33.7401 2.42437 32.142C2.05322 30.5439 2.11554 28.878 2.605 27.311C3.09447 25.7439 3.99393 24.3306 5.21353 23.2123C6.35251 25.7689 7.66088 28.2493 9.13026 30.6374C8.86278 33.4146 8.78086 36.206 8.88499 38.9937L8.87969 38.998ZM6.58789 22.001C8.23715 20.5854 9.95947 19.2541 11.748 18.0126C10.7191 21.2067 9.95941 24.4786 9.47661 27.7952C8.41444 25.9123 7.45169 23.9769 6.59233 21.9966L6.58789 22.001ZM10.6968 33.0533C12.5959 35.8356 14.7251 38.4594 17.063 40.8978C14.903 40.542 12.763 40.0773 10.6516 39.5054C10.5557 37.3535 10.5725 35.1982 10.7021 33.048L10.6968 33.0533ZM16.1243 49.0269C14.6137 48.326 13.3203 47.2422 12.3774 45.887C11.4345 44.5318 10.8762 42.9541 10.7597 41.3164C13.5039 42.0355 16.2931 42.5768 19.1095 42.9368C21.1512 44.8764 23.3204 46.6821 25.6032 48.342C24.2275 49.2714 22.6249 49.824 20.96 49.9433C19.2951 50.0626 17.6279 49.7442 16.1296 49.0208L16.1243 49.0269ZM27.1113 47.2951C25.34 46.0298 23.636 44.6759 22.0061 43.2388C25.4035 43.5144 28.8182 43.5144 32.2156 43.2388C30.5874 44.6735 28.8854 46.0253 27.1166 47.289L27.1113 47.2951ZM38.0973 49.0269C36.5983 49.7499 34.9303 50.0675 33.265 49.9469C31.5997 49.8264 29.9971 49.2721 28.622 48.3411C30.9049 46.681 33.0744 44.8754 35.1166 42.9359C37.9326 42.5759 40.7216 42.0345 43.4655 41.3155C43.3484 42.9521 42.7899 44.5284 41.8476 45.8826C40.9052 47.2368 39.6129 48.32 38.1035 49.0208L38.0973 49.0269ZM43.569 39.5054C41.4579 40.0773 39.3183 40.542 37.1586 40.8978C39.4962 38.4594 41.6253 35.8357 43.524 33.0533C43.6535 35.1997 43.6707 37.3512 43.5753 39.4993L43.569 39.5054ZM42.4737 18.01C44.2623 19.2514 45.9846 20.5826 47.6338 21.9984C46.7728 23.977 45.8086 25.9106 44.745 27.7917C44.2648 24.4749 43.5072 21.2026 42.4798 18.0082L42.4737 18.01ZM51.8002 32.1378C51.4408 33.7411 50.6533 35.2213 49.5187 36.4263C48.384 37.6313 46.9433 38.5175 45.3446 38.9937C45.4471 36.2047 45.3634 33.4121 45.094 30.6339C46.5636 28.2456 47.8719 25.7649 49.0107 23.208C50.241 24.3187 51.148 25.7314 51.6383 27.3009C52.1285 28.8704 52.1845 30.54 51.8002 32.1378Z" />
</svg>
