<svg width="54" height="52" viewBox="0 0 54 52" fill="none" xmlns="http://www.w3.org/2000/svg">
<path d="M49.7386 21.9296L49.2959 21.5301C49.3711 21.3474 49.4456 21.1646 49.52 20.981C50.2444 19.1694 50.4705 17.2023 50.1757 15.2775C49.8809 13.3527 49.0756 11.5382 47.8406 10.0164C46.6057 8.49462 44.9846 7.3193 43.1407 6.60865C41.2968 5.898 39.295 5.67706 37.3366 5.96812C37.1382 5.99771 36.9399 6.02905 36.7424 6.06038C36.6432 5.88633 36.545 5.7175 36.4449 5.54605C35.4554 3.85998 34.0314 2.45972 32.3164 1.48615C30.6014 0.51257 28.6558 0 26.6752 0C24.6946 0 22.7489 0.51257 21.0338 1.48615C19.3188 2.45972 17.8949 3.85998 16.9053 5.54605C16.8053 5.72011 16.7061 5.88981 16.6079 6.06038C16.4101 6.02847 16.2117 5.99771 16.0128 5.96812C14.0544 5.67716 12.0524 5.89821 10.2085 6.60897C8.36463 7.31973 6.74371 8.49516 5.50884 10.017C4.27397 11.5389 3.46879 13.3535 3.17413 15.2783C2.87946 17.2032 3.10572 19.1703 3.83029 20.9819C3.90467 21.1655 3.9791 21.3483 4.05437 21.531C3.9056 21.6633 3.75801 21.7965 3.6116 21.9305C2.15886 23.2537 1.08641 24.9296 0.502041 26.7896C-0.0823245 28.6495 -0.158037 30.6279 0.282709 32.5257C0.723455 34.4235 1.66509 36.1737 3.01274 37.6003C4.36038 39.0269 6.06657 40.0796 7.95965 40.6524L8.53614 40.8265C8.54853 41.0231 8.56213 41.2201 8.57689 41.4173C8.70907 43.3625 9.36774 45.2376 10.4848 46.8486C11.6019 48.4596 13.1368 49.7479 14.9306 50.5803C16.4649 51.3126 18.1476 51.6949 19.8533 51.6986C22.115 51.6947 24.3221 51.0148 26.1814 49.7492C26.3479 49.637 26.5117 49.5256 26.6773 49.4116C26.8415 49.5276 27.0064 49.6402 27.1723 49.7492C28.8082 50.8467 30.7094 51.5014 32.6846 51.6474C34.6597 51.7934 36.6392 51.4257 38.4237 50.5811C40.2083 49.7365 41.7351 48.4448 42.8504 46.8362C43.9657 45.2275 44.6301 43.3585 44.7769 41.4173C44.7911 41.2198 44.8053 41.024 44.8177 40.8265C45.0107 40.7708 45.202 40.7133 45.3942 40.6524C47.2872 40.0796 48.9934 39.0269 50.3411 37.6003C51.6887 36.1737 52.6302 34.4235 53.071 32.5257C53.5117 30.6279 53.4361 28.6495 52.8518 26.7896C52.2674 24.9296 51.1949 23.2537 49.7422 21.9305L49.7386 21.9296ZM46.4701 11.0888C47.5219 12.3642 48.2089 13.8922 48.4603 15.5152C48.7116 17.1383 48.5183 18.7979 47.9002 20.3231C45.7453 18.5054 43.4714 16.8286 41.0931 15.3035C40.1098 12.6852 38.9522 10.1333 37.6279 7.66429C39.2789 7.41079 40.9689 7.59408 42.5239 8.19535C44.0789 8.79661 45.4429 9.79411 46.4755 11.0853L46.4701 11.0888ZM42.8518 30.2345C40.3182 34.2611 37.304 37.9756 33.8732 41.299C29.0902 41.8632 24.2556 41.8632 19.4726 41.299C16.0418 37.9756 13.0276 34.2611 10.494 30.2345C10.9992 25.5264 12.0751 20.8945 13.6988 16.4374C17.7593 13.8895 22.1152 11.8281 26.6738 10.2968C31.232 11.8282 35.5877 13.8897 39.6479 16.4374C41.274 20.8925 42.3526 25.5226 42.8606 30.2293L42.8518 30.2345ZM38.6153 13.797C35.6762 12.1006 32.5997 10.6452 29.4172 9.44571C31.5199 8.84491 33.6528 8.3511 35.8073 7.96626C36.8459 9.85985 37.7849 11.8045 38.6207 13.7927L38.6153 13.797ZM26.6738 1.71954C28.3439 1.70722 29.9873 2.13239 31.4347 2.95131C32.8822 3.77024 34.0815 4.95334 34.9094 6.37892C32.1203 6.90127 29.3692 7.60305 26.6738 8.47973C23.9783 7.60318 21.2273 6.9014 18.4383 6.37892C19.2658 4.95183 20.4655 3.76735 21.9139 2.94759C23.3622 2.12784 25.0068 1.70243 26.6782 1.71519L26.6738 1.71954ZM17.5394 7.9645C19.6942 8.34967 21.8272 8.84348 23.9303 9.44396C20.7475 10.6435 17.6708 12.0989 14.7314 13.7953C15.5664 11.804 16.5054 9.85632 17.5447 7.96015L17.5394 7.9645ZM6.87574 11.0888C7.75477 9.98831 8.87668 9.09852 10.1569 8.48659C11.437 7.87465 12.842 7.55656 14.2656 7.55636C14.752 7.55644 15.2378 7.59253 15.7187 7.66429C14.3948 10.1334 13.2373 12.6853 12.2536 15.3035C9.8753 16.8285 7.60134 18.5054 5.44647 20.3231C4.82821 18.7969 4.63522 17.1363 4.88738 15.5124C5.13954 13.8884 5.82773 12.36 6.88104 11.0844L6.87574 11.0888ZM8.44133 38.998C6.84881 38.5106 5.41443 37.6208 4.2816 36.4176C3.14877 35.2144 2.35717 33.7401 1.98602 32.142C1.61486 30.5439 1.67719 28.878 2.16665 27.311C2.65611 25.7439 3.55557 24.3306 4.77517 23.2123C5.91415 25.7689 7.22252 28.2493 8.69191 30.6374C8.42442 33.4146 8.3425 36.206 8.44663 38.9937L8.44133 38.998ZM6.14954 22.001C7.7988 20.5854 9.52112 19.2541 11.3096 18.0126C10.2807 21.2067 9.52106 24.4786 9.03825 27.7952C7.97609 25.9123 7.01334 23.9769 6.15397 21.9966L6.14954 22.001ZM10.2585 33.0533C12.1575 35.8356 14.2868 38.4594 16.6246 40.8978C14.4646 40.542 12.3247 40.0773 10.2133 39.5054C10.1173 37.3535 10.1342 35.1982 10.2638 33.048L10.2585 33.0533ZM15.686 49.0269C14.1753 48.326 12.882 47.2422 11.9391 45.887C10.9962 44.5318 10.4378 42.9541 10.3214 41.3164C13.0656 42.0355 15.8548 42.5768 18.6711 42.9368C20.7128 44.8764 22.8821 46.6821 25.1648 48.342C23.7892 49.2714 22.1866 49.824 20.5217 49.9433C18.8568 50.0626 17.1896 49.7442 15.6913 49.0208L15.686 49.0269ZM26.6729 47.2951C24.9017 46.0298 23.1977 44.6759 21.5677 43.2388C24.9651 43.5144 28.3798 43.5144 31.7772 43.2388C30.149 44.6735 28.4471 46.0253 26.6782 47.289L26.6729 47.2951ZM37.659 49.0269C36.1599 49.7499 34.4919 50.0675 32.8266 49.9469C31.1613 49.8264 29.5588 49.2721 28.1837 48.3411C30.4665 46.681 32.636 44.8754 34.6782 42.9359C37.4943 42.5759 40.2832 42.0345 43.0271 41.3155C42.91 42.9521 42.3516 44.5284 41.4092 45.8826C40.4669 47.2368 39.1745 48.32 37.6651 49.0208L37.659 49.0269ZM43.1307 39.5054C41.0196 40.0773 38.8799 40.542 36.7202 40.8978C39.0578 38.4594 41.1869 35.8357 43.0856 33.0533C43.2152 35.1997 43.2323 37.3512 43.137 39.4993L43.1307 39.5054ZM42.0353 18.01C43.8239 19.2514 45.5463 20.5826 47.1954 21.9984C46.3344 23.977 45.3702 25.9106 44.3067 27.7917C43.8265 24.4749 43.0688 21.2026 42.0415 18.0082L42.0353 18.01ZM51.3618 32.1378C51.0025 33.7411 50.2149 35.2213 49.0803 36.4263C47.9457 37.6313 46.5049 38.5175 44.9062 38.9937C45.0087 36.2047 44.925 33.4121 44.6556 30.6339C46.1252 28.2456 47.4336 25.7649 48.5724 23.208C49.8027 24.3187 50.7096 25.7314 51.1999 27.3009C51.6902 28.8704 51.7461 30.54 51.3618 32.1378Z" fill="#9146FF"/>
</svg>
