<svg viewBox="0 0 127 45" fill="none" xmlns="http://www.w3.org/2000/svg">
<path d="M51.8834 41.3312V15.9465C51.8834 11.2756 55.6697 7.48926 60.3404 7.48926L67.8354 7.50055C72.4926 7.5098 76.2632 11.2878 76.2632 15.9452V21.3484C76.2632 26.0192 72.4767 29.8056 67.806 29.8056H57.2151" stroke="#909090" stroke-width="2.97639" stroke-miterlimit="10" stroke-linecap="round" stroke-linejoin="round"/>
<path d="M78.3577 7.48584H81.6088C83.5257 7.48584 85.0794 9.0397 85.0794 10.9566V29.9191" stroke="#909090" stroke-width="2.97639" stroke-miterlimit="10" stroke-linecap="round" stroke-linejoin="round"/>
<path d="M84.3823 4.54776L82.908 3.07321C82.542 2.7074 82.542 2.11421 82.908 1.7484L84.3814 0.274775C84.748 -0.0915917 85.3419 -0.0915917 85.7081 0.274775L87.1815 1.7484C87.5475 2.11421 87.5475 2.7074 87.1815 3.07321L85.7072 4.54776C85.3414 4.91357 84.7483 4.91357 84.3823 4.54776Z" fill="#9146FF"/>
<path d="M91.3169 7.46875H94.5412C96.1999 7.46875 97.7907 8.12773 98.9634 9.3004L106.505 16.842C107.482 17.8189 109.066 17.8189 110.043 16.842L117.557 9.32801C118.729 8.15534 120.32 7.49636 121.979 7.49636H124.6" stroke="#909090" stroke-width="2.97639" stroke-miterlimit="10" stroke-linecap="round" stroke-linejoin="round"/>
<path d="M91.3169 29.7529H94.5412C96.1999 29.7529 97.7907 29.0939 98.9634 27.9213L106.505 20.3797C107.482 19.4027 109.066 19.4027 110.043 20.3797L117.557 27.8937C118.729 29.0663 120.32 29.7253 121.979 29.7253H124.6" stroke="#909090" stroke-width="2.97639" stroke-miterlimit="10" stroke-linecap="round" stroke-linejoin="round"/>
<path d="M32.6606 34.5702C31.0425 34.5702 29.5205 33.9401 28.3761 32.7964L22.1898 26.6098C21.7554 26.1743 20.9984 26.1756 20.5642 26.6098L14.3552 32.819C13.2109 33.9627 11.6889 34.5928 10.0707 34.5928H8.85159L16.6869 42.4279C19.1338 44.8748 23.1012 44.8748 25.5483 42.4279L33.4058 34.5702H32.6606Z" fill="#9146FF"/>
<path d="M10.0707 12.6886C11.6888 12.6886 13.2108 13.3187 14.3552 14.4625L20.5641 20.6725C21.0113 21.1199 21.7414 21.1216 22.1897 20.672L28.3761 14.4851C29.5204 13.3413 31.0424 12.7113 32.6605 12.7113H33.4057L25.5483 4.85374C23.1011 2.40666 19.1337 2.40666 16.6868 4.85374L8.85187 12.6887L10.0707 12.6886Z" fill="#9146FF"/>
<path d="M39.9051 19.2106L35.1568 14.4623C35.0522 14.5041 34.939 14.5303 34.8195 14.5303H32.6606C31.5444 14.5303 30.4518 14.983 29.6631 15.7723L23.4769 21.9586C22.898 22.5375 22.1373 22.8272 21.3773 22.8272C20.6166 22.8272 19.8564 22.5375 19.2777 21.9592L13.0682 15.7496C12.2795 14.9602 11.1868 14.5077 10.0707 14.5077H7.41607C7.30284 14.5077 7.19704 14.481 7.09715 14.4434L2.32994 19.2106C-0.117141 21.6577 -0.117141 25.6249 2.32994 28.072L7.09696 32.839C7.19703 32.8014 7.30284 32.7747 7.41607 32.7747H10.0707C11.1868 32.7747 12.2795 32.3222 13.0682 31.5329L19.2771 25.3239C20.3994 24.2026 22.3558 24.2022 23.4769 25.3245L29.6631 31.5103C30.4518 32.2995 31.5444 32.7522 32.6606 32.7522H34.8195C34.939 32.7522 35.0522 32.7783 35.1568 32.8203L39.9051 28.0719C42.352 25.6249 42.352 21.6576 39.9051 19.2106" fill="#9146FF"/>
<path d="M58.3287 39.1731C57.9782 39.1731 57.5704 39.2574 57.1669 39.3505V40.8973C57.4464 40.9994 57.7655 41.0485 58.0714 41.0485C58.8472 41.0485 59.215 40.7868 59.215 40.1036C59.215 39.4613 58.9137 39.1731 58.3287 39.1731ZM56.9052 42.0459V38.9867H57.1182L57.1404 39.1199C57.4993 39.0356 57.9958 38.9248 58.3505 38.9248C58.639 38.9248 58.9137 38.9687 59.144 39.1551C59.4103 39.3727 59.4945 39.7226 59.4945 40.1036C59.4945 40.5033 59.3612 40.8799 58.9978 41.088C58.7452 41.2299 58.4039 41.2876 58.0979 41.2876C57.7831 41.2876 57.4817 41.2387 57.1669 41.1458V42.0459H56.9052Z" fill="#909090"/>
<path d="M61.4421 39.164C60.6662 39.164 60.3204 39.4081 60.3204 40.0908C60.3204 40.7513 60.6618 41.0485 61.4421 41.0485C62.2134 41.0485 62.5592 40.8089 62.5592 40.1262C62.5592 39.4657 62.218 39.164 61.4421 39.164ZM62.4395 41.0485C62.1823 41.2344 61.8367 41.2878 61.4421 41.2878C61.0387 41.2878 60.6927 41.2301 60.4401 41.0485C60.1564 40.8491 60.041 40.5207 60.041 40.1088C60.041 39.7005 60.1564 39.3684 60.4401 39.164C60.6927 38.9826 61.0387 38.9248 61.4421 38.9248C61.8409 38.9248 62.1823 38.9826 62.4395 39.164C62.7279 39.3684 62.8385 39.7005 62.8385 40.1038C62.8385 40.5165 62.7232 40.8491 62.4395 41.0485Z" fill="#909090"/>
<path d="M66.1119 41.2253L65.2475 39.3681H65.2295L64.3785 41.2253H64.1435L63.2214 38.9863H63.5096L64.2766 40.866H64.2944L65.1276 38.9863H65.367L66.2228 40.866H66.2406L66.9898 38.9863H67.2689L66.347 41.2253H66.1119Z" fill="#909090"/>
<path d="M68.9412 39.1596C68.2231 39.1596 67.9792 39.4787 67.9347 39.9401H69.9476C69.9256 39.4303 69.6637 39.1596 68.9412 39.1596ZM68.9324 41.2876C68.5021 41.2876 68.2231 41.2257 68.0014 41.0392C67.7398 40.8132 67.651 40.4853 67.651 40.1086C67.651 39.7495 67.7709 39.3683 68.068 39.1509C68.3161 38.9782 68.6221 38.9248 68.9412 38.9248C69.2295 38.9248 69.562 38.9557 69.8366 39.1422C70.1603 39.3592 70.2226 39.7407 70.2226 40.1749H67.926C67.9347 40.6358 68.0856 41.0441 68.9543 41.0441C69.3668 41.0441 69.7525 40.9774 70.1116 40.9153V41.1501C69.7391 41.217 69.3268 41.2876 68.9324 41.2876Z" fill="#909090"/>
<path d="M70.9731 41.2257V38.9867H71.1859L71.2083 39.1199C71.6825 39.0004 71.9042 38.9248 72.321 38.9248H72.3521V39.1731H72.2898C71.9398 39.1731 71.727 39.2217 71.235 39.3505V41.2257H70.9731Z" fill="#909090"/>
<path d="M73.8712 39.1596C73.1531 39.1596 72.9093 39.4787 72.8648 39.9401H74.8777C74.8556 39.4303 74.5938 39.1596 73.8712 39.1596ZM73.8625 41.2876C73.4322 41.2876 73.1531 41.2257 72.9315 41.0392C72.6696 40.8132 72.5811 40.4853 72.5811 40.1086C72.5811 39.7495 72.701 39.3683 72.998 39.1509C73.2462 38.9782 73.5521 38.9248 73.8712 38.9248C74.1596 38.9248 74.492 38.9557 74.7666 39.1422C75.0904 39.3592 75.1527 39.7407 75.1527 40.1749H72.8561C72.8648 40.6358 73.0156 41.0441 73.8844 41.0441C74.2967 41.0441 74.6823 40.9774 75.0417 40.9153V41.1501C74.6692 41.217 74.2569 41.2876 73.8625 41.2876Z" fill="#909090"/>
<path d="M78.0181 39.3153C77.7388 39.2132 77.4197 39.1643 77.1137 39.1643C76.338 39.1643 75.9697 39.4263 75.9697 40.1089C75.9697 40.7558 76.2713 41.0395 76.8563 41.0395C77.2067 41.0395 77.6146 40.9552 78.0181 40.8666V39.3153ZM78.0669 41.2259L78.0447 41.0927C77.6856 41.177 77.189 41.288 76.8343 41.288C76.5465 41.288 76.2713 41.2481 76.0407 41.0575C75.7748 40.8401 75.6905 40.4899 75.6905 40.1089C75.6905 39.7099 75.8235 39.3328 76.1869 39.1289C76.4397 38.9827 76.7811 38.9251 77.0915 38.9251C77.4019 38.9251 77.7034 38.9784 78.0181 39.067V38.043H78.2797V41.2259H78.0669Z" fill="#909090"/>
<path d="M82.1151 39.1731C81.7646 39.1731 81.3568 39.2574 80.9533 39.3504V40.893C81.2372 40.9994 81.5519 41.0485 81.8578 41.0485C82.6336 41.0485 83.0014 40.7868 83.0014 40.1036C83.0014 39.4613 82.7001 39.1731 82.1151 39.1731ZM82.7844 41.0879C82.5317 41.2299 82.1903 41.2875 81.8844 41.2875C81.5519 41.2875 81.2194 41.2299 80.8825 41.1191L80.8692 41.2256H80.6917V38.0425H80.9533V39.1106C81.3125 39.0313 81.7956 38.9248 82.1369 38.9248C82.4255 38.9248 82.7001 38.9687 82.9304 39.1551C83.1967 39.3727 83.2809 39.7225 83.2809 40.1036C83.2809 40.5033 83.1476 40.8798 82.7844 41.0879Z" fill="#909090"/>
<path d="M83.6279 42.0852V41.8417C83.7563 41.8547 83.8764 41.8639 83.9605 41.8639C84.2843 41.8639 84.4791 41.7705 84.6609 41.4025L84.7452 41.2253L83.5749 38.9863H83.8764L84.8784 40.9192H84.896L85.8491 38.9863H86.1462L84.8871 41.5003C84.6566 41.9569 84.4083 42.1074 83.9516 42.1074C83.8495 42.1074 83.7389 42.0987 83.6279 42.0852" fill="#909090"/>
<path d="M89.7513 39.9489H88.8825V40.7339H89.7555C90.3541 40.7339 90.5804 40.667 90.5804 40.3392C90.5804 39.9886 90.2702 39.9489 89.7513 39.9489ZM89.5919 38.6765H88.8825V39.4743H89.5962C90.1858 39.4743 90.4206 39.4037 90.4206 39.0711C90.4206 38.7167 90.1238 38.6765 89.5919 38.6765ZM90.9395 41.0132C90.62 41.217 90.2344 41.2257 89.5296 41.2257H88.2041V38.189H89.4987C90.106 38.189 90.4783 38.1977 90.7887 38.3841C91.0105 38.5172 91.0989 38.721 91.0989 38.9869C91.0989 39.3059 90.9662 39.519 90.62 39.6609V39.6784C91.0105 39.7675 91.2631 39.9669 91.2631 40.3968C91.2631 40.6893 91.1567 40.8799 90.9395 41.0132" fill="#909090"/>
<path d="M93.9153 40.286C93.6534 40.2635 93.3877 40.2506 93.1084 40.2506C92.6518 40.2506 92.4919 40.3436 92.4919 40.5517C92.4919 40.7468 92.6251 40.8534 92.9752 40.8534C93.2678 40.8534 93.618 40.787 93.9153 40.7201V40.286ZM94.0481 41.2257L94.0304 41.0926C93.649 41.186 93.2059 41.2878 92.8156 41.2878C92.576 41.2878 92.3191 41.2566 92.1372 41.1236C91.9691 41.0041 91.889 40.8089 91.889 40.5828C91.889 40.3299 92 40.0951 92.2658 39.9756C92.5007 39.8647 92.8156 39.856 93.104 39.856C93.3388 39.856 93.6534 39.869 93.9153 39.887V39.8468C93.9153 39.4967 93.6845 39.3815 93.055 39.3815C92.8112 39.3815 92.5141 39.3944 92.2304 39.4211V38.9689C92.545 38.9428 92.8999 38.9248 93.1925 38.9248C93.5824 38.9248 93.9862 38.956 94.2344 39.1331C94.4912 39.3151 94.5403 39.5678 94.5403 39.8999V41.2257L94.0481 41.2257Z" fill="#909090"/>
<path d="M97.4632 41.2257V39.9885C97.4632 39.581 97.2551 39.4346 96.8824 39.4346C96.6078 39.4346 96.262 39.5054 95.9692 39.5766V41.2257H95.3441V38.9867H95.854L95.8762 39.1287C96.2705 39.0269 96.7097 38.9248 97.0733 38.9248C97.3479 38.9248 97.6274 38.9645 97.8401 39.1553C98.0173 39.3151 98.084 39.5363 98.084 39.8558V41.2257H97.4632Z" fill="#909090"/>
<path d="M99.85 41.2876C99.5619 41.2876 99.2468 41.2479 99.0165 41.0528C98.7417 40.831 98.6618 40.4809 98.6618 40.1036C98.6618 39.7493 98.7771 39.3635 99.1184 39.1464C99.3979 38.9645 99.7435 38.9248 100.103 38.9248C100.36 38.9248 100.613 38.9426 100.892 38.9687V39.4476C100.665 39.4259 100.395 39.4079 100.178 39.4079C99.5837 39.4079 99.3046 39.5943 99.3046 40.1086C99.3046 40.5919 99.5129 40.8 100 40.8C100.284 40.8 100.617 40.7468 100.941 40.6847V41.1456C100.59 41.217 100.209 41.2876 99.85 41.2876" fill="#909090"/>
<path d="M102.787 39.3944C102.193 39.3944 101.931 39.5808 101.931 40.0906C101.931 40.6006 102.188 40.818 102.787 40.818C103.376 40.818 103.633 40.6358 103.633 40.126C103.633 39.6162 103.381 39.3944 102.787 39.3944ZM103.86 41.0528C103.585 41.2386 103.226 41.2876 102.787 41.2876C102.339 41.2876 101.98 41.2344 101.71 41.0528C101.399 40.8489 101.288 40.512 101.288 40.1086C101.288 39.7048 101.399 39.3634 101.71 39.1596C101.98 38.978 102.339 38.9248 102.787 38.9248C103.23 38.9248 103.585 38.978 103.86 39.1596C104.17 39.3634 104.277 39.7048 104.277 40.1038C104.277 40.5076 104.166 40.8489 103.86 41.0528Z" fill="#909090"/>
<path d="M107.886 41.2872C107.509 41.2872 107.101 41.2253 106.795 40.9725C106.432 40.6708 106.321 40.2055 106.321 39.7042C106.321 39.2569 106.462 38.7248 106.937 38.4146C107.305 38.1754 107.761 38.1265 108.222 38.1265C108.56 38.1265 108.905 38.1487 109.282 38.1797V38.7248C108.959 38.6982 108.56 38.6759 108.249 38.6759C107.385 38.6759 107.017 39.0043 107.017 39.7042C107.017 40.4186 107.358 40.7378 107.997 40.7378C108.413 40.7378 108.879 40.6534 109.349 40.5556V41.0963C108.879 41.1899 108.386 41.2872 107.886 41.2872" fill="#909090"/>
<path d="M111.186 39.3238C110.667 39.3238 110.467 39.5102 110.427 39.8516H111.935C111.917 39.488 111.704 39.3238 111.186 39.3238ZM111.092 41.2878C110.724 41.2878 110.392 41.2436 110.144 41.0392C109.878 40.818 109.784 40.4853 109.784 40.1038C109.784 39.7624 109.895 39.3814 110.206 39.1596C110.48 38.9646 110.831 38.9248 111.186 38.9248C111.505 38.9248 111.882 38.9602 112.156 39.1509C112.516 39.4037 112.546 39.7939 112.551 40.2548H110.423C110.436 40.5963 110.618 40.818 111.247 40.818C111.638 40.818 112.072 40.7603 112.44 40.7027V41.1415C112.01 41.2127 111.54 41.2878 111.092 41.2878Z" fill="#909090"/>
<path d="M115.332 41.2257V39.9885C115.332 39.581 115.124 39.4346 114.751 39.4346C114.476 39.4346 114.131 39.5054 113.838 39.5766V41.2257H113.213V38.9867H113.723L113.745 39.1287C114.139 39.0269 114.578 38.9248 114.942 38.9248C115.217 38.9248 115.496 38.9645 115.709 39.1553C115.886 39.3151 115.953 39.5363 115.953 39.8558V41.2257H115.332Z" fill="#909090"/>
<path d="M117.732 41.2874C117.431 41.2874 117.156 41.2031 117.005 40.9683C116.894 40.8086 116.841 40.5917 116.841 40.29V39.4519H116.389V38.9865H116.841L116.908 38.3081H117.462V38.9865H118.344V39.4519H117.462V40.1703C117.462 40.3432 117.475 40.4894 117.524 40.596C117.59 40.7467 117.736 40.8041 117.931 40.8041C118.078 40.8041 118.255 40.7819 118.379 40.7602V41.2075C118.175 41.2478 117.94 41.2874 117.732 41.2874" fill="#909090"/>
<path d="M118.954 41.2257V38.9867H119.464L119.486 39.1287C119.898 39.0134 120.204 38.9248 120.594 38.9248C120.612 38.9248 120.638 38.9248 120.674 38.929V39.4612C120.603 39.457 120.519 39.457 120.456 39.457C120.151 39.457 119.92 39.4922 119.579 39.5723V41.2257L118.954 41.2257Z" fill="#909090"/>
<path d="M122.946 40.286C122.685 40.2635 122.419 40.2506 122.139 40.2506C121.683 40.2506 121.523 40.3436 121.523 40.5517C121.523 40.7468 121.656 40.8534 122.006 40.8534C122.299 40.8534 122.649 40.787 122.946 40.7201V40.286ZM123.079 41.2257L123.062 41.0926C122.68 41.186 122.237 41.2878 121.847 41.2878C121.607 41.2878 121.35 41.2566 121.168 41.1236C121 41.0041 120.92 40.8089 120.92 40.5828C120.92 40.3299 121.031 40.0951 121.297 39.9756C121.532 39.8647 121.847 39.856 122.135 39.856C122.37 39.856 122.685 39.869 122.946 39.887V39.8468C122.946 39.4967 122.716 39.3815 122.086 39.3815C121.842 39.3815 121.545 39.3944 121.261 39.4211V38.9689C121.576 38.9428 121.931 38.9248 122.224 38.9248C122.614 38.9248 123.017 38.956 123.265 39.1331C123.522 39.3151 123.571 39.5678 123.571 39.8999V41.2257L123.079 41.2257Z" fill="#909090"/>
<path d="M124.375 38.043H125V41.2259H124.375V38.043Z" fill="#909090"/>
</svg>
