<svg width="42" height="45" viewBox="0 0 42 45" fill="none" xmlns="http://www.w3.org/2000/svg">
<path d="M39.1542 19.0881L38.8056 18.7405C38.8649 18.5814 38.9235 18.4223 38.982 18.2625C39.5523 16.6856 39.7303 14.9734 39.4982 13.298C39.2662 11.6226 38.6323 10.0432 37.6601 8.71856C36.6879 7.39397 35.4119 6.37093 33.9603 5.75236C32.5088 5.13379 30.933 4.94148 29.3913 5.19483C29.2352 5.22058 29.079 5.24786 28.9236 5.27513C28.8455 5.12363 28.7682 4.97668 28.6894 4.82745C27.9104 3.35984 26.7895 2.14102 25.4394 1.29359C24.0894 0.446156 22.5578 0 20.9987 0C19.4395 0 17.9079 0.446156 16.5578 1.29359C15.2077 2.14102 14.0868 3.35984 13.3079 4.82745C13.2291 4.97895 13.1511 5.12666 13.0737 5.27513C12.918 5.24736 12.7618 5.22058 12.6052 5.19483C11.0636 4.94156 9.48766 5.13397 8.03614 5.75264C6.58463 6.37131 5.30864 7.39444 4.33655 8.71912C3.36446 10.0438 2.73063 11.6233 2.49867 13.2987C2.26671 14.9741 2.44482 16.6864 3.0152 18.2632C3.07375 18.4231 3.13234 18.5822 3.1916 18.7413C3.07449 18.8564 2.9583 18.9723 2.84305 19.0889C1.69945 20.2407 0.855218 21.6995 0.395206 23.3184C-0.0648058 24.9374 -0.124407 26.6594 0.222548 28.3113C0.569503 29.9632 1.31076 31.4867 2.37162 32.7284C3.43249 33.9702 4.7756 34.8865 6.26583 35.385L6.71964 35.5366C6.7294 35.7078 6.7401 35.8792 6.75172 36.0509C6.85577 37.744 7.37427 39.3761 8.25364 40.7784C9.13302 42.1807 10.3413 43.3021 11.7533 44.0266C12.9611 44.664 14.2858 44.9968 15.6285 45C17.4089 44.9966 19.1463 44.4048 20.6099 43.3032C20.741 43.2055 20.87 43.1085 21.0004 43.0093C21.1296 43.1103 21.2594 43.2083 21.39 43.3032C22.6778 44.2585 24.1744 44.8283 25.7293 44.9554C27.2841 45.0825 28.8423 44.7624 30.2471 44.0272C31.6519 43.2921 32.8538 42.1678 33.7318 40.7676C34.6097 39.3674 35.1328 37.7405 35.2483 36.0509C35.2595 35.8789 35.2707 35.7085 35.2804 35.5366C35.4324 35.4881 35.583 35.4381 35.7342 35.385C37.2245 34.8865 38.5676 33.9702 39.6284 32.7284C40.6893 31.4867 41.4305 29.9632 41.7774 28.3113C42.1244 26.6594 42.0649 24.9374 41.6048 23.3184C41.1448 21.6995 40.3006 20.2407 39.157 19.0889L39.1542 19.0881ZM36.5812 9.65199C37.4092 10.7622 37.95 12.0921 38.1479 13.5049C38.3457 14.9177 38.1936 16.3622 37.707 17.6898C36.0106 16.1077 34.2207 14.6481 32.3485 13.3206C31.5744 11.0415 30.6631 8.82028 29.6207 6.67122C30.9203 6.45057 32.2507 6.61011 33.4748 7.13347C34.6989 7.65683 35.7726 8.52508 36.5854 9.64893L36.5812 9.65199ZM33.7329 26.317C31.7385 29.8218 29.3657 33.0551 26.665 35.9479C22.8997 36.439 19.094 36.439 15.3288 35.9479C12.6281 33.0551 10.2553 29.8218 8.26088 26.317C8.65855 22.219 9.5055 18.1872 10.7837 14.3076C13.9801 12.0899 17.409 10.2955 20.9976 8.96268C24.5858 10.2956 28.0146 12.09 31.2107 14.3076C32.4909 18.1854 33.34 22.2157 33.7399 26.3125L33.7329 26.317ZM30.3979 12.0093C28.0842 10.5327 25.6625 9.2659 23.1572 8.22182C24.8124 7.69887 26.4915 7.26904 28.1875 6.93406C29.005 8.5823 29.7442 10.275 30.4022 12.0055L30.3979 12.0093ZM20.9976 1.49674C22.3123 1.48601 23.606 1.85609 24.7454 2.56891C25.8848 3.28172 26.829 4.31154 27.4806 5.5524C25.2851 6.00707 23.1194 6.61792 20.9976 7.38101C18.8757 6.61803 16.7101 6.00718 14.5146 5.5524C15.166 4.31021 16.1104 3.27922 17.2506 2.56567C18.3907 1.85213 19.6854 1.48185 21.001 1.49295L20.9976 1.49674ZM13.807 6.93254C15.5032 7.2678 17.1824 7.69763 18.8379 8.2203C16.3324 9.26442 13.9105 10.5312 11.5965 12.0078C12.2538 10.2745 12.9931 8.57923 13.8112 6.92875L13.807 6.93254ZM5.41258 9.65199C6.10454 8.69412 6.98771 7.91962 7.99547 7.38697C9.00322 6.85433 10.1092 6.57745 11.2298 6.57727C11.6128 6.57735 11.9952 6.60876 12.3738 6.67122C11.3316 8.8204 10.4204 11.0416 9.64605 13.3206C7.77382 14.648 5.98377 16.1076 4.28745 17.6898C3.80076 16.3614 3.64884 14.9159 3.84734 13.5024C4.04584 12.0889 4.58758 10.7585 5.41675 9.64819L5.41258 9.65199ZM6.64501 33.945C5.39138 33.5207 4.26223 32.7462 3.37047 31.6989C2.47871 30.6517 1.85556 29.3684 1.56339 27.9773C1.27122 26.5863 1.32028 25.1363 1.70558 23.7723C2.09089 22.4083 2.79894 21.1781 3.75901 20.2047C4.65562 22.43 5.68556 24.589 6.84226 26.6677C6.63169 29.0851 6.56721 31.5148 6.64918 33.9412L6.64501 33.945ZM4.84091 19.1503C6.1392 17.9181 7.49501 16.7594 8.90292 15.6787C8.09296 18.4589 7.49497 21.3069 7.1149 24.1937C6.27877 22.5549 5.52089 20.8702 4.8444 19.1465L4.84091 19.1503ZM8.07546 28.7706C9.57039 31.1924 11.2465 33.4762 13.0869 35.5986C11.3865 35.289 9.70197 34.8845 8.03989 34.3867C7.96436 32.5136 7.97762 30.6375 8.07963 28.766L8.07546 28.7706ZM12.348 42.6745C11.1588 42.0644 10.1407 41.121 9.39843 39.9414C8.65618 38.7618 8.21664 37.3885 8.12498 35.963C10.2852 36.589 12.4809 37.0601 14.6979 37.3735C16.3051 39.0618 18.0128 40.6334 19.8097 42.0783C18.7268 42.8872 17.4652 43.3683 16.1546 43.4721C14.844 43.576 13.5316 43.2988 12.3522 42.6692L12.348 42.6745ZM20.9969 41.167C19.6026 40.0657 18.2612 38.8872 16.9781 37.6363C19.6525 37.8762 22.3406 37.8762 25.015 37.6363C23.7333 38.8851 22.3935 40.0618 21.001 41.1617L20.9969 41.167ZM29.6451 42.6745C28.465 43.3038 27.152 43.5802 25.8411 43.4753C24.5301 43.3704 23.2686 42.8879 22.1862 42.0775C23.9832 40.6325 25.691 39.0608 27.2987 37.3727C29.5155 37.0593 31.7109 36.5881 33.8709 35.9622C33.7787 37.3867 33.3391 38.7589 32.5973 39.9376C31.8555 41.1163 30.8381 42.0591 29.6499 42.6692L29.6451 42.6745ZM33.9524 34.3867C32.2906 34.8844 30.6062 35.289 28.9061 35.5986C30.7463 33.4762 32.4223 31.1924 33.9169 28.7706C34.0189 30.6388 34.0324 32.5116 33.9574 34.3814L33.9524 34.3867ZM33.0902 15.6764C34.4982 16.757 35.854 17.9157 37.1522 19.148C36.4744 20.8703 35.7154 22.5534 34.8782 24.1907C34.5001 21.3037 33.9037 18.4554 33.095 15.6749L33.0902 15.6764ZM40.432 27.9737C40.1491 29.3692 39.5291 30.6577 38.636 31.7065C37.7428 32.7554 36.6086 33.5267 35.3501 33.9412C35.4308 31.5137 35.3649 29.0829 35.1529 26.6647C36.3097 24.5858 37.3397 22.4266 38.2361 20.201C39.2046 21.1677 39.9186 22.3974 40.3045 23.7635C40.6905 25.1297 40.7345 26.5829 40.432 27.9737Z" fill="#AFAFAF"/>
</svg>
