<svg width="30" height="30" viewBox="0 0 30 30" fill="none" xmlns="http://www.w3.org/2000/svg">
<path d="M27.959 12.7282L27.7102 12.4756C27.76 12.3746 27.8097 12.2736 27.8595 12.1726C29.153 8.88977 27.561 5.1524 24.2774 3.83927C23.2326 3.43523 22.1381 3.28371 20.9938 3.48573C20.8943 3.48573 20.7948 3.53624 20.6456 3.53624C20.5958 3.43523 20.5461 3.33422 20.4963 3.23321C18.755 0.152399 14.8744 -0.908207 11.8396 0.85947C10.8943 1.41503 10.0486 2.22311 9.50129 3.23321C9.45154 3.33422 9.40179 3.43523 9.35204 3.53624C9.25253 3.53624 9.15303 3.48573 9.00378 3.48573C5.52119 2.93018 2.33711 5.35442 1.78985 8.88977C1.64059 10.0009 1.7401 11.1625 2.13811 12.2231C2.18786 12.3241 2.23761 12.4251 2.28736 12.5261C2.18786 12.6271 2.13811 12.6777 2.0386 12.7787C-0.54846 15.1524 -0.697714 19.1928 1.69035 21.8191C2.43661 22.6271 3.43164 23.2837 4.47642 23.5867L4.82467 23.6878C4.82467 23.7888 4.82467 23.9403 4.82467 24.0413C4.97393 26.3645 6.36696 28.3847 8.40676 29.3443C9.25253 29.7484 10.1978 30.0009 11.1928 30.0009C12.4864 30.0009 13.6804 29.5968 14.7252 28.8898C14.8247 28.8393 14.9242 28.7383 15.0237 28.6878C15.1232 28.7383 15.2227 28.8393 15.3222 28.8898C18.2078 30.91 22.1381 30.1524 24.1282 27.2231C24.7749 26.2635 25.1232 25.2029 25.2227 24.0918C25.2227 23.9908 25.2227 23.8393 25.2227 23.7383C25.3222 23.6878 25.4217 23.6878 25.5709 23.6372C28.9043 22.5766 30.7948 18.9908 29.75 15.6069C29.352 14.4958 28.755 13.4857 27.959 12.7282ZM26.1182 6.41502C27.3122 7.93018 27.6107 9.95038 26.9142 11.7686C25.7202 10.708 24.4267 9.74836 23.0834 8.83927C22.5361 7.32412 21.8894 5.85947 21.1431 4.39482C23.0336 4.1423 24.9242 4.89987 26.1182 6.41502ZM24.0784 17.5261C22.6356 19.8494 20.9441 22.0211 19.0535 23.9403C16.367 24.2433 13.6306 24.2433 10.9441 23.9403C9.00378 22.0211 7.31224 19.8494 5.9192 17.5261C6.21771 14.7989 6.81472 12.1221 7.71025 9.49583C9.9988 8.03119 12.4366 6.81907 15.0237 5.90997C17.561 6.81907 20.0486 7.98068 22.3371 9.49583C23.1829 12.1221 23.7799 14.7989 24.0784 17.5261ZM21.6903 8.03119C20.0486 7.07159 18.3073 6.213 16.5162 5.50593C17.7102 5.1524 18.9043 4.84937 20.0983 4.64735C20.6953 5.70795 21.2426 6.86957 21.6903 8.03119ZM14.9739 1.01099C16.8645 1.01099 18.6555 2.02109 19.6008 3.73826C18.0585 4.04129 16.4665 4.44533 14.9739 4.95038C13.4814 4.44533 11.8893 4.04129 10.3471 3.73826C11.2923 2.02109 13.0834 0.96048 14.9739 1.01099ZM9.84955 4.64735C11.0436 4.84937 12.2376 5.1524 13.4316 5.50593C11.6406 6.213 9.8993 7.07159 8.25751 8.03119C8.75502 6.86957 9.25253 5.70795 9.84955 4.64735ZM3.8794 6.41502C4.87442 5.10189 6.41671 4.34432 8.00875 4.34432C8.25751 4.34432 8.55602 4.34432 8.80477 4.39482C8.05851 5.80896 7.41174 7.32412 6.86447 8.83927C5.52119 9.74836 4.22766 10.708 3.03363 11.7686C2.33711 10.0009 2.63562 7.93018 3.8794 6.41502ZM4.72517 22.6271C1.9391 21.7181 0.347062 18.6878 1.24258 15.809C1.49134 14.9504 1.98885 14.0918 2.68537 13.4857C3.33214 14.9504 4.07841 16.415 4.87442 17.7787C4.72517 19.3948 4.67542 21.011 4.72517 22.6271ZM3.43164 12.7787C4.37691 11.9706 5.32219 11.1625 6.31721 10.4554C5.7202 12.3241 5.32219 14.1928 5.02368 16.112C4.47642 15.0514 3.92915 13.9403 3.43164 12.7787ZM5.76995 19.1928C6.81472 20.809 8.00875 22.3241 9.35204 23.7383C8.15801 23.5362 6.91423 23.2837 5.76995 22.9302C5.67044 21.6676 5.67044 20.4049 5.76995 19.1928ZM8.80477 28.4352C7.06348 27.6271 5.9192 25.91 5.76995 23.9403C7.31224 24.3443 8.85452 24.6473 10.4466 24.8999C11.5908 26.011 12.8346 27.0716 14.0784 28.0312C12.5859 29.1423 10.5461 29.2938 8.80477 28.4352ZM14.9739 27.4251C13.9789 26.6675 13.0336 25.91 12.0884 25.0514C13.9789 25.2029 15.9192 25.2029 17.8097 25.0514C16.9142 25.91 15.969 26.7181 14.9739 27.4251ZM21.1431 28.4352C19.4515 29.2938 17.4117 29.1423 15.8197 28.0312C17.1132 27.0716 18.3073 26.011 19.4515 24.8999C21.0436 24.6979 22.5859 24.3948 24.1282 23.9403C24.0287 25.91 22.8844 27.6271 21.1431 28.4352ZM24.2277 22.9302C23.0336 23.2837 21.8396 23.5362 20.6456 23.7383C21.9391 22.3241 23.1331 20.809 24.2277 19.1928C24.2774 20.4049 24.2774 21.6676 24.2277 22.9302ZM23.6306 10.4554C24.6257 11.1625 25.6207 11.9706 26.5162 12.7787C26.0187 13.9403 25.4714 15.0514 24.8744 16.1625C24.6257 14.1928 24.1779 12.3241 23.6306 10.4554ZM28.8545 18.6372C28.4565 20.5564 27.0635 22.0716 25.2227 22.6271C25.2724 21.011 25.2227 19.3948 25.0734 17.7787C25.9192 16.415 26.6157 14.9504 27.2625 13.4857C28.7053 14.7989 29.3023 16.7686 28.8545 18.6372Z" fill="#9146FF"/>
</svg>
