<svg width="157" height="238" viewBox="0 0 157 238" fill="none" xmlns="http://www.w3.org/2000/svg">
<path fill-rule="evenodd" clip-rule="evenodd" d="M74.1244 0.384221C68.3113 1.48531 62.2865 5.63049 59.5322 10.4217L58.5934 12.055L57.3063 11.8166C41.6605 8.91794 28.1664 25.2533 33.2969 40.8833L33.9271 42.8045L32.1118 44.7435C21.2957 56.3055 25.8247 75.1883 40.7157 80.6166C42.9031 81.414 42.5895 80.8867 43.2632 84.9112C45.7701 99.8773 63.4984 107.662 76.6333 99.5627L78.4418 98.4488L79.2253 99.0374C91.9161 108.568 111.59 99.7576 113.615 83.636L113.909 81.2953L115.576 80.7334C130.935 75.5514 135.553 55.9058 124.151 44.2528L122.693 42.763L123.148 41.6045C128.839 27.126 118.118 11.8433 102.22 11.7671L97.9656 11.7473L96.9457 10.1694C92.0585 2.60818 82.9648 -1.29067 74.1244 0.384221ZM82.0606 4.11093C86.4146 5.00625 90.5419 7.62889 93.1131 11.132C94.0787 12.4458 94.1885 12.8692 93.5682 12.8692C92.7748 12.8692 85.4341 14.6599 81.8509 15.7273L78.2508 16.7997L75.9151 16.0617C73.2341 15.2139 66.674 13.539 64.3046 13.0968C63.4202 12.9315 62.6584 12.7653 62.6109 12.7268C62.4072 12.5596 64.2819 10.1655 65.6887 8.79725C69.9615 4.64119 76.1011 2.88419 82.0606 4.11093ZM56.6375 15.4711C56.6375 15.5413 56.0944 16.682 55.4306 18.0057C54.1059 20.6471 51.2923 27.0845 50.5711 29.1244C50.1517 30.3116 49.94 30.5322 47.996 31.8242C45.4614 33.508 41.6407 36.3612 39.0408 38.5109C36.7615 40.3965 36.9791 40.3847 36.4597 38.6534C33.5453 28.9385 40.2092 17.9127 50.3307 15.7055C51.7672 15.3919 56.6375 15.2109 56.6375 15.4711ZM106.744 15.8361C116.525 18.3015 122.795 28.5259 120.358 38.0371C119.767 40.3471 119.816 40.3372 117.698 38.5673C115.656 36.8608 111.382 33.6465 108.495 31.6472L106.56 30.3057L105.127 26.7056C104.34 24.726 102.854 21.3594 101.825 19.2245L99.9551 15.3425H102.371C103.966 15.3425 105.452 15.5097 106.744 15.8361ZM65.0466 17.055C66.8828 17.4586 69.3026 18.0344 70.4235 18.3361L72.4614 18.8832L69.4342 20.1683C65.0446 22.0321 61.9679 23.5062 58.6231 25.3453C57.0016 26.2367 55.6196 26.9668 55.5523 26.9668C55.3732 26.9668 57.3785 22.508 59.1098 19.0543C60.4404 16.4 60.662 16.0904 61.1547 16.1992C61.4594 16.2675 63.2105 16.6523 65.0466 17.055ZM98.0072 19.9803C101.592 27.3843 101.585 27.3536 99.6405 26.203C97.4779 24.9229 90.3747 21.4623 87.2337 20.1584C84.8307 19.1602 84.4122 18.9119 84.8544 18.7486C85.9624 18.3391 94.607 16.2833 95.9801 16.1032C96.0583 16.0924 96.9704 17.8375 98.0072 19.9803ZM81.4265 21.8758C87.8728 24.3224 94.7079 27.6088 100.431 31.015L103.539 32.865L104.561 36.0367C107.059 43.7889 108.737 51.3926 109.64 59.0469C109.879 61.072 102.614 71.0897 95.2203 78.9338L92.2791 82.0541L88.6177 82.3964C84.0096 82.8257 72.7711 82.8346 68.0145 82.4112L64.4283 82.0927L62.5011 80.0656C55.7947 73.0148 46.9889 61.4123 46.9938 59.6345C47.0027 55.8405 49.9063 42.5255 52.2559 35.4995C53.2254 32.6018 53.1275 32.6869 59.5204 29.1324C64.8062 26.1931 76.8826 20.8262 78.2884 20.7906C78.4309 20.7866 79.8426 21.2753 81.4265 21.8758ZM47.3609 38.7434C45.962 43.5643 44.0358 52.4126 44.016 54.1043C44.0042 55.1767 43.5382 54.4298 41.058 49.3497C38.1416 43.3763 38.1881 44.1401 40.6128 42.108C43.0495 40.0651 47.8278 36.3899 47.9277 36.4819C47.9663 36.5175 47.7111 37.5355 47.3609 38.7434ZM113.97 40.4183C115.676 41.7934 117.329 43.1419 117.643 43.4139L118.213 43.9086L116.54 47.4948C115.62 49.4675 114.406 51.91 113.844 52.9241L112.821 54.7662L112.657 53.7897C111.69 48.0646 110.48 42.6225 109.239 38.416L108.639 36.3849L109.753 37.1516C110.366 37.5721 112.263 39.0432 113.97 40.4183ZM41.896 58.9944L43.0821 60.9721L42.8111 65.2389C42.6617 67.5845 42.54 71.2301 42.54 73.3393C42.54 77.7694 42.6913 77.5874 40.0875 76.2845C29.4693 70.9729 26.6102 57.3482 34.1566 48.029L35.4259 46.461L38.0674 51.7389C39.5206 54.6415 41.243 57.9072 41.896 58.9944ZM124.796 51.5757C129.707 61.5805 125.113 73.1899 114.673 77.16L114.017 77.4093L114.013 72.0354C114.011 69.0804 113.906 65.416 113.78 63.8935L113.551 61.1244L115.287 58.0813C117.195 54.7395 120.935 47.2326 120.953 46.7103C120.98 45.9426 123.756 49.4576 124.796 51.5757ZM110.361 75.868L110.184 78.5035L108.947 78.825C107.533 79.194 100.447 80.764 99.2389 80.9767C98.4741 81.1123 98.5691 80.9658 101.191 77.9712C103.753 75.0449 109.68 67.3798 110.029 66.5389C110.292 65.9067 110.548 73.087 110.361 75.868ZM49.197 70.1201C51.4358 73.1434 54.471 76.9127 56.2151 78.8359C58.257 81.0865 58.3213 81.1884 57.6081 81.0262C57.2786 80.951 55.1724 80.4989 52.9277 80.0201C50.6829 79.5413 48.2621 78.9744 47.5488 78.7617L46.2499 78.3729L46.2528 73.0129C46.2548 70.0637 46.329 67.3798 46.4181 67.0483L46.5793 66.4439L46.9711 67.0434C47.1867 67.3728 48.1889 68.7579 49.197 70.1201ZM50.7017 83.36C54.3354 84.1831 60.7619 85.3356 61.7156 85.3356C62.1183 85.3356 63.1373 86.0766 64.8596 87.6239C68.3964 90.7975 69.9872 92.143 72.7612 94.3036L75.1593 96.1714L73.5032 97.0361C62.4645 102.801 48.7033 95.9597 46.79 83.7567C46.5971 82.527 46.6189 82.3726 46.9671 82.4805C47.1848 82.5487 48.8656 82.9445 50.7017 83.36ZM109.944 83.543C108.434 93.8911 97.7569 101.125 87.5908 98.6872C85.8348 98.2668 82.4 96.8204 81.8093 96.2535C81.7104 96.1595 82.768 95.196 84.1589 94.1137C87.1902 91.7532 90.068 89.2809 92.2524 87.1589L93.86 85.5968L98.3119 84.8449C100.76 84.4324 104.322 83.7191 106.226 83.261C108.131 82.803 109.785 82.4142 109.903 82.3974C110.02 82.3815 110.039 82.896 109.944 83.543ZM75.093 86.4446C78.0698 86.5317 82.118 86.501 84.0907 86.3773C86.0633 86.2527 87.7066 86.1735 87.7432 86.2012C87.8352 86.2705 82.9075 90.3464 80.4411 92.2409L78.3982 93.809L77.4386 93.1442C74.5766 91.1606 68.429 85.8985 69.2808 86.1617C69.5014 86.2289 72.1172 86.3566 75.093 86.4446ZM0 161.624V194.406H3.95721H7.91442V180.432V166.458H16.9082H25.9009L26.0731 168.572C27.2731 183.361 34.0864 191.855 46.6763 194.253L48.4501 194.591L48.5846 193.942C48.6578 193.585 48.9378 191.905 49.2049 190.21C49.7461 186.779 49.7797 186.88 48.0207 186.615C39.8738 185.394 34.9392 179.219 33.8579 168.894C33.5304 165.768 33.4157 166.029 35.3141 165.586C51.4229 161.828 53.2848 137.297 37.9684 130.616C34.219 128.981 34.6335 129.013 16.5095 128.923L0 128.842V161.624ZM58.8338 131.782C53.9071 134.356 55.8055 141.973 61.3733 141.973C64.5223 141.973 66.7601 139.688 66.7729 136.461C66.7878 132.308 62.5773 129.826 58.8338 131.782ZM81.752 139.423C81.375 146.542 79.0334 149.393 73.5675 149.393H72.7137V153.226V157.06H77.03H81.3454L81.4245 170.107C81.5036 182.998 81.5106 183.174 82.0794 184.884C84.2321 191.36 88.7968 194.907 95.9425 195.652C106.1 196.712 113.722 190.132 113.862 180.185L113.893 177.959L110.802 177.668C105.862 177.203 106.35 177.053 106.35 179.046C106.35 189.145 93.4326 192.519 89.7505 183.38L89.1609 181.916L89.0886 169.489L89.0154 157.06H98.301H107.587V153.226V149.393H97.5699C92.0605 149.393 87.5532 149.346 87.5532 149.29C87.5532 149.233 87.761 148.701 88.0152 148.108C88.8354 146.195 89.3033 143.469 89.4576 139.711L89.609 136.037H85.7705H81.931L81.752 139.423ZM31.8377 136.675C43.6164 139.108 43.9547 155.664 32.2859 158.66C31.0661 158.973 28.8342 159.039 19.3626 159.039H7.91442V147.662V136.285H18.9313C28.0032 136.285 30.2806 136.354 31.8377 136.675ZM135.351 148.167C126.707 149.244 120.695 155.64 120.695 163.761C120.695 166.021 120.459 165.863 124.157 166.082C125.586 166.168 127.032 166.289 127.373 166.354C127.984 166.469 127.991 166.451 128.016 164.671C128.1 158.723 131.664 155.193 137.884 154.9C145.138 154.56 150.053 158.843 149.34 164.883L149.261 165.555L141.841 166.733C131.65 168.352 128.371 169.398 124.988 172.108C120.294 175.868 118.965 182.909 121.882 188.551C126.51 197.501 141.796 198.403 148.427 190.118L149.385 188.92V191.664V194.406H153.108H156.833L156.745 177.65C156.648 159.385 156.686 159.882 155.179 156.585C152.384 150.464 144.336 147.047 135.351 148.167ZM57.6268 171.9V194.406H61.4604H65.2939V171.9V149.393H61.4604H57.6268V171.9ZM149.296 175.03C148.856 182.722 145.52 187.321 139.54 188.484C127.968 190.735 123.078 178.59 134.113 175.005C135.801 174.456 147.389 172.248 148.99 172.17C149.435 172.148 149.451 172.298 149.296 175.03ZM34.8788 210.865C30.9187 211.968 28.6205 215.025 29.0568 218.608C29.5633 222.773 32.1068 224.77 37.9407 225.581C44.7372 226.527 46.9829 230.38 42.1789 232.855C37.9516 235.034 32.8092 232.559 31.7922 227.857C31.5835 226.892 31.7408 226.903 29.3486 227.699L27.4086 228.345L27.5758 229.235C29.7988 241.088 49.9983 240.512 48.8883 228.626C48.4778 224.229 45.8146 222.273 38.8301 221.237C33.8519 220.5 31.9198 218.332 34.2041 216.048C36.899 213.353 42.3906 214.728 43.558 218.39C43.9883 219.74 44.0942 219.76 46.2321 218.898C48.5263 217.973 48.5302 217.958 47.1709 215.363C45.129 211.465 39.769 209.504 34.8788 210.865ZM103.877 215.802V220.626L102.841 219.876C97.6916 216.145 90.6794 219.637 89.703 226.418C88.4941 234.812 96.2324 240.888 102.642 236.574L103.877 235.743V236.592V237.441H106.103H108.329V224.209V210.977H106.103H103.877V215.802ZM77.5356 213.636C76.8609 214.962 76.2702 216.13 76.2218 216.233C76.1743 216.335 77.0706 216.418 78.2142 216.418H80.2937L82.1121 214.255C83.1123 213.063 84.0946 211.895 84.2964 211.658C84.6417 211.249 84.4963 211.224 81.7114 211.224H78.7613L77.5356 213.636ZM56.0618 218.751C53.3719 219.474 51.507 221.636 51.2646 224.31L51.1281 225.816H52.3677C53.0494 225.816 53.9437 225.884 54.3542 225.966C55.0705 226.109 55.1081 226.074 55.2743 225.091C55.8787 221.517 62.3834 221.063 62.0332 224.619L61.955 225.407L58.9703 225.951C53.2828 226.989 51.2073 228.672 51.2073 232.247C51.2073 237.221 57.7396 239.839 61.5227 236.379L62.0787 235.871V236.655V237.441H64.181H66.2832V230.684C66.2832 222.237 66.1358 221.593 63.8001 219.823C62.1104 218.542 58.632 218.06 56.0618 218.751ZM118.204 218.719C111.629 220.584 109.295 229.668 114.014 235.03C117.873 239.413 126.016 238.566 128.596 233.509C129.633 231.476 129.462 230.97 127.62 230.612C125.386 230.177 125.445 230.164 125.017 231.186C123.417 235.015 118.044 234.832 116.217 230.887C115.431 229.188 115.084 229.279 122.331 229.279H128.914L128.813 226.868C128.559 220.803 123.784 217.135 118.204 218.719ZM70.2404 225.808C70.2404 232.114 70.284 232.84 70.7341 234.044C72.1508 237.828 76.939 239.092 80.7369 236.683L81.8647 235.968V236.705V237.441H84.0907H86.3166V228.166V218.891H84.1025H81.8885L81.8153 225.031L81.7411 231.172L81.0743 232.179C79.3282 234.815 75.463 234.34 74.723 231.399C74.5568 230.742 74.445 227.99 74.445 224.594V218.891H72.3427H70.2404V225.808ZM123.052 222.963C123.992 223.514 124.899 224.783 124.899 225.544C124.899 225.732 123.517 225.816 120.448 225.816C117.999 225.816 115.996 225.755 115.996 225.681C115.996 223.227 120.525 221.482 123.052 222.963ZM101.181 223.29C103.749 224.631 104.672 228.08 103.235 230.966C100.845 235.76 94.0104 233.731 93.9886 228.219C93.9728 223.975 97.658 221.45 101.181 223.29ZM62.0213 230.287C61.7404 233.207 58.4094 234.959 56.223 233.335C54.2612 231.878 55.5463 230.108 59.0772 229.406C62.0926 228.804 62.1618 228.825 62.0213 230.287Z" fill="white"/>
</svg>
