<svg width="57" height="57" viewBox="0 0 57 57" fill="none" xmlns="http://www.w3.org/2000/svg">
<g clip-path="url(#clip0)">
<path d="M28.5 54.4375C35.3791 54.4375 41.9764 51.7048 46.8406 46.8406C51.7048 41.9764 54.4375 35.3791 54.4375 28.5C54.4375 21.6209 51.7048 15.0236 46.8406 10.1594C41.9764 5.29519 35.3791 2.5625 28.5 2.5625C21.6209 2.5625 15.0236 5.29519 10.1594 10.1594C5.29519 15.0236 2.5625 21.6209 2.5625 28.5C2.5625 35.3791 5.29519 41.9764 10.1594 46.8406C15.0236 51.7048 21.6209 54.4375 28.5 54.4375ZM47.9454 47.9454C42.7882 53.1027 35.7935 56 28.5 56C21.2065 56 14.2118 53.1027 9.05456 47.9454C3.89731 42.7882 1 35.7935 1 28.5C1 21.2065 3.89731 14.2118 9.05456 9.05456C14.2118 3.89731 21.2065 1 28.5 1C35.7935 1 42.7882 3.89731 47.9454 9.05456C53.1027 14.2118 56 21.2065 56 28.5C56 35.7935 53.1027 42.7882 47.9454 47.9454Z" fill="#FF815E" stroke="#FF815E" stroke-width="2"/>
<path d="M16.9075 16.9051L16.9075 16.9051L16.9084 16.9042C17.0275 16.7849 17.1688 16.6903 17.3245 16.6257C17.4802 16.5611 17.647 16.5278 17.8156 16.5278C17.9841 16.5278 18.151 16.5611 18.3066 16.6257C18.4623 16.6903 18.6037 16.7849 18.7227 16.9042L18.7231 16.9046L28.1494 26.3346L28.5031 26.6883L28.8567 26.3346L38.283 16.9047C38.283 16.9047 38.283 16.9046 38.2831 16.9046C38.4022 16.7855 38.5437 16.691 38.6994 16.6265L38.5086 16.1658L38.6994 16.6265C38.8551 16.562 39.022 16.5288 39.1906 16.5288C39.3591 16.5288 39.526 16.562 39.6817 16.6265C39.8375 16.691 39.9789 16.7855 40.0981 16.9047C40.2173 17.0239 40.3119 17.1654 40.3764 17.3211L40.8383 17.1297L40.3764 17.3211C40.4409 17.4768 40.4741 17.6437 40.4741 17.8123C40.4741 17.9808 40.4409 18.1477 40.3764 18.3034L40.8383 18.4948L40.3764 18.3034C40.3119 18.4591 40.2173 18.6006 40.0982 18.7198C40.0982 18.7198 40.0982 18.7198 40.0981 18.7198L30.6683 28.1461L30.3145 28.4998L30.6683 28.8534L40.0981 38.2797C40.0981 38.2797 40.0982 38.2797 40.0982 38.2798C40.2174 38.3989 40.3119 38.5404 40.3764 38.6961L40.8383 38.5047L40.3764 38.6961C40.4409 38.8518 40.4741 39.0187 40.4741 39.1873C40.4741 39.3558 40.4409 39.5227 40.3764 39.6784C40.3119 39.8342 40.2173 39.9756 40.0981 40.0948C39.9789 40.214 39.8375 40.3086 39.6817 40.3731C39.526 40.4376 39.3591 40.4708 39.1906 40.4708C39.022 40.4708 38.8551 40.4376 38.6994 40.3731C38.5437 40.3086 38.4022 40.2141 38.2831 40.0949C38.283 40.0949 38.283 40.0949 38.283 40.0948L28.8567 30.665L28.5031 30.3112L28.1494 30.665L18.7231 40.0948C18.7231 40.0949 18.7231 40.0949 18.7231 40.0949C18.6039 40.2141 18.4624 40.3086 18.3067 40.3731C18.151 40.4376 17.9841 40.4708 17.8156 40.4708C17.647 40.4708 17.4801 40.4376 17.3244 40.3731C17.1687 40.3086 17.0272 40.214 16.908 40.0948C16.7888 39.9756 16.6943 39.8342 16.6298 39.6784C16.5653 39.5227 16.5321 39.3558 16.5321 39.1873C16.5321 39.0187 16.5653 38.8518 16.6298 38.6961L16.1678 38.5047L16.6298 38.6961C16.6943 38.5404 16.7888 38.3989 16.9079 38.2798C16.9079 38.2797 16.908 38.2797 16.908 38.2797L26.3379 28.8534L26.6916 28.4998L26.3379 28.1461L16.9079 18.7198L16.9075 18.7194C16.7882 18.6004 16.6936 18.459 16.629 18.3033C16.5644 18.1477 16.5311 17.9808 16.5311 17.8123C16.5311 17.6437 16.5644 17.4769 16.629 17.3212C16.6936 17.1655 16.7882 17.0242 16.9075 16.9051Z" fill="#FF815E" stroke="#FF815E"/>
</g>
<defs>
<clipPath id="clip0">
<rect width="57" height="57" fill="white"/>
</clipPath>
</defs>
</svg>
