<svg width="57" height="57" viewBox="0 0 57 57" fill="none" xmlns="http://www.w3.org/2000/svg">
<g clip-path="url(#clip0)">
<path d="M28.5 54.4375C35.3791 54.4375 41.9764 51.7048 46.8406 46.8406C51.7048 41.9764 54.4375 35.3791 54.4375 28.5C54.4375 21.6209 51.7048 15.0236 46.8406 10.1594C41.9764 5.29519 35.3791 2.5625 28.5 2.5625C21.6209 2.5625 15.0236 5.29519 10.1594 10.1594C5.29519 15.0236 2.5625 21.6209 2.5625 28.5C2.5625 35.3791 5.29519 41.9764 10.1594 46.8406C15.0236 51.7048 21.6209 54.4375 28.5 54.4375ZM47.9454 47.9454C42.7882 53.1027 35.7935 56 28.5 56C21.2065 56 14.2118 53.1027 9.05456 47.9454C3.89731 42.7882 1 35.7935 1 28.5C1 21.2065 3.89731 14.2118 9.05456 9.05456C14.2118 3.89731 21.2065 1 28.5 1C35.7935 1 42.7882 3.89731 47.9454 9.05456C53.1027 14.2118 56 21.2065 56 28.5C56 35.7935 53.1027 42.7882 47.9454 47.9454Z" fill="#ACFFC5" stroke="#ACFFC5" stroke-width="2"/>
<path d="M25.4759 36.7607C24.7689 36.0537 24.7689 34.9075 25.4759 34.2004L26.709 32.9674L27.8942 34.1527C28.6011 34.8597 28.6011 36.006 27.8941 36.7129C27.4102 37.1968 26.7207 37.3495 26.1069 37.1711C25.877 37.0829 25.6614 36.9461 25.4759 36.7607ZM23.9498 35.3288L17.4969 28.8751C16.7899 28.1681 16.79 27.0219 17.4969 26.3149C18.204 25.6079 19.3503 25.6079 20.0573 26.315L26.0019 32.2603L24.7688 33.4933C24.2587 34.0035 23.9857 34.6609 23.9498 35.3288ZM42.2064 22.5905L29.4237 35.3733C29.409 34.674 29.1349 33.9793 28.6013 33.4456L27.4161 32.2603L32.561 27.1154L39.6461 20.0303C40.3531 19.3232 41.4994 19.3232 42.2064 20.0303C42.9134 20.7373 42.9134 21.8835 42.2064 22.5905Z" fill="#ACFFC5" stroke="#ACFFC5"/>
</g>
<defs>
<clipPath id="clip0">
<rect width="57" height="57" fill="white"/>
</clipPath>
</defs>
</svg>
