<svg width="57" height="57" viewBox="0 0 57 57" fill="none" xmlns="http://www.w3.org/2000/svg">
<g clip-path="url(#clip0)">
<path d="M28.5 54.4375C35.3791 54.4375 41.9764 51.7048 46.8406 46.8406C51.7048 41.9764 54.4375 35.3791 54.4375 28.5C54.4375 21.6209 51.7048 15.0236 46.8406 10.1594C41.9764 5.29519 35.3791 2.5625 28.5 2.5625C21.6209 2.5625 15.0236 5.29519 10.1594 10.1594C5.29519 15.0236 2.5625 21.6209 2.5625 28.5C2.5625 35.3791 5.29519 41.9764 10.1594 46.8406C15.0236 51.7048 21.6209 54.4375 28.5 54.4375ZM47.9454 47.9454C42.7882 53.1027 35.7935 56 28.5 56C21.2065 56 14.2118 53.1027 9.05456 47.9454C3.89731 42.7882 1 35.7935 1 28.5C1 21.2065 3.89731 14.2118 9.05456 9.05456C14.2118 3.89731 21.2065 1 28.5 1C35.7935 1 42.7882 3.89731 47.9454 9.05456C53.1027 14.2118 56 21.2065 56 28.5C56 35.7935 53.1027 42.7882 47.9454 47.9454Z" fill="#326BF6" stroke="#326BF6" stroke-width="2"/>
<path d="M27.8859 35.2438C26.8226 35.2438 25.9606 34.3818 25.9606 33.3184V16.6187C25.9606 15.5554 26.8226 14.6934 27.8859 14.6934C28.9492 14.6934 29.8112 15.5554 29.8112 16.6187V33.3184C29.8112 34.3818 28.9492 35.2438 27.8859 35.2438ZM27.9467 38.2027C28.6493 38.2027 29.2438 38.4594 29.7302 38.9728C30.2436 39.4592 30.5003 40.0402 30.5003 40.7158C30.5003 41.4724 30.2436 42.1074 29.7302 42.6208C29.2438 43.1343 28.6493 43.391 27.9467 43.391C27.1901 43.391 26.555 43.1343 26.0416 42.6208C25.5282 42.1074 25.2715 41.4724 25.2715 40.7158C25.2715 40.0132 25.5282 39.4187 26.0416 38.9323C26.555 38.4459 27.1901 38.2027 27.9467 38.2027Z" fill="#326BF6"/>
</g>
<defs>
<clipPath id="clip0">
<rect width="57" height="57" fill="white"/>
</clipPath>
</defs>
</svg>
